<?xml version="1.0" standalone="no"?>
<!DOCTYPE svg PUBLIC "-//W3C//DTD SVG 20010904//EN"
 "http://www.w3.org/TR/2001/REC-SVG-20010904/DTD/svg10.dtd">
<svg version="1.0" xmlns="http://www.w3.org/2000/svg"
 width="700.000000pt" height="700.000000pt" viewBox="0 0 700.000000 700.000000"
 preserveAspectRatio="xMidYMid meet">
<metadata>
Created by potrace 1.11, written by Peter Selinger 2001-2013
</metadata>
<g transform="translate(0.000000,700.000000) scale(0.100000,-0.100000)"
fill="#000000" stroke="none">
<path d="M1123 6687 c-39 -12 -81 -54 -91 -93 -5 -16 -8 -93 -7 -171 0 -91 -3
-143 -10 -144 -5 0 -120 -1 -255 -3 -159 -2 -261 -7 -290 -15 -210 -59 -365
-201 -438 -403 l-27 -73 -2 -2465 c-1 -2080 1 -2475 13 -2530 40 -188 182
-359 359 -433 130 -54 -51 -51 3130 -50 l2960 0 80 22 c199 56 353 200 422
398 l28 78 2 2470 c2 2349 1 2473 -16 2537 -57 211 -218 377 -431 443 -44 14
-102 18 -295 21 -132 1 -249 3 -260 3 -20 1 -20 7 -20 152 0 166 -6 191 -57
234 -38 32 -106 34 -153 5 -56 -34 -65 -69 -65 -239 0 -150 0 -151 -22 -152
-30 -1 -621 -1 -630 0 -5 1 -8 68 -8 150 0 82 -4 160 -9 173 -32 82 -129 114
-202 65 -56 -37 -63 -63 -63 -234 0 -131 -2 -153 -16 -154 -19 -1 -621 -1
-635 0 -7 1 -10 55 -10 150 0 165 -6 194 -55 235 -56 46 -154 31 -196 -31 -16
-24 -19 -51 -22 -193 l-4 -165 -316 2 c-174 1 -322 2 -329 2 -8 1 -13 48 -15
164 -3 153 -4 164 -27 194 -61 82 -187 67 -233 -27 -9 -20 -13 -72 -13 -179 0
-96 -3 -151 -10 -152 -13 -1 -616 -1 -635 0 -13 1 -16 25 -16 160 -1 147 -3
161 -23 190 -57 80 -174 82 -227 4 -16 -24 -20 -53 -24 -192 l-5 -164 -320 0
c-176 1 -323 2 -327 2 -3 1 -8 74 -10 164 -2 131 -6 166 -20 185 -36 51 -99
75 -155 59z m-105 -692 c4 -4 8 -50 8 -103 2 -160 2 -159 34 -195 38 -44 93
-59 144 -42 80 28 96 65 96 224 0 108 2 121 18 122 9 0 158 1 329 2 l313 2 0
-125 c0 -148 12 -183 78 -216 33 -17 49 -20 84 -14 49 9 107 65 109 105 1 14
2 75 3 137 l1 111 305 -1 c168 0 316 -1 330 -1 l25 -1 0 -112 c-1 -128 5 -161
37 -196 66 -70 179 -53 226 34 5 10 11 75 11 144 1 68 4 126 6 129 4 3 597 5
643 2 9 -1 12 -33 12 -124 0 -139 13 -178 69 -211 63 -37 136 -19 185 47 18
24 20 43 21 157 0 108 3 130 15 131 86 5 632 0 637 -5 4 -4 8 -64 9 -133 2
-135 8 -153 66 -196 33 -25 98 -25 140 0 55 32 68 72 68 210 0 110 2 123 18
124 21 1 589 1 620 0 22 -1 22 -3 22 -124 0 -100 3 -129 19 -157 45 -85 156
-97 221 -24 16 19 31 40 31 47 1 7 2 65 3 129 0 64 4 120 8 124 9 9 407 9 463
0 127 -20 241 -129 271 -256 4 -19 8 -128 9 -242 l1 -208 -3226 0 -3227 0 2
223 2 222 30 65 c51 110 152 185 266 197 29 3 53 6 54 7 6 5 385 -3 391 -9z
m5702 -984 c3 0 5 -936 5 -2078 l-1 -2078 -22 -55 c-31 -79 -88 -140 -168
-181 l-68 -34 -2965 0 -2966 0 -55 26 c-56 26 -134 94 -158 138 -48 84 -45
-40 -47 2176 -1 1139 0 2075 2 2080 2 7 1083 10 3221 9 1769 -1 3219 -2 3222
-3z"/>
<path d="M1411 4722 c-66 -35 -90 -125 -51 -189 27 -44 74 -67 140 -67 101 1
155 48 155 137 0 63 -23 99 -78 122 -51 20 -125 19 -166 -3z"/>
<path d="M2084 4726 c-100 -44 -103 -195 -4 -244 33 -16 105 -17 1090 -16 974
0 1057 2 1087 17 87 46 96 155 18 227 l-27 25 -1066 2 c-882 2 -1072 0 -1098
-11z"/>
<path d="M4905 4371 c-90 -25 -163 -69 -235 -141 -73 -72 -120 -154 -144 -246
-22 -84 -23 -681 -2 -761 21 -80 58 -153 110 -216 l47 -58 -45 -54 c-52 -65
-90 -138 -110 -215 -18 -68 -23 -653 -6 -740 30 -158 161 -323 305 -385 98
-42 128 -45 465 -45 179 1 334 2 345 4 104 15 210 72 295 157 74 73 117 150
147 261 4 13 7 169 8 348 2 356 -2 397 -55 507 -17 34 -50 84 -75 111 l-44 49
31 34 c37 41 90 123 106 164 35 89 40 155 40 457 -1 297 -7 360 -39 448 -34
94 -139 216 -234 270 -109 62 -173 71 -530 69 -267 -1 -330 -4 -380 -18z m745
-278 c67 -30 106 -67 136 -130 l26 -57 0 -297 c0 -341 -5 -369 -74 -439 -78
-81 -91 -84 -438 -84 -294 1 -307 1 -355 23 -63 28 -110 73 -138 131 -20 43
-21 59 -21 360 0 263 2 321 15 350 34 75 113 143 186 158 20 4 167 7 327 7
270 -1 294 -3 336 -22z m10 -1305 c67 -34 117 -91 140 -161 8 -27 12 -127 12
-336 0 -286 -1 -299 -22 -349 -27 -62 -92 -124 -153 -145 -33 -11 -107 -14
-347 -13 -286 1 -308 3 -350 22 -58 27 -108 77 -134 134 -18 42 -20 67 -22
325 -1 154 3 304 8 334 11 63 44 119 91 155 69 53 86 55 427 53 277 -2 319 -4
350 -19z"/>
<path d="M1680 4004 c-418 -75 -776 -371 -924 -766 -57 -152 -75 -268 -71
-448 3 -162 6 -177 41 -305 105 -378 416 -700 790 -818 278 -88 605 -71 852
44 35 16 70 29 78 29 8 0 37 -11 64 -25 149 -76 282 -104 465 -101 77 2 151 6
165 9 14 4 48 12 75 18 119 28 277 108 378 192 79 66 93 79 153 152 199 239
275 572 200 875 -101 411 -429 710 -845 771 -53 7 -130 10 -204 6 l-120 -6
-64 59 c-83 78 -188 152 -287 202 -81 41 -233 95 -296 104 -19 3 -54 9 -77 13
-67 13 -292 10 -373 -5z m355 -268 c125 -21 268 -79 380 -157 l75 -52 -57 -35
c-396 -243 -575 -709 -447 -1162 24 -86 98 -231 159 -311 30 -41 55 -77 55
-80 0 -3 -44 -17 -97 -30 -102 -24 -263 -31 -366 -16 -193 30 -392 138 -532
290 -78 85 -98 111 -140 192 -161 303 -144 665 44 951 148 224 391 378 656
413 57 8 211 6 270 -3z m1115 -397 c276 -76 475 -287 536 -569 19 -88 12 -264
-14 -350 -68 -230 -247 -419 -469 -495 -95 -33 -157 -42 -261 -40 -87 2 -232
30 -232 44 0 4 12 18 26 32 32 29 132 152 159 194 95 150 159 317 181 470 3
28 8 59 10 70 8 41 5 227 -5 283 -6 31 -13 73 -16 92 -6 37 -61 200 -88 261
l-16 36 57 -3 c31 -2 90 -13 132 -25z m-446 -82 c64 -111 106 -268 110 -417 7
-261 -84 -491 -272 -683 -83 -86 -83 -86 -137 -24 -88 99 -159 248 -180 373
-7 46 -7 188 0 224 3 14 8 41 11 60 22 118 122 292 215 375 75 66 205 149 220
139 4 -2 19 -24 33 -47z"/>
<path d="M4480 1223 c-114 -39 -126 -193 -18 -249 26 -13 127 -15 834 -15 769
-1 806 0 841 18 68 36 93 124 52 190 -44 70 4 66 -879 67 -596 1 -803 -2 -830
-11z"/>
</g>
</svg>
