<?xml version="1.0" encoding="utf-8"?>
<!-- Generator: Adobe Illustrator 19.1.0, SVG Export Plug-In . SVG Version: 6.00 Build 0)  -->
<svg version="1.1" id="Layer_1" xmlns="http://www.w3.org/2000/svg" xmlns:xlink="http://www.w3.org/1999/xlink" x="0px" y="0px"
	 width="250px" height="150px" viewBox="116 -66 250 150" style="enable-background:new 116 -66 250 150;" xml:space="preserve">
<style type="text/css">
	.st0{fill:#495057;stroke:#495057;stroke-width:0.475;stroke-miterlimit:10;}
	.st1{fill:#EF4580;stroke:#EF4481;stroke-width:0.475;stroke-miterlimit:10;}
	.st2{fill:#DEE2E6;stroke:#DEE2E6;stroke-width:0.5;stroke-miterlimit:10;}
	.st3{fill:#DEE2E6;}
	.st4{fill:#DEE2E6;stroke:#DEE2E6;stroke-width:0.25;stroke-miterlimit:10;}
	.st5{fill:#EF4481;stroke:#EF4481;stroke-width:0.25;stroke-miterlimit:10;}
	.st6{fill:#EF4681;stroke:#EF4481;stroke-width:0.25;stroke-miterlimit:10;}
	.st7{opacity:0.8;}
	.st8{opacity:0.2;}
	.st9{display:none;fill:#FF4180;}
	.st10{fill:#FFFFFF;}
	.st11{display:none;fill:#DEE2E6;}
</style>
<g id="heart_2_">
	<path class="st0" d="M240.3,36.8c-0.9-0.9-2-1.3-3.3-1.3c-1.2,0-2.4,0.5-3.3,1.4l-0.5,0.5l-0.5-0.5c-0.9-0.9-2-1.4-3.3-1.4
		c-1.2,0-2.4,0.5-3.3,1.3c-0.9,0.9-1.4,2-1.3,3.3c0,1.2,0.5,2.4,1.4,3.3l6.6,6.6c0.1,0.1,0.2,0.1,0.3,0.1s0.2,0,0.3-0.1l6.7-6.6
		c0.9-0.9,1.4-2,1.4-3.3C241.6,38.8,241.2,37.7,240.3,36.8z M239.6,42.7l-6.3,6.3l-6.3-6.3c-0.7-0.7-1.1-1.6-1.1-2.6
		s0.4-1.9,1.1-2.6s1.6-1.1,2.6-1.1s1.9,0.4,2.6,1.1l0.8,0.8c0.2,0.2,0.5,0.2,0.7,0l0.8-0.8c0.7-0.7,1.6-1.1,2.6-1.1s1.9,0.4,2.6,1.1
		s1.1,1.6,1.1,2.6C240.7,41.1,240.3,42,239.6,42.7z"/>
</g>
<g id="heart_1_">
	<path class="st1" d="M222.3,36.8c-0.9-0.9-2-1.3-3.3-1.3c-1.2,0-2.4,0.5-3.3,1.4l-0.5,0.5l-0.5-0.5c-0.9-0.9-2-1.4-3.3-1.4
		c-1.2,0-2.4,0.5-3.3,1.3c-0.9,0.9-1.4,2-1.3,3.3c0,1.2,0.5,2.4,1.4,3.3l6.6,6.6c0.1,0.1,0.2,0.1,0.3,0.1s0.2,0,0.3-0.1l6.7-6.6
		c0.9-0.9,1.4-2,1.4-3.3C223.6,38.8,223.2,37.7,222.3,36.8z M221.6,42.7l-6.3,6.3l-6.3-6.3c-0.7-0.7-1.1-1.6-1.1-2.6
		s0.4-1.9,1.1-2.6s1.6-1.1,2.6-1.1s1.9,0.4,2.6,1.1l0.8,0.8c0.2,0.2,0.5,0.2,0.7,0l0.8-0.8c0.7-0.7,1.6-1.1,2.6-1.1s1.9,0.4,2.6,1.1
		s1.1,1.6,1.1,2.6C222.7,41.1,222.3,42,221.6,42.7z"/>
</g>
<g id="arrow">
	<path class="st2" d="M124.3,39.3l5.5,5.5c0.3,0.3,0.3,0.9,0,1.3c-0.3,0.3-0.9,0.3-1.3,0l-4.8-4.9l-4.8,4.8c-0.3,0.3-0.9,0.3-1.3,0
		c-0.3-0.3-0.3-0.9,0-1.3l5.5-5.5c0.2-0.2,0.4-0.3,0.6-0.3C123.9,39.1,124.2,39.1,124.3,39.3z"/>
</g>
<g id="twitter">
	<g>
		<path class="st3" d="M167.9,37.3c-0.6,0.3-1.2,0.4-1.9,0.5c0.7-0.4,1.2-1.1,1.5-1.8c-0.6,0.4-1.4,0.7-2.1,0.8
			c-0.6-0.6-1.5-1.1-2.4-1.1c-1.8,0-3.3,1.5-3.3,3.3c0,0.3,0,0.5,0.1,0.8c-2.8-0.1-5.2-1.5-6.9-3.5c-0.3,0.5-0.5,1.1-0.5,1.7
			c0,1.2,0.6,2.2,1.5,2.8c-0.5,0-1.1-0.2-1.5-0.4l0,0c0,1.6,1.1,3,2.7,3.3c-0.3,0.1-0.6,0.1-0.9,0.1c-0.2,0-0.4,0-0.6-0.1
			c0.4,1.3,1.7,2.3,3.1,2.3c-1.1,0.9-2.6,1.4-4.1,1.4c-0.3,0-0.5,0-0.8,0c1.5,0.9,3.2,1.5,5.1,1.5c6.1,0,9.5-5.1,9.5-9.5V39
			C166.8,38.6,167.4,38,167.9,37.3z"/>
	</g>
</g>
<g>
	<path class="st3" d="M185.9,38.5c-0.7-1.3-1.8-2.3-3-3c-1.3-0.7-2.7-1.1-4.2-1.1s-2.9,0.4-4.2,1.1c-1.3,0.7-2.3,1.8-3,3
		c-0.7,1.3-1.1,2.7-1.1,4.2c0,1.7,0.5,3.2,1.4,4.6s2.1,2.4,3.6,3c0-0.8,0-1.4,0.1-1.9l1.1-4.5c-0.2-0.4-0.3-0.8-0.3-1.3
		c0-0.6,0.2-1.1,0.5-1.5s0.7-0.6,1.1-0.6c0.4,0,0.6,0.1,0.8,0.4c0.2,0.2,0.3,0.5,0.3,0.9c0,0.2,0,0.5-0.1,0.8
		c-0.1,0.3-0.2,0.7-0.3,1.1c-0.1,0.4-0.2,0.8-0.3,1c-0.1,0.4,0,0.8,0.2,1.1c0.3,0.3,0.6,0.5,1.1,0.5c0.8,0,1.4-0.4,1.9-1.3
		c0.5-0.9,0.7-1.9,0.7-3.1c0-0.9-0.3-1.7-0.9-2.3c-0.6-0.6-1.5-0.9-2.6-0.9c-1.2,0-2.2,0.4-3,1.2c-0.8,0.8-1.1,1.7-1.1,2.8
		c0,0.7,0.2,1.2,0.6,1.6c0.1,0.1,0.2,0.3,0.1,0.5c0,0,0,0.2-0.1,0.3c0,0.2-0.1,0.3-0.1,0.3c-0.1,0.2-0.2,0.3-0.4,0.2
		c-0.6-0.2-1-0.6-1.3-1.2c-0.3-0.6-0.4-1.2-0.4-2c0-0.5,0.1-1,0.2-1.5c0.2-0.5,0.4-1,0.7-1.4c0.3-0.5,0.7-0.9,1.2-1.2
		c0.5-0.3,1-0.6,1.7-0.8c0.7-0.2,1.4-0.3,2.1-0.3c1,0,1.9,0.2,2.8,0.7c0.8,0.5,1.4,1,1.9,1.8c0.4,0.7,0.6,1.5,0.6,2.3
		c0,1.1-0.2,2.1-0.6,2.9c-0.4,0.9-0.9,1.5-1.6,2c-0.7,0.5-1.5,0.7-2.3,0.7c-0.4,0-0.9-0.1-1.2-0.3c-0.4-0.2-0.6-0.5-0.8-0.7
		c-0.3,1.3-0.5,2-0.6,2.3c-0.1,0.5-0.4,1.1-0.8,1.8c0.8,0.2,1.6,0.3,2.4,0.3c1.5,0,2.9-0.4,4.2-1.1s2.3-1.8,3-3
		c0.7-1.3,1.1-2.7,1.1-4.2C187,41.2,186.7,39.8,185.9,38.5z"/>
</g>
<g id="instagram">
	<path class="st4" d="M201.8,34.8h-7.2c-2.4,0-4.3,1.9-4.3,4.3v7.2c0,2.4,1.9,4.3,4.3,4.3h7.2c2.4,0,4.3-1.9,4.3-4.3v-7.2
		C206,36.7,204.1,34.8,201.8,34.8z M205.1,46.3c0,1.8-1.5,3.3-3.3,3.3h-7.2c-1.8,0-3.3-1.5-3.3-3.3v-7.2c0-1.8,1.5-3.3,3.3-3.3h7.2
		c1.8,0,3.3,1.5,3.3,3.3V46.3z"/>
	<path class="st4" d="M198.1,38.4c-2.4,0-4.3,1.9-4.3,4.3c0,2.4,1.9,4.3,4.3,4.3c2.4,0,4.3-1.9,4.3-4.3
		C202.5,40.3,200.5,38.4,198.1,38.4z M198.1,46.1c-1.9,0-3.4-1.5-3.4-3.4s1.5-3.4,3.4-3.4s3.4,1.5,3.4,3.4
		C201.5,44.5,200,46.1,198.1,46.1z"/>
	<path class="st4" d="M202.6,36.5c-0.7,0-1.3,0.6-1.3,1.3c0,0.7,0.6,1.3,1.3,1.3s1.3-0.6,1.3-1.3C203.9,37.1,203.3,36.5,202.6,36.5z
		 M202.6,38.1c-0.2,0-0.3-0.2-0.3-0.3c0-0.2,0.2-0.3,0.3-0.3c0.2,0,0.3,0.2,0.3,0.3C202.9,38,202.8,38.1,202.6,38.1z"/>
</g>
<g id="facebook">
	<path class="st3" d="M145.8,34.5h-2.1c-2.4,0-3.9,1.6-3.9,4v1.9h-2.1c-0.2,0-0.3,0.2-0.3,0.3v2.7c0,0.2,0.2,0.3,0.3,0.3h2v6.8
		c0,0.2,0.1,0.3,0.3,0.3h2.8c0.2,0,0.3-0.2,0.3-0.3v-6.8h2.6c0.2,0,0.3-0.1,0.3-0.3v-2.7c0-0.1,0-0.2-0.1-0.2
		c-0.1-0.1-0.1-0.1-0.2-0.1h-2.5v-1.6c0-0.8,0.2-1.1,1.2-1.1h1.4c0.2,0,0.3-0.2,0.3-0.3v-2.5C146.1,34.6,146,34.5,145.8,34.5z"/>
</g>
<g id="_x36_">
	<g>
		<g>
			<path class="st5" d="M133.6,0.8H131c-0.4,0-0.6,0.3-0.6,0.6c0,0.4,0.3,0.6,0.6,0.6h2.6c0.4,0,0.6-0.3,0.6-0.6
				C134.2,1,134,0.8,133.6,0.8z"/>
		</g>
	</g>
	<g>
		<g>
			<path class="st5" d="M155.3,8.5c-1.2-4.9-5.7-8.6-11-8.6C138.1-0.1,133,5,133,11.2s5.1,11.3,11.3,11.3c5.3,0,9.8-3.7,11-8.6
				c1.4-0.2,2.5-1.3,2.5-2.8C157.8,9.8,156.7,8.6,155.3,8.5z M144.3,21.3c-5.5,0-10-4.5-10-10s4.5-10,10-10c4.8,0,8.9,3.4,9.8,8l0,0
				v0.1c0.1,0.6,0.2,1.3,0.2,1.9C154.3,16.8,149.8,21.3,144.3,21.3z M155.5,12.6c0.1-0.5,0.1-0.9,0.1-1.4s0-0.9-0.1-1.4
				c0.6,0.2,0.9,0.8,0.9,1.4C156.5,11.9,156.1,12.4,155.5,12.6z"/>
		</g>
	</g>
	<g>
		<g>
			<path class="st5" d="M156.3-1c-1.1,0-1.9,0.9-1.9,1.9c0,1.1,0.9,1.9,1.9,1.9c1.1,0,1.9-0.9,1.9-1.9S157.3-1,156.3-1z M156.3,1.6
				c-0.4,0-0.6-0.3-0.6-0.6s0.3-0.6,0.6-0.6s0.6,0.3,0.6,0.6S156.6,1.6,156.3,1.6z"/>
		</g>
	</g>
	<g>
		<g>
			<path class="st5" d="M150.4-3.1l-0.7-1.7l0,0l0,0l0,0l0,0l0,0l0,0l0,0l0,0l-0.1-0.1l0,0l0,0l0,0l0,0h-0.1l0,0l0,0l0,0l0,0l0,0
				l0,0l0,0l0,0h-9.7l0,0l0,0l0,0l0,0l0,0l0,0l0,0l0,0l0,0l0,0c0,0,0,0-0.1,0l0,0l0,0l0,0l0,0l-0.1,0.1l0,0l0,0l0,0l0,0l0,0l0,0l0,0
				l0,0l-0.7,1.7c-0.1,0.3,0,0.7,0.4,0.8c0.1,0,0.2,0,0.2,0c0.3,0,0.5-0.2,0.6-0.4l0.5-1.3h8.1l0.5,1.3c0.1,0.3,0.3,0.4,0.6,0.4
				c0.1,0,0.2,0,0.2,0C150.4-2.4,150.6-2.8,150.4-3.1z"/>
		</g>
	</g>
	<g>
		<g>
			<path class="st5" d="M147.9,8.2c-0.5-0.5-1.3-0.8-2-0.8c-0.6,0-1.1,0.2-1.6,0.5c-0.5-0.3-1-0.5-1.6-0.5c-0.8,0-1.5,0.3-2,0.8
				c-1.1,1.1-1.1,3,0,4.1l3.2,3.2c0.1,0.1,0.3,0.2,0.5,0.2s0.3-0.1,0.5-0.2l3.2-3.2c0.5-0.5,0.8-1.3,0.8-2
				C148.8,9.5,148.5,8.8,147.9,8.2z M147,11.4l-2.7,2.7l-2.7-2.7c-0.6-0.6-0.6-1.7,0-2.3c0.3-0.3,0.7-0.5,1.1-0.5s0.8,0.2,1.1,0.5
				s0.7,0.3,0.9,0c0.3-0.3,0.7-0.5,1.1-0.5c0.4,0,0.8,0.2,1.1,0.5s0.5,0.7,0.5,1.1C147.5,10.7,147.3,11.1,147,11.4z"/>
		</g>
	</g>
	<g>
		<g>
			<path class="st5" d="M144.3,2.5c-4.8,0-8.8,3.9-8.8,8.8c0,4.8,3.9,8.8,8.8,8.8c4.9,0,8.8-3.9,8.8-8.8S149.1,2.5,144.3,2.5z
				 M144.3,18.7c-4.1,0-7.5-3.4-7.5-7.5s3.4-7.5,7.5-7.5s7.5,3.4,7.5,7.5S148.4,18.7,144.3,18.7z"/>
		</g>
	</g>
	<g>
		<g>
			<path class="st5" d="M157.5-3.5h-3.9l-2.4-4l0,0l0,0l0,0l0,0l0,0l0,0l0,0l0,0l0,0l0,0l0,0l0,0l0,0l0,0l0,0l0,0l0,0l0,0l0,0l0,0
				l0,0l0,0h-13.3l0,0l0,0l0,0l0,0l0,0l0,0l0,0l0,0l0,0l0,0l0,0l0,0l0,0l0,0l0,0l0,0l0,0l0,0l0,0l0,0l0,0l0,0l-2.4,4h-5.8v-1.9
				c0-0.4-0.3-0.6-0.6-0.6h-5.8c-0.4,0-0.6,0.3-0.6,0.6v1.9h-0.2c-1.8,0-3.2,1.4-3.2,3.2v22.2c0,1.8,1.4,3.2,3.2,3.2h35.1
				c1.8,0,3.2-1.4,3.2-3.2V-0.3C160.7-2.1,159.3-3.5,157.5-3.5z M124-4.8h3.8v1.3H124V-4.8z M157.5,23.8h-28.4V-0.3
				c0-0.4-0.3-0.6-0.6-0.6c-0.4,0-0.6,0.3-0.6,0.6v24.2h-5.4c-1.1,0-1.9-0.9-1.9-1.9v-4.5h1.9c0.4,0,0.6-0.3,0.6-0.6
				c0-0.4-0.3-0.6-0.6-0.6h-1.9v-2.1h1.9c0.4,0,0.6-0.3,0.6-0.6c0-0.4-0.3-0.6-0.6-0.6h-1.9v-2.1h1.9c0.4,0,0.6-0.3,0.6-0.6
				c0-0.4-0.3-0.6-0.6-0.6h-1.9V7.6h1.9c0.4,0,0.6-0.3,0.6-0.6c0-0.4-0.3-0.6-0.6-0.6h-1.9V0.2c0-1.1,0.9-1.9,1.9-1.9h12.8l0,0l0,0
				c0,0,0,0,0.1,0l0,0c0,0,0,0,0.1,0l0,0c0,0,0,0,0.1,0l0,0c0,0,0,0,0.1,0l0,0c0,0,0,0,0.1,0l0,0l0,0l0,0c0,0,0,0,0-0.1l0,0
				c0,0,0,0,0-0.1l0,0l2.4-4h12.1l2.4,4l0,0c0,0,0,0,0,0.1l0,0c0,0,0,0,0,0.1l0,0l0,0l0,0c0,0,0,0,0.1,0l0,0c0,0,0,0,0.1,0l0,0
				c0,0,0,0,0.1,0l0,0c0,0,0,0,0.1,0l0,0c0,0,0,0,0.1,0l0,0l0,0h4.3c1.1,0,1.9,0.9,1.9,1.9v22.2l0,0C159.5,23,158.6,23.8,157.5,23.8
				z"/>
		</g>
	</g>
</g>
<g id="_x35_">
	<path class="st5" d="M354.9-37.2c-2.5,0-4.6,2-4.6,4.6c0,0.4,0.3,0.7,0.7,0.7s0.7-0.3,0.7-0.7c0.1-1.7,1.5-3,3.1-3
		c1.7,0,3,1.3,3.1,3c0,3.6-5.7,6.3-7,6.9c-2-0.9-3.8-2.1-5.4-3.6c-0.3-0.3-0.7-0.3-1,0s-0.3,0.7,0,1c1.8,1.7,3.9,3.1,6.2,4.1
		c0.2,0.1,0.4,0.1,0.5,0c0.3-0.1,8.1-3.3,8.1-8.3C359.5-35.1,357.4-37.2,354.9-37.2z"/>
	<path class="st5" d="M326.3-29.3l-2.5,2.5c-0.1-0.5-0.4-0.9-0.7-1.3c-0.5-0.5-1.3-0.8-2-0.8c-0.8,0-1.5,0.3-2,0.8
		c-2.1,2.1-0.4,6.4-0.2,6.9c0.1,0.2,0.2,0.3,0.4,0.4c1.3,0.5,2.6,0.8,4,0.9c1.1,0.1,2.1-0.3,2.9-1c0.5-0.5,0.8-1.3,0.8-2
		s-0.3-1.5-0.8-2c-0.4-0.4-0.8-0.6-1.3-0.7l2.5-2.5c0.3-0.3,0.3-0.8,0-1.1C327-29.6,326.6-29.6,326.3-29.3z M325.1-24
		c0.3,0.3,0.4,0.6,0.4,1s-0.2,0.7-0.4,1c-1.1,1.1-3.8,0.4-5,0c-0.5-1.2-1.2-3.9,0-5c0.6-0.6,1.5-0.6,2,0c0.6,0.6,0.6,1.5,0,2
		c-0.2,0.2-0.3,0.5-0.2,0.7c0.1,0.3,0.3,0.5,0.5,0.5s0.5,0,0.7-0.2C323.6-24.6,324.6-24.6,325.1-24L325.1-24z"/>
	<path class="st5" d="M361.2-58.5c-0.1-0.2-0.2-0.4-0.5-0.5l-2.7-0.9l-0.9-2.7c-0.1-0.2-0.3-0.4-0.5-0.5s-0.5,0-0.7,0.2l-4.1,4.1
		c-0.2,0.2-0.3,0.5-0.2,0.7l0.9,2.6l-9.9,9.8c-0.1,0.1-0.2,0.3-0.2,0.5c0,0.2,0.1,0.4,0.2,0.5s0.3,0.2,0.5,0.2s0.4-0.1,0.5-0.2
		l9.8-9.9l2.6,0.9c0.1,0,0.1,0,0.2,0c0.2,0,0.4-0.1,0.5-0.2l4.1-4.1C361.1-58,361.2-58.2,361.2-58.5z M358.2-57.1l-1.5-0.5l0.9-0.9
		l1.5,0.5L358.2-57.1z M356.1-61l0.5,1.5l-0.9,0.9l-0.5-1.5L356.1-61z M354-59l0.5,1.5l-0.9,0.9l-0.5-1.5L354-59z M356.2-55.1
		l-1.5-0.5l0.9-0.9l1.5,0.5L356.2-55.1z"/>
	<path class="st5" d="M354-44.4c0-2-0.6-3.9-1.8-5.5c-0.2-0.3-0.7-0.4-1-0.1c-0.3,0.2-0.4,0.7-0.2,1c1,1.3,1.5,3,1.5,4.6
		c0,9.1-14.4,15.6-16.6,16.5c-2.2-0.9-16.6-7.4-16.6-16.5c0-4.4,3.5-7.9,7.9-7.9s7.9,3.5,7.9,7.9c0,0.4,0.3,0.7,0.7,0.7
		s0.7-0.3,0.7-0.7c0-4.4,3.5-7.9,7.9-7.9c0.7,0,1.3,0.1,2,0.3c0.4,0.1,0.8-0.1,0.9-0.5s-0.1-0.8-0.5-0.9c-4.5-1.1-9.2,1.2-10.9,5.5
		c-1.7-4.1-6.1-6.5-10.5-5.6s-7.5,4.7-7.5,9.2c0,10.7,17,17.7,17.7,17.9c0.2,0.1,0.4,0.1,0.5,0C337-26.7,354-33.7,354-44.4z"/>
</g>
<g id="_x34_">
	<path class="st5" d="M292.6-32.1c0,1.6-1.3,2.9-2.9,2.9s-2.9-1.3-2.9-2.9c0-0.4-0.3-0.7-0.7-0.7c-0.4,0-0.7,0.3-0.7,0.7
		c0,2.4,1.9,4.3,4.3,4.3s4.3-1.9,4.3-4.3c0-0.4-0.3-0.7-0.7-0.7C292.9-32.8,292.6-32.5,292.6-32.1z"/>
	<path class="st5" d="M310.4-47h-9.1c-0.4,0-0.7,0.3-0.7,0.7s0.3,0.7,0.7,0.7h8.4v5.7H299c-0.4,0-0.7,0.3-0.7,0.7s0.3,0.7,0.7,0.7
		h10.7v2.9h-13.5c-0.4,0-0.7,0.3-0.7,0.7v13.5h-25.8v-12.8h13.8c0.4,0,0.7-0.3,0.7-0.7s-0.3-0.7-0.7-0.7h-13.8v-2.9h10.7
		c0.4,0,0.7-0.3,0.7-0.7s-0.3-0.7-0.7-0.7h-3.6v-5.7h1.3c0.4,0,0.7-0.3,0.7-0.7s-0.3-0.7-0.7-0.7H269c-0.4,0-0.7,0.3-0.7,0.7v25.7
		c0,0.4,0.3,0.7,0.7,0.7h41.3c0.4,0,0.7-0.3,0.7-0.7v-25.7C311.1-46.7,310.8-47,310.4-47z M275.4-45.6v5.7h-5.7v-5.7H275.4z
		 M296.8-21.4v-12.8h12.9v12.8C309.7-21.4,296.8-21.4,296.8-21.4z"/>
	<path class="st5" d="M278.3-23.5c0.4,0,0.7-0.3,0.7-0.7v-3.6h1.4c0.3,0,0.5-0.2,0.7-0.4c0.1-0.3,0.1-0.6-0.1-0.8l-4.3-4.3
		c-0.1-0.1-0.3-0.2-0.5-0.2s-0.4,0.1-0.5,0.2l-4.3,4.3c-0.2,0.2-0.3,0.5-0.1,0.8c0.1,0.3,0.4,0.4,0.7,0.4h1.4v3.6
		c0,0.4,0.3,0.7,0.7,0.7s0.7-0.3,0.7-0.7v-3.6h2.9v3.6C277.6-23.8,277.9-23.5,278.3-23.5z M273.6-29.2l2.6-2.6l2.6,2.6H273.6z"/>
	<path class="st5" d="M304.5-32.6c-0.1-0.1-0.3-0.2-0.5-0.2s-0.4,0.1-0.5,0.2l-2.9,2.9c-0.1,0.1-0.2,0.3-0.2,0.5v4.3
		c0,0.4,0.3,0.7,0.7,0.7c0.4,0,0.7-0.3,0.7-0.7v-4l2.1-2.1l2.1,2.1v4c0,0.4,0.3,0.7,0.7,0.7c0.4,0,0.7-0.3,0.7-0.7v-4.3
		c0-0.2-0.1-0.4-0.2-0.5L304.5-32.6z"/>
	<path class="st5" d="M292.6-54.9c-1.1,0-2.2,0.5-2.9,1.4c-0.9-1.2-2.5-1.7-4-1.2s-2.4,1.8-2.4,3.4c0,3.9,5.9,6.3,6.2,6.4
		c0.2,0.1,0.4,0.1,0.5,0c0.2-0.1,6.2-2.5,6.2-6.4C296.1-53.3,294.5-54.9,292.6-54.9z M289.7-46.4c-1.6-0.7-5-2.7-5-4.9
		c0-1.2,1-2.1,2.1-2.1s2.1,1,2.1,2.1c0,0.4,0.3,0.7,0.7,0.7c0.4,0,0.7-0.3,0.7-0.7c0-1.2,1-2.1,2.1-2.1s2.1,1,2.1,2.1
		C294.7-49,291.3-47.1,289.7-46.4z"/>
	<path class="st5" d="M289.2-31.5c0.3,0.3,0.7,0.3,1,0c3-2.9,5.4-6.3,7.2-10c0.2-0.4,0-0.8-0.4-0.9c-0.4-0.2-0.8,0-0.9,0.4
		c-1.7,3.3-3.8,6.4-6.4,9c-1.9-1.9-8.6-9.3-8.6-17.5c0-4.7,3.8-8.6,8.6-8.6c4.8,0,8.6,3.8,8.6,8.6c0,2-0.4,4-1.1,5.9
		c-0.1,0.4,0.1,0.8,0.4,0.9c0.4,0.1,0.8-0.1,0.9-0.4c0.7-2.1,1.1-4.2,1.1-6.4c0-5.5-4.5-10-10-10s-10,4.5-10,10
		C279.7-40.4,288.8-31.9,289.2-31.5z"/>
</g>
<g id="_x33_">
	<path class="st6" d="M255.3-40.3c-0.5,0-0.8,0.4-0.8,0.8v17.8h-9v-9c0-2.3-1.8-4.1-4.1-4.1h-3.3c-2.3,0-4.1,1.8-4.1,4.1v9h-9v-17.7
		c0-0.5-0.4-0.8-0.8-0.8c-0.5,0-0.8,0.4-0.8,0.8v18.6c0,0.5,0.4,0.8,0.8,0.8h10.7c0.5,0,0.8-0.4,0.8-0.8v-9.9c0-1.4,1.1-2.5,2.5-2.5
		h0.8v12.3c0,0.5,0.4,0.8,0.8,0.8h15.6c0.5,0,0.8-0.4,0.8-0.8v-18.5C256.1-39.9,255.8-40.3,255.3-40.3z M241.3-33.2
		c1.4,0,2.5,1.1,2.5,2.5v9h-3.3v-11.5H241.3z"/>
	<path class="st6" d="M228.2-23.3h3.3c0.5,0,0.8-0.4,0.8-0.8s-0.4-0.8-0.8-0.8h-3.3c-0.5,0-0.8,0.4-0.8,0.8S227.7-23.3,228.2-23.3z"
		/>
	<path class="st6" d="M240.2-55.2c-0.3-0.2-0.7-0.2-1,0L217-39.6c-0.4,0.3-0.5,0.8-0.2,1.2s0.8,0.5,1.2,0.2l21.7-15.3l21.7,15.3
		c0.1,0.1,0.3,0.1,0.5,0.1c0.3,0,0.5-0.1,0.7-0.3c0.1-0.2,0.2-0.4,0.1-0.6c0-0.2-0.2-0.4-0.3-0.5L240.2-55.2z"/>
	<path class="st6" d="M218-42.4l21.7-15.2l21.7,15.3c0.1,0.1,0.3,0.1,0.5,0.1c0.3,0,0.5-0.1,0.7-0.3c0.1-0.2,0.2-0.4,0.1-0.6
		c0-0.2-0.2-0.4-0.3-0.5l-21.9-15.5v-2.8h1.6c0.5,0,0.8-0.4,0.8-0.8s-0.4-0.8-0.8-0.8h-1.6v-1.7c0-0.5-0.4-0.8-0.8-0.8
		c-0.4,0-0.8,0.4-0.8,0.8v1.6h-1.6c-0.5,0-0.8,0.4-0.8,0.8s0.4,0.8,0.8,0.8h1.6v2.9l-21.8,15.4c-0.4,0.3-0.5,0.8-0.2,1.2
		C217.1-42.2,217.6-42.1,218-42.4z"/>
	<path class="st6" d="M239.5-38.9c0.1,0,0.3,0,0.4,0c0.2-0.1,5.6-1.4,5.6-5.8c0-1.4-0.8-2.6-2.1-3.1s-2.7-0.1-3.6,0.9
		c-0.9-1-2.3-1.4-3.6-0.9s-2.1,1.7-2.1,3.1C233.9-40.4,239.3-39,239.5-38.9z M237.2-46.3c0.9,0,1.6,0.7,1.6,1.6
		c0,0.5,0.4,0.8,0.8,0.8c0.4,0,0.8-0.4,0.8-0.8c0-0.9,0.7-1.6,1.6-1.6s1.6,0.7,1.6,1.6c0,2.6-3.3,3.8-4.1,4.1
		c-0.8-0.3-4.1-1.4-4.1-4.1C235.6-45.6,236.3-46.3,237.2-46.3z"/>
	<path class="st6" d="M251.2-26.6c0.5,0,0.8-0.4,0.8-0.8v-3.3c0-1.4-1.1-2.5-2.5-2.5s-2.5,1.1-2.5,2.5v3.3c0,0.5,0.4,0.8,0.8,0.8
		c0.5,0,0.8-0.4,0.8-0.8v-3.3c0-0.5,0.4-0.8,0.8-0.8c0.5,0,0.8,0.4,0.8,0.8v3.3C250.4-27,250.7-26.6,251.2-26.6z"/>
	<path class="st6" d="M228.2-26.6h3.3c0.5,0,0.8-0.4,0.8-0.8v-3.3c0-1.4-1.1-2.5-2.5-2.5s-2.5,1.1-2.5,2.5v3.3
		C227.4-27,227.7-26.6,228.2-26.6z M229-30.7c0-0.5,0.4-0.8,0.8-0.8c0.5,0,0.8,0.4,0.8,0.8v2.5H229V-30.7z"/>
	<path class="st6" d="M247.9-18.4h-16.4c-0.5,0-0.8,0.4-0.8,0.8s0.4,0.8,0.8,0.8h16.4c0.5,0,0.8-0.4,0.8-0.8S248.4-18.4,247.9-18.4z
		"/>
	<path class="st6" d="M247.9-23.3h3.3c0.5,0,0.8-0.4,0.8-0.8s-0.4-0.8-0.8-0.8h-3.3c-0.5,0-0.8,0.4-0.8,0.8S247.5-23.3,247.9-23.3z"
		/>
</g>
<g id="_x32_">
	<path class="st6" d="M188.5-52.9c1.6,0,2.9-1.3,2.9-2.9v-1.4h4.3c0.4,0,0.7-0.3,0.7-0.7s-0.3-0.7-0.7-0.7h-4.3V-60
		c0-0.4-0.3-0.7-0.7-0.7S190-60.4,190-60v4.3c0,0.8-0.6,1.4-1.4,1.4s-1.4-0.6-1.4-1.4V-60c-0.1-0.8,0.5-1.5,1.3-1.5
		c0.4,0,0.7-0.3,0.7-0.7s-0.3-0.7-0.7-0.7c-1.6,0-2.9,1.3-2.9,2.9v4.3C185.6-54.2,186.9-52.9,188.5-52.9z"/>
	<path class="st6" d="M176.4-52.9c1.6,0,2.9-1.3,2.9-2.9v-1.4h4.3c0.4,0,0.7-0.3,0.7-0.7s-0.3-0.7-0.7-0.7h-4.3V-60
		c0-0.4-0.3-0.7-0.7-0.7s-0.7,0.3-0.7,0.7v4.3c0,0.8-0.6,1.4-1.4,1.4c-0.8,0-1.4-0.6-1.4-1.4V-60c0-0.8,0.6-1.4,1.4-1.4
		c0.4,0,0.7-0.3,0.7-0.7s-0.3-0.7-0.7-0.7c-1.6,0-2.9,1.3-2.9,2.9v4.3C173.5-54.2,174.8-52.9,176.4-52.9z"/>
	<path class="st6" d="M191.3-23h-8.6v-11.4h3c0.4,0,0.7-0.3,0.7-0.7s-0.3-0.7-0.7-0.7h-2.9v-11.4h4.3c0.4,0,0.7-0.3,0.7-0.7
		s-0.3-0.7-0.7-0.7h-17.2v-8.6h1.4c0.4,0,0.7-0.3,0.7-0.7s-0.3-0.7-0.7-0.7h-2.1c-0.4,0-0.7,0.3-0.7,0.7v35.6c0,0.4,0.3,0.7,0.7,0.7
		h22.1c0.4,0,0.7-0.3,0.7-0.7S191.7-23,191.3-23z M181.4-47.2v11.4h-11.5v-11.4C169.9-47.2,181.4-47.2,181.4-47.2z M169.9-34.4h11.4
		V-23h-11.4V-34.4z"/>
	<path class="st6" d="M203.4-50.1c0.4,0,0.7-0.3,0.7-0.7s-0.3-0.7-0.7-0.7h-2.9c-0.4,0-0.7,0.3-0.7,0.7s0.3,0.7,0.7,0.7H203.4z"/>
	<path class="st6" d="M193.5-51.5c-0.4,0-0.7,0.3-0.7,0.7s0.3,0.7,0.7,0.7h2.9c0.4,0,0.7-0.3,0.7-0.7s-0.3-0.7-0.7-0.7H193.5z"/>
	<path class="st6" d="M190.6-50.8c0-0.4-0.3-0.7-0.7-0.7H187c-0.4,0-0.7,0.3-0.7,0.7s0.3,0.7,0.7,0.7h2.9
		C190.3-50.1,190.6-50.4,190.6-50.8z"/>
	<path class="st6" d="M179.9-51.5c-0.4,0-0.7,0.3-0.7,0.7s0.3,0.7,0.7,0.7h2.9c0.4,0,0.7-0.3,0.7-0.7s-0.3-0.7-0.7-0.7H179.9z"/>
	<path class="st6" d="M173.5-50.1h2.9c0.4,0,0.7-0.3,0.7-0.7s-0.3-0.7-0.7-0.7h-2.9c-0.4,0-0.7,0.3-0.7,0.7
		C172.8-50.4,173.1-50.1,173.5-50.1z"/>
	<path class="st6" d="M207.7-24.2c-0.4,0-0.7,0.3-0.7,0.7v0.5h-0.6c-0.4,0-0.7,0.3-0.7,0.7s0.3,0.7,0.7,0.7h1.3
		c0.4,0,0.7-0.3,0.7-0.7v-1.2C208.4-23.9,208.1-24.2,207.7-24.2z"/>
	<path class="st6" d="M175.6-38.6c1.6,0,2.9-1.3,2.9-2.9c0-0.4-0.3-0.7-0.7-0.7s-0.7,0.3-0.7,0.7c0,0.8-0.6,1.4-1.4,1.4
		s-1.4-0.6-1.4-1.4s0.6-1.4,1.4-1.4c0.4,0,0.7-0.3,0.7-0.7s-0.3-0.7-0.7-0.7c-1.6,0-2.9,1.3-2.9,2.9
		C172.8-39.9,174.1-38.6,175.6-38.6z"/>
	<path class="st6" d="M198.5-41.5c0,1.6,1.3,2.9,2.9,2.9c1.6,0,2.9-1.3,2.9-2.9c0-1.6-1.3-2.9-2.9-2.9S198.5-43.1,198.5-41.5z
		 M202.7-41.5c0,0.8-0.6,1.4-1.4,1.4c-0.8,0-1.4-0.6-1.4-1.4s0.6-1.4,1.4-1.4S202.7-42.3,202.7-41.5z"/>
	<path class="st6" d="M211.3-32.2c0-3-2-5.5-4.9-6.2c-2.9-0.7-5.9,0.7-7.2,3.3c-1.4-2.6-4.3-4-7.2-3.3c-2.9,0.7-4.9,3.3-4.9,6.2
		c0,7.2,11.4,11.9,11.9,12.1c0.2,0.1,0.4,0.1,0.5,0C199.9-20.4,211.3-25,211.3-32.2z M199.2-21.6c-1.7-0.7-10.7-4.9-10.7-10.6
		c0-2.8,2.2-5,5-5s5,2.2,5,5c0,0.4,0.3,0.7,0.7,0.7s0.7-0.3,0.7-0.7c0-2.8,2.2-5,5-5s5,2.2,5,5C209.9-26.5,200.8-22.3,199.2-21.6z"
		/>
	<path class="st6" d="M200.6-52.9c1.6,0,2.9-1.3,2.9-2.9v-1.4h3.6v8.6h-16.5c-0.4,0-0.7,0.3-0.7,0.7s0.3,0.7,0.7,0.7h3.6v6.6
		c0,0.4,0.3,0.7,0.7,0.7s0.7-0.3,0.7-0.7v-6.6H207v7.2c0,0.4,0.3,0.7,0.7,0.7s0.7-0.3,0.7-0.7v-17.9c0-0.4-0.3-0.7-0.7-0.7h-4.3V-60
		c0-0.4-0.3-0.7-0.7-0.7S202-60.4,202-60v4.3c0,0.8-0.6,1.4-1.4,1.4s-1.4-0.6-1.4-1.4V-60c0-0.8,0.6-1.4,1.4-1.4
		c0.4,0,0.7-0.3,0.7-0.7s-0.3-0.7-0.7-0.7c-1.6,0-2.9,1.3-2.9,2.9v4.3C197.7-54.2,199-52.9,200.6-52.9z"/>
</g>
<g id="_x31_">
	<path class="st5" d="M131-37.1c0,0.4-0.4,0.8-0.8,0.8s-0.8-0.4-0.8-0.8s0.4-0.8,0.8-0.8S131-37.5,131-37.1z"/>
	<path class="st5" d="M126.2-37.1c0,0.4-0.4,0.8-0.8,0.8s-0.7-0.4-0.7-0.8s0.4-0.8,0.8-0.8C125.9-37.9,126.2-37.5,126.2-37.1z"/>
	<path class="st5" d="M154.7-36.3c0,0.4-0.4,0.8-0.8,0.8c-0.4,0-0.8-0.4-0.8-0.8c0-0.4,0.4-0.8,0.8-0.8
		C154.4-37.1,154.7-36.7,154.7-36.3z"/>
	<path class="st5" d="M150-36.3c0,0.4-0.4,0.8-0.8,0.8s-0.8-0.4-0.8-0.8c0-0.4,0.4-0.8,0.8-0.8S150-36.7,150-36.3z"/>
	<path class="st5" d="M141.3-38.7v6.3c0,0.4,0.4,0.8,0.8,0.8c0.4,0,0.8-0.4,0.8-0.8v-6.3c0-4.8,3.9-8.7,8.7-8.7s8.7,3.9,8.7,8.7v6.3
		c0,0.4,0.4,0.8,0.8,0.8s0.8-0.4,0.8-0.8v-6.3c0-5.7-4.6-10.3-10.3-10.3C145.9-49,141.3-44.4,141.3-38.7z"/>
	<path class="st5" d="M157.9-28.4h-2.4v-2.2c1.5-1.2,2.4-3,2.4-4.9v-4c0-0.4-0.3-0.8-0.7-0.8c-1.5-0.1-2.7-1.2-3.1-2.6
		c-0.1-0.4-0.4-0.6-0.8-0.6h-0.2c-0.3,0-0.5,0.2-0.7,0.4c-1,1.7-2.8,2.7-4.8,2.8c-0.5,0-0.9-0.1-1.4-0.2c-0.2-0.1-0.5,0-0.7,0.1
		c-0.2,0.2-0.3,0.4-0.3,0.6v4.3c0,1.9,0.9,3.7,2.4,4.9v2.2h-2.4c-3.1,0-5.5,2.5-5.5,5.5c0-3.1-2.5-5.5-5.5-5.5h-2.4v-2.2
		c1.5-1.2,2.4-3,2.4-4.9v-0.1c1.8-0.4,3.2-2,3.2-3.9V-45c0-0.9-0.7-1.6-1.6-1.6h-13.5c-2.2,0-4,1.8-4,4v3.1c0,0.4,0.4,0.8,0.8,0.8
		s0.8-0.4,0.8-0.8v-3.2c0-1.3,1.1-2.4,2.4-2.4h13.4v5.6c0,1-0.6,1.9-1.6,2.2v-3.8c0-0.2-0.1-0.4-0.3-0.6c-0.2-0.2-0.4-0.2-0.6-0.2
		l-3.2,0.2c-0.4,0-0.8,0.4-0.7,0.8c0,0.4,0.4,0.8,0.8,0.7l2.3-0.2v4.9c0,2.6-2.1,4.8-4.8,4.8s-4.5-2.2-4.5-4.8v-4l3.2-0.2
		c0.2,0,0.4-0.1,0.5-0.3c0.1-0.2,0.2-0.4,0.2-0.6c0-0.4-0.4-0.8-0.8-0.7l-4,0.3c-0.4,0-0.7,0.4-0.7,0.8v4.7c0,1.9,0.9,3.7,2.4,4.9
		v2.2h-2.4c-3.1,0-5.5,2.5-5.5,5.5v3.2c0,0.4,0.4,0.8,0.8,0.8s0.8-0.4,0.8-0.8v-3.2c0-2,1.5-3.6,3.4-3.9l2.8,7.4
		c0.1,0.3,0.4,0.5,0.7,0.5c0.1,0,0.2,0,0.3-0.1c0.4-0.2,0.6-0.6,0.5-1l-0.8-2.1c0.1,0,0.1,0,0.2,0s0.2,0,0.4-0.1l2.8-1.4l2.8,1.4
		c0.1,0.1,0.2,0.1,0.4,0.1c0.1,0,0.1,0,0.2,0l-0.8,2.1c-0.2,0.4,0,0.9,0.5,1c0.1,0,0.2,0.1,0.3,0.1c0.3,0,0.6-0.2,0.7-0.5l2.8-7.4
		c1.9,0.3,3.4,1.9,3.4,3.9v3.2c0,0.4,0.4,0.8,0.8,0.8c0.4,0,0.8-0.4,0.8-0.8c0,0.4,0.4,0.8,0.8,0.8s0.8-0.4,0.8-0.8v-3.2
		c0-2.2,1.8-4,4-4h3.2c0.4,0,0.8-0.4,0.8-0.8v-2.1c1.5,0.6,3.2,0.6,4.8,0v2.1c0,0.4,0.4,0.8,0.8,0.8h3.2c2.2,0,4,1.8,4,4v3.2
		c0,0.4,0.4,0.8,0.8,0.8s0.8-0.4,0.8-0.8v-3.2C163.5-25.9,161-28.4,157.9-28.4z M125.4-24.1v-0.6l0.6,0.3L125.4-24.1z M130.2-24.1
		l-0.6-0.3l0.6-0.3V-24.1z M131.8-23.6V-26c0-0.3-0.1-0.5-0.4-0.7c-0.2-0.1-0.5-0.2-0.8,0l-2.8,1.4l-2.8-1.4c-0.2-0.1-0.5-0.1-0.8,0
		c-0.2,0.1-0.4,0.4-0.4,0.7v2.4l-1.2-3.2h2c0.4,0,0.8-0.4,0.8-0.8v-2.1c1.5,0.6,3.2,0.6,4.8,0v1.3h-0.8c-0.4,0-0.8,0.4-0.8,0.8
		s0.4,0.8,0.8,0.8h3.6L131.8-23.6z M146.8-35.5v-3.2c2.4,0.3,4.7-0.7,6.2-2.5c0.7,1.2,1.9,2.1,3.3,2.4v3.3c0,2.6-2.1,4.8-4.8,4.8
		C149-30.8,146.8-32.9,146.8-35.5z"/>
	<path class="st5" d="M154.7-23.6c-1.2,0-2.3,0.4-3.2,1.2c-0.9-0.8-2-1.2-3.2-1.2c-2.3,0-4.2,1.6-4.7,3.8c-0.1,0.4,0.2,0.9,0.6,1
		s0.9-0.2,1-0.6c0.3-1.5,1.6-2.5,3.1-2.5c1,0,1.9,0.5,2.5,1.3c0.1,0.2,0.4,0.3,0.6,0.3s0.5-0.1,0.6-0.3c0.6-0.8,1.5-1.3,2.5-1.3
		c1.5,0,2.8,1.1,3.1,2.5c0.1,0.4,0.4,0.6,0.8,0.6h0.2c0.4-0.1,0.7-0.5,0.6-0.9C159-22,157-23.6,154.7-23.6z"/>
	<path class="st5" d="M139.5-49.8c0.1,0,0.3,0,0.4,0c0.4-0.1,10.1-2.6,10.1-10.3c0-2.5-1.7-4.7-4.1-5.3c-2.4-0.6-4.9,0.4-6.2,2.5
		c-1.3-2.1-3.8-3.2-6.2-2.5s-4.1,2.9-4.1,5.3C129.4-52.4,139.1-49.9,139.5-49.8z M134.9-64c2.2,0,4,1.8,4,4c0,0.4,0.4,0.8,0.8,0.8
		s0.8-0.4,0.8-0.8c0-2.2,1.8-4,4-4s4,1.8,4,4c0,5.9-7.4,8.3-8.7,8.7c-1.3-0.4-8.7-2.8-8.7-8.7C131-62.2,132.8-64,134.9-64z"/>
</g>
<g class="st7">
	<g>
		<circle class="st8" cx="343.5" cy="9.1" r="22.5"/>
		<path class="st9" d="M343.5,31.5C355.9,31.5,366,21.4,366,9s-10.1-22.5-22.5-22.5S321-3.4,321,9S331.1,31.5,343.5,31.5z
			 M343.5-10.3c10.6,0,19.3,8.7,19.3,19.3s-8.7,19.3-19.3,19.3S324.2,19.6,324.2,9S332.9-10.3,343.5-10.3z"/>
		<path class="st10" d="M338.3,20.2c0.3,0.3,0.7,0.5,1.1,0.5c0.4,0,0.8-0.2,1.1-0.5L350.8,10c0.3-0.3,0.5-0.7,0.5-1.1
			c0-0.4-0.2-0.8-0.5-1.1L340.6-2.5c-0.6-0.6-1.6-0.6-2.2,0s-0.6,1.6,0,2.2l9.1,9.1l-9.1,9.1C337.7,18.6,337.7,19.6,338.3,20.2z"/>
	</g>
</g>
<g class="st7">
	<g>
		<circle class="st8" cx="298.5" cy="9.1" r="22.5"/>
		<path class="st11" d="M298.5-13.5C286.1-13.5,276-3.4,276,9s10.1,22.5,22.5,22.5S321,21.4,321,9S310.9-13.5,298.5-13.5z
			 M298.5,28.3c-10.6,0-19.3-8.7-19.3-19.3s8.7-19.3,19.3-19.3S317.8-1.6,317.8,9S309.1,28.3,298.5,28.3z"/>
		<path class="st10" d="M303.7-2.2c-0.3-0.3-0.7-0.5-1.1-0.5c-0.4,0-0.8,0.2-1.1,0.5L291.2,8c-0.3,0.3-0.5,0.7-0.5,1.1
			c0,0.4,0.2,0.8,0.5,1.1l10.2,10.2c0.6,0.6,1.6,0.6,2.2,0s0.6-1.6,0-2.2l-9.1-9.1l9.1-9.1C304.3-0.6,304.3-1.6,303.7-2.2z"/>
	</g>
</g>
</svg>
