<?xml version="1.0" encoding="utf-8"?>
<!-- Generator: Adobe Illustrator 19.1.0, SVG Export Plug-In . SVG Version: 6.00 Build 0)  -->
<svg version="1.1" id="Layer_1" xmlns="http://www.w3.org/2000/svg" xmlns:xlink="http://www.w3.org/1999/xlink" x="0px" y="0px"
	 width="250px" height="150px" viewBox="116 -66 250 150" style="enable-background:new 116 -66 250 150;" xml:space="preserve">
<style type="text/css">
	.st0{fill:#495057;stroke:#495057;stroke-width:0.475;stroke-miterlimit:10;}
	.st1{fill:#EF4580;stroke:#EF4481;stroke-width:0.475;stroke-miterlimit:10;}
	.st2{fill:#DEE2E6;stroke:#DEE2E6;stroke-width:0.5;stroke-miterlimit:10;}
	.st3{fill:#DEE2E6;}
	.st4{fill:#DEE2E6;stroke:#DEE2E6;stroke-width:0.25;stroke-miterlimit:10;}
	.st5{fill:#EF4481;stroke:#EF4481;stroke-width:0.25;stroke-miterlimit:10;}
	.st6{fill:#EF4681;stroke:#EF4481;stroke-width:0.25;stroke-miterlimit:10;}
</style>
<g id="heart_2_">
	<path class="st0" d="M240,37.3c-0.9-0.9-2-1.3-3.3-1.3c-1.2,0-2.4,0.5-3.3,1.4l-0.5,0.5l-0.5-0.5c-0.9-0.9-2-1.4-3.3-1.4
		c-1.2,0-2.4,0.5-3.3,1.3c-0.9,0.9-1.4,2-1.3,3.3c0,1.2,0.5,2.4,1.4,3.3l6.6,6.6c0.1,0.1,0.2,0.1,0.3,0.1s0.2,0,0.3-0.1l6.7-6.6
		c0.9-0.9,1.4-2,1.4-3.3C241.3,39.3,240.9,38.2,240,37.3z M239.3,43.2l-6.3,6.3l-6.3-6.3c-0.7-0.7-1.1-1.6-1.1-2.6s0.4-1.9,1.1-2.6
		s1.6-1.1,2.6-1.1s1.9,0.4,2.6,1.1l0.8,0.8c0.2,0.2,0.5,0.2,0.7,0l0.8-0.8c0.7-0.7,1.6-1.1,2.6-1.1s1.9,0.4,2.6,1.1s1.1,1.6,1.1,2.6
		C240.4,41.6,240,42.5,239.3,43.2z"/>
</g>
<g id="heart_1_">
	<path class="st1" d="M222,37.3c-0.9-0.9-2-1.3-3.3-1.3c-1.2,0-2.4,0.5-3.3,1.4l-0.5,0.5l-0.5-0.5c-0.9-0.9-2-1.4-3.3-1.4
		c-1.2,0-2.4,0.5-3.3,1.3c-0.9,0.9-1.4,2-1.3,3.3c0,1.2,0.5,2.4,1.4,3.3l6.6,6.6c0.1,0.1,0.2,0.1,0.3,0.1s0.2,0,0.3-0.1l6.7-6.6
		c0.9-0.9,1.4-2,1.4-3.3C223.3,39.3,222.9,38.2,222,37.3z M221.3,43.2l-6.3,6.3l-6.3-6.3c-0.7-0.7-1.1-1.6-1.1-2.6s0.4-1.9,1.1-2.6
		s1.6-1.1,2.6-1.1s1.9,0.4,2.6,1.1l0.8,0.8c0.2,0.2,0.5,0.2,0.7,0l0.8-0.8c0.7-0.7,1.6-1.1,2.6-1.1s1.9,0.4,2.6,1.1s1.1,1.6,1.1,2.6
		C222.4,41.6,222,42.5,221.3,43.2z"/>
</g>
<g id="arrow">
	<path class="st2" d="M125.6,39.8l5.5,5.5c0.3,0.3,0.3,0.9,0,1.3c-0.3,0.3-0.9,0.3-1.3,0l-4.8-4.9l-4.8,4.8c-0.3,0.3-0.9,0.3-1.3,0
		c-0.3-0.3-0.3-0.9,0-1.3l5.5-5.5c0.2-0.2,0.4-0.3,0.6-0.3C125.2,39.6,125.5,39.6,125.6,39.8z"/>
</g>
<g id="twitter">
	<g>
		<path class="st3" d="M169.2,37.8c-0.6,0.3-1.2,0.4-1.9,0.5c0.7-0.4,1.2-1.1,1.5-1.8c-0.6,0.4-1.4,0.7-2.1,0.8
			c-0.6-0.6-1.5-1.1-2.4-1.1c-1.8,0-3.3,1.5-3.3,3.3c0,0.3,0,0.5,0.1,0.8c-2.8-0.1-5.2-1.5-6.9-3.5c-0.3,0.5-0.5,1.1-0.5,1.7
			c0,1.2,0.6,2.2,1.5,2.8c-0.5,0-1.1-0.2-1.5-0.4l0,0c0,1.6,1.1,3,2.7,3.3c-0.3,0.1-0.6,0.1-0.9,0.1c-0.2,0-0.4,0-0.6-0.1
			c0.4,1.3,1.7,2.3,3.1,2.3c-1.1,0.9-2.6,1.4-4.1,1.4c-0.3,0-0.5,0-0.8,0c1.5,0.9,3.2,1.5,5.1,1.5c6.1,0,9.5-5.1,9.5-9.5v-0.4
			C168.1,39.1,168.7,38.5,169.2,37.8z"/>
	</g>
</g>
<g>
	<path class="st3" d="M186.2,39c-0.7-1.3-1.8-2.3-3-3c-1.3-0.7-2.7-1.1-4.2-1.1s-2.9,0.4-4.2,1.1c-1.3,0.7-2.3,1.8-3,3
		c-0.7,1.3-1.1,2.7-1.1,4.2c0,1.7,0.5,3.2,1.4,4.6c0.9,1.4,2.1,2.4,3.6,3c0-0.8,0-1.4,0.1-1.9l1.1-4.5c-0.2-0.4-0.3-0.8-0.3-1.3
		c0-0.6,0.2-1.1,0.5-1.5s0.7-0.6,1.1-0.6c0.4,0,0.6,0.1,0.8,0.4c0.2,0.2,0.3,0.5,0.3,0.9c0,0.2,0,0.5-0.1,0.8
		c-0.1,0.3-0.2,0.7-0.3,1.1s-0.2,0.8-0.3,1c-0.1,0.4,0,0.8,0.2,1.1c0.3,0.3,0.6,0.5,1.1,0.5c0.8,0,1.4-0.4,1.9-1.3s0.7-1.9,0.7-3.1
		c0-0.9-0.3-1.7-0.9-2.3c-0.6-0.6-1.5-0.9-2.6-0.9c-1.2,0-2.2,0.4-3,1.2c-0.8,0.8-1.1,1.7-1.1,2.8c0,0.7,0.2,1.2,0.6,1.6
		c0.1,0.1,0.2,0.3,0.1,0.5c0,0,0,0.2-0.1,0.3c0,0.2-0.1,0.3-0.1,0.3c-0.1,0.2-0.2,0.3-0.4,0.2c-0.6-0.2-1-0.6-1.3-1.2
		s-0.4-1.2-0.4-2c0-0.5,0.1-1,0.2-1.5c0.2-0.5,0.4-1,0.7-1.4c0.3-0.5,0.7-0.9,1.2-1.2c0.5-0.3,1-0.6,1.7-0.8
		c0.7-0.2,1.4-0.3,2.1-0.3c1,0,1.9,0.2,2.8,0.7c0.8,0.5,1.4,1,1.9,1.8c0.4,0.7,0.6,1.5,0.6,2.3c0,1.1-0.2,2.1-0.6,2.9
		c-0.4,0.9-0.9,1.5-1.6,2c-0.7,0.5-1.5,0.7-2.3,0.7c-0.4,0-0.9-0.1-1.2-0.3c-0.4-0.2-0.6-0.5-0.8-0.7c-0.3,1.3-0.5,2-0.6,2.3
		c-0.1,0.5-0.4,1.1-0.8,1.8c0.8,0.2,1.6,0.3,2.4,0.3c1.5,0,2.9-0.4,4.2-1.1s2.3-1.8,3-3c0.7-1.3,1.1-2.7,1.1-4.2
		C187.3,41.7,187,40.3,186.2,39z"/>
</g>
<g id="instagram">
	<path class="st4" d="M201.1,35.3h-7.2c-2.4,0-4.3,1.9-4.3,4.3v7.2c0,2.4,1.9,4.3,4.3,4.3h7.2c2.4,0,4.3-1.9,4.3-4.3v-7.2
		C205.3,37.2,203.4,35.3,201.1,35.3z M204.4,46.8c0,1.8-1.5,3.3-3.3,3.3h-7.2c-1.8,0-3.3-1.5-3.3-3.3v-7.2c0-1.8,1.5-3.3,3.3-3.3
		h7.2c1.8,0,3.3,1.5,3.3,3.3V46.8z"/>
	<path class="st4" d="M197.4,38.9c-2.4,0-4.3,1.9-4.3,4.3s1.9,4.3,4.3,4.3c2.4,0,4.3-1.9,4.3-4.3C201.8,40.8,199.8,38.9,197.4,38.9z
		 M197.4,46.6c-1.9,0-3.4-1.5-3.4-3.4s1.5-3.4,3.4-3.4c1.9,0,3.4,1.5,3.4,3.4C200.8,45,199.3,46.6,197.4,46.6z"/>
	<path class="st4" d="M201.9,37c-0.7,0-1.3,0.6-1.3,1.3c0,0.7,0.6,1.3,1.3,1.3c0.7,0,1.3-0.6,1.3-1.3S202.6,37,201.9,37z
		 M201.9,38.6c-0.2,0-0.3-0.2-0.3-0.3c0-0.2,0.2-0.3,0.3-0.3c0.2,0,0.3,0.2,0.3,0.3C202.2,38.5,202.1,38.6,201.9,38.6z"/>
</g>
<g id="facebook">
	<path class="st3" d="M147.1,35H145c-2.4,0-3.9,1.6-3.9,4v1.9H139c-0.2,0-0.3,0.2-0.3,0.3v2.7c0,0.2,0.2,0.3,0.3,0.3h2V51
		c0,0.2,0.1,0.3,0.3,0.3h2.8c0.2,0,0.3-0.2,0.3-0.3v-6.8h2.6c0.2,0,0.3-0.1,0.3-0.3v-2.7c0-0.1,0-0.2-0.1-0.2
		c-0.1-0.1-0.1-0.1-0.2-0.1h-2.5v-1.6c0-0.8,0.2-1.1,1.2-1.1h1.4c0.2,0,0.3-0.2,0.3-0.3v-2.5C147.4,35.1,147.3,35,147.1,35z"/>
</g>
<g id="_x36_">
	<g>
		<g>
			<path class="st5" d="M134.9,1.3h-2.6c-0.4,0-0.6,0.3-0.6,0.6c0,0.4,0.3,0.6,0.6,0.6h2.6c0.4,0,0.6-0.3,0.6-0.6
				C135.5,1.5,135.3,1.3,134.9,1.3z"/>
		</g>
	</g>
	<g>
		<g>
			<path class="st5" d="M156.6,9c-1.2-4.9-5.7-8.6-11-8.6c-6.2,0-11.3,5.1-11.3,11.3c0,6.2,5.1,11.3,11.3,11.3c5.3,0,9.8-3.7,11-8.6
				c1.4-0.2,2.5-1.3,2.5-2.8C159.1,10.3,158,9.1,156.6,9z M145.6,21.8c-5.5,0-10-4.5-10-10s4.5-10,10-10c4.8,0,8.9,3.4,9.8,8l0,0
				v0.1c0.1,0.6,0.2,1.3,0.2,1.9C155.6,17.3,151.1,21.8,145.6,21.8z M156.8,13.1c0.1-0.5,0.1-0.9,0.1-1.4s0-0.9-0.1-1.4
				c0.6,0.2,0.9,0.8,0.9,1.4C157.8,12.4,157.4,12.9,156.8,13.1z"/>
		</g>
	</g>
	<g>
		<g>
			<path class="st5" d="M157.6-0.5c-1.1,0-1.9,0.9-1.9,1.9c0,1.1,0.9,1.9,1.9,1.9c1.1,0,1.9-0.9,1.9-1.9S158.6-0.5,157.6-0.5z
				 M157.6,2.1c-0.4,0-0.6-0.3-0.6-0.6s0.3-0.6,0.6-0.6c0.3,0,0.6,0.3,0.6,0.6S157.9,2.1,157.6,2.1z"/>
		</g>
	</g>
	<g>
		<g>
			<path class="st5" d="M151.7-2.6L151-4.3l0,0l0,0l0,0l0,0l0,0l0,0l0,0l0,0l-0.1-0.1l0,0l0,0l0,0l0,0h-0.1l0,0l0,0l0,0l0,0l0,0l0,0
				l0,0l0,0h-9.7l0,0l0,0l0,0l0,0l0,0l0,0l0,0l0,0l0,0l0,0c0,0,0,0-0.1,0l0,0l0,0l0,0l0,0l-0.1,0.1l0,0l0,0l0,0l0,0l0,0l0,0l0,0l0,0
				l-0.7,1.7c-0.1,0.3,0,0.7,0.4,0.8c0.1,0,0.2,0,0.2,0c0.3,0,0.5-0.2,0.6-0.4l0.5-1.3h8.1l0.5,1.3c0.1,0.3,0.3,0.4,0.6,0.4
				c0.1,0,0.2,0,0.2,0C151.7-1.9,151.9-2.3,151.7-2.6z"/>
		</g>
	</g>
	<g>
		<g>
			<path class="st5" d="M149.2,8.7c-0.5-0.5-1.3-0.8-2-0.8c-0.6,0-1.1,0.2-1.6,0.5c-0.5-0.3-1-0.5-1.6-0.5c-0.8,0-1.5,0.3-2,0.8
				c-1.1,1.1-1.1,3,0,4.1l3.2,3.2c0.1,0.1,0.3,0.2,0.5,0.2s0.3-0.1,0.5-0.2l3.2-3.2c0.5-0.5,0.8-1.3,0.8-2
				C150.1,10,149.8,9.3,149.2,8.7z M148.3,11.9l-2.7,2.7l-2.7-2.7c-0.6-0.6-0.6-1.7,0-2.3c0.3-0.3,0.7-0.5,1.1-0.5s0.8,0.2,1.1,0.5
				c0.3,0.3,0.7,0.3,0.9,0c0.3-0.3,0.7-0.5,1.1-0.5c0.4,0,0.8,0.2,1.1,0.5s0.5,0.7,0.5,1.1C148.8,11.2,148.6,11.6,148.3,11.9z"/>
		</g>
	</g>
	<g>
		<g>
			<path class="st5" d="M145.6,3c-4.8,0-8.8,3.9-8.8,8.8c0,4.8,3.9,8.8,8.8,8.8c4.9,0,8.8-3.9,8.8-8.8S150.4,3,145.6,3z M145.6,19.2
				c-4.1,0-7.5-3.4-7.5-7.5s3.4-7.5,7.5-7.5c4.1,0,7.5,3.4,7.5,7.5S149.7,19.2,145.6,19.2z"/>
		</g>
	</g>
	<g>
		<g>
			<path class="st5" d="M158.8-3h-3.9l-2.4-4l0,0l0,0l0,0l0,0l0,0l0,0l0,0l0,0l0,0l0,0l0,0l0,0l0,0l0,0l0,0l0,0l0,0l0,0l0,0l0,0l0,0
				l0,0h-13.3l0,0l0,0l0,0l0,0l0,0l0,0l0,0l0,0l0,0l0,0l0,0l0,0l0,0l0,0l0,0l0,0l0,0l0,0l0,0l0,0l0,0l0,0l-2.4,4H131v-1.9
				c0-0.4-0.3-0.6-0.6-0.6h-5.8c-0.4,0-0.6,0.3-0.6,0.6V-3h-0.2c-1.8,0-3.2,1.4-3.2,3.2v22.2c0,1.8,1.4,3.2,3.2,3.2h35.1
				c1.8,0,3.2-1.4,3.2-3.2V0.2C162-1.6,160.6-3,158.8-3z M125.3-4.3h3.8V-3h-3.8V-4.3z M158.8,24.3h-28.4V0.2c0-0.4-0.3-0.6-0.6-0.6
				c-0.4,0-0.6,0.3-0.6,0.6v24.2h-5.4c-1.1,0-1.9-0.9-1.9-1.9V18h1.9c0.4,0,0.6-0.3,0.6-0.6c0-0.4-0.3-0.6-0.6-0.6h-1.9v-2.1h1.9
				c0.4,0,0.6-0.3,0.6-0.6c0-0.4-0.3-0.6-0.6-0.6h-1.9v-2.1h1.9c0.4,0,0.6-0.3,0.6-0.6c0-0.4-0.3-0.6-0.6-0.6h-1.9V8.1h1.9
				c0.4,0,0.6-0.3,0.6-0.6c0-0.4-0.3-0.6-0.6-0.6h-1.9V0.7c0-1.1,0.9-1.9,1.9-1.9h12.8l0,0l0,0c0,0,0,0,0.1,0l0,0c0,0,0,0,0.1,0l0,0
				c0,0,0,0,0.1,0l0,0c0,0,0,0,0.1,0l0,0c0,0,0,0,0.1,0l0,0l0,0l0,0c0,0,0,0,0-0.1l0,0c0,0,0,0,0-0.1l0,0l2.4-4h12.1l2.4,4l0,0
				c0,0,0,0,0,0.1l0,0c0,0,0,0,0,0.1l0,0l0,0l0,0c0,0,0,0,0.1,0l0,0c0,0,0,0,0.1,0l0,0c0,0,0,0,0.1,0l0,0c0,0,0,0,0.1,0l0,0
				c0,0,0,0,0.1,0l0,0l0,0h4.3c1.1,0,1.9,0.9,1.9,1.9v22.2l0,0C160.8,23.5,159.9,24.3,158.8,24.3z"/>
		</g>
	</g>
</g>
<g id="_x35_">
	<path class="st5" d="M356.2-36.7c-2.5,0-4.6,2-4.6,4.6c0,0.4,0.3,0.7,0.7,0.7s0.7-0.3,0.7-0.7c0.1-1.7,1.5-3,3.1-3
		c1.7,0,3,1.3,3.1,3c0,3.6-5.7,6.3-7,6.9c-2-0.9-3.8-2.1-5.4-3.6c-0.3-0.3-0.7-0.3-1,0c-0.3,0.3-0.3,0.7,0,1
		c1.8,1.7,3.9,3.1,6.2,4.1c0.2,0.1,0.4,0.1,0.5,0c0.3-0.1,8.1-3.3,8.1-8.3C360.8-34.6,358.7-36.7,356.2-36.7z"/>
	<path class="st5" d="M327.6-28.8l-2.5,2.5c-0.1-0.5-0.4-0.9-0.7-1.3c-0.5-0.5-1.3-0.8-2-0.8c-0.8,0-1.5,0.3-2,0.8
		c-2.1,2.1-0.4,6.4-0.2,6.9c0.1,0.2,0.2,0.3,0.4,0.4c1.3,0.5,2.6,0.8,4,0.9c1.1,0.1,2.1-0.3,2.9-1c0.5-0.5,0.8-1.3,0.8-2
		s-0.3-1.5-0.8-2c-0.4-0.4-0.8-0.6-1.3-0.7l2.5-2.5c0.3-0.3,0.3-0.8,0-1.1C328.3-29.1,327.9-29.1,327.6-28.8z M326.4-23.5
		c0.3,0.3,0.4,0.6,0.4,1s-0.2,0.7-0.4,1c-1.1,1.1-3.8,0.4-5,0c-0.5-1.2-1.2-3.9,0-5c0.6-0.6,1.5-0.6,2,0c0.6,0.6,0.6,1.5,0,2
		c-0.2,0.2-0.3,0.5-0.2,0.7c0.1,0.3,0.3,0.5,0.5,0.5c0.2,0,0.5,0,0.7-0.2C324.9-24.1,325.9-24.1,326.4-23.5L326.4-23.5z"/>
	<path class="st5" d="M362.5-58c-0.1-0.2-0.2-0.4-0.5-0.5l-2.7-0.9l-0.9-2.7c-0.1-0.2-0.3-0.4-0.5-0.5c-0.2-0.1-0.5,0-0.7,0.2
		l-4.1,4.1c-0.2,0.2-0.3,0.5-0.2,0.7l0.9,2.6l-9.9,9.8c-0.1,0.1-0.2,0.3-0.2,0.5s0.1,0.4,0.2,0.5c0.1,0.1,0.3,0.2,0.5,0.2
		c0.2,0,0.4-0.1,0.5-0.2l9.8-9.9l2.6,0.9c0.1,0,0.1,0,0.2,0c0.2,0,0.4-0.1,0.5-0.2l4.1-4.1C362.4-57.5,362.5-57.7,362.5-58z
		 M359.5-56.6l-1.5-0.5l0.9-0.9l1.5,0.5L359.5-56.6z M357.4-60.5l0.5,1.5l-0.9,0.9l-0.5-1.5L357.4-60.5z M355.3-58.5l0.5,1.5
		l-0.9,0.9l-0.5-1.5L355.3-58.5z M357.5-54.6l-1.5-0.5l0.9-0.9l1.5,0.5L357.5-54.6z"/>
	<path class="st5" d="M355.3-43.9c0-2-0.6-3.9-1.8-5.5c-0.2-0.3-0.7-0.4-1-0.1c-0.3,0.2-0.4,0.7-0.2,1c1,1.3,1.5,3,1.5,4.6
		c0,9.1-14.4,15.6-16.6,16.5c-2.2-0.9-16.6-7.4-16.6-16.5c0-4.4,3.5-7.9,7.9-7.9c4.4,0,7.9,3.5,7.9,7.9c0,0.4,0.3,0.7,0.7,0.7
		s0.7-0.3,0.7-0.7c0-4.4,3.5-7.9,7.9-7.9c0.7,0,1.3,0.1,2,0.3c0.4,0.1,0.8-0.1,0.9-0.5c0.1-0.4-0.1-0.8-0.5-0.9
		c-4.5-1.1-9.2,1.2-10.9,5.5c-1.7-4.1-6.1-6.5-10.5-5.6c-4.4,0.9-7.5,4.7-7.5,9.2c0,10.7,17,17.7,17.7,17.9c0.2,0.1,0.4,0.1,0.5,0
		C338.3-26.2,355.3-33.2,355.3-43.9z"/>
</g>
<g id="_x34_">
	<path class="st5" d="M293.9-31.6c0,1.6-1.3,2.9-2.9,2.9s-2.9-1.3-2.9-2.9c0-0.4-0.3-0.7-0.7-0.7c-0.4,0-0.7,0.3-0.7,0.7
		c0,2.4,1.9,4.3,4.3,4.3c2.4,0,4.3-1.9,4.3-4.3c0-0.4-0.3-0.7-0.7-0.7C294.2-32.3,293.9-32,293.9-31.6z"/>
	<path class="st5" d="M311.7-46.5h-9.1c-0.4,0-0.7,0.3-0.7,0.7s0.3,0.7,0.7,0.7h8.4v5.7h-10.7c-0.4,0-0.7,0.3-0.7,0.7
		s0.3,0.7,0.7,0.7H311v2.9h-13.5c-0.4,0-0.7,0.3-0.7,0.7v13.5H271v-12.8h13.8c0.4,0,0.7-0.3,0.7-0.7s-0.3-0.7-0.7-0.7H271V-38h10.7
		c0.4,0,0.7-0.3,0.7-0.7c0-0.4-0.3-0.7-0.7-0.7h-3.6v-5.7h1.3c0.4,0,0.7-0.3,0.7-0.7s-0.3-0.7-0.7-0.7h-9.1c-0.4,0-0.7,0.3-0.7,0.7
		v25.7c0,0.4,0.3,0.7,0.7,0.7h41.3c0.4,0,0.7-0.3,0.7-0.7v-25.7C312.4-46.2,312.1-46.5,311.7-46.5z M276.7-45.1v5.7H271v-5.7
		C271-45.1,276.7-45.1,276.7-45.1z M298.1-20.9v-12.8H311v12.8H298.1z"/>
	<path class="st5" d="M279.6-23c0.4,0,0.7-0.3,0.7-0.7v-3.6h1.4c0.3,0,0.5-0.2,0.7-0.4c0.1-0.3,0.1-0.6-0.1-0.8l-4.3-4.3
		c-0.1-0.1-0.3-0.2-0.5-0.2c-0.2,0-0.4,0.1-0.5,0.2l-4.3,4.3c-0.2,0.2-0.3,0.5-0.1,0.8c0.1,0.3,0.4,0.4,0.7,0.4h1.4v3.6
		c0,0.4,0.3,0.7,0.7,0.7s0.7-0.3,0.7-0.7v-3.6h2.9v3.6C278.9-23.3,279.2-23,279.6-23z M274.9-28.7l2.6-2.6l2.6,2.6H274.9z"/>
	<path class="st5" d="M305.8-32.1c-0.1-0.1-0.3-0.2-0.5-0.2c-0.2,0-0.4,0.1-0.5,0.2l-2.9,2.9c-0.1,0.1-0.2,0.3-0.2,0.5v4.3
		c0,0.4,0.3,0.7,0.7,0.7c0.4,0,0.7-0.3,0.7-0.7v-4l2.1-2.1l2.1,2.1v4c0,0.4,0.3,0.7,0.7,0.7c0.4,0,0.7-0.3,0.7-0.7v-4.3
		c0-0.2-0.1-0.4-0.2-0.5L305.8-32.1z"/>
	<path class="st5" d="M293.9-54.4c-1.1,0-2.2,0.5-2.9,1.4c-0.9-1.2-2.5-1.7-4-1.2s-2.4,1.8-2.4,3.4c0,3.9,5.9,6.3,6.2,6.4
		c0.2,0.1,0.4,0.1,0.5,0c0.2-0.1,6.2-2.5,6.2-6.4C297.4-52.8,295.8-54.4,293.9-54.4z M291-45.9c-1.6-0.7-5-2.7-5-4.9
		c0-1.2,1-2.1,2.1-2.1s2.1,1,2.1,2.1c0,0.4,0.3,0.7,0.7,0.7c0.4,0,0.7-0.3,0.7-0.7c0-1.2,1-2.1,2.1-2.1s2.1,1,2.1,2.1
		C296-48.5,292.6-46.6,291-45.9z"/>
	<path class="st5" d="M290.5-31c0.3,0.3,0.7,0.3,1,0c3-2.9,5.4-6.3,7.2-10c0.2-0.4,0-0.8-0.4-0.9c-0.4-0.2-0.8,0-0.9,0.4
		c-1.7,3.3-3.8,6.4-6.4,9c-1.9-1.9-8.6-9.3-8.6-17.5c0-4.7,3.8-8.6,8.6-8.6c4.8,0,8.6,3.8,8.6,8.6c0,2-0.4,4-1.1,5.9
		c-0.1,0.4,0.1,0.8,0.4,0.9c0.4,0.1,0.8-0.1,0.9-0.4c0.7-2.1,1.1-4.2,1.1-6.4c0-5.5-4.5-10-10-10s-10,4.5-10,10
		C281-39.9,290.1-31.4,290.5-31z"/>
</g>
<g id="_x33_">
	<path class="st6" d="M256.6-39.8c-0.5,0-0.8,0.4-0.8,0.8v17.8h-9v-9c0-2.3-1.8-4.1-4.1-4.1h-3.3c-2.3,0-4.1,1.8-4.1,4.1v9h-9v-17.7
		c0-0.5-0.4-0.8-0.8-0.8c-0.5,0-0.8,0.4-0.8,0.8v18.6c0,0.5,0.4,0.8,0.8,0.8h10.7c0.5,0,0.8-0.4,0.8-0.8v-9.9c0-1.4,1.1-2.5,2.5-2.5
		h0.8v12.3c0,0.5,0.4,0.8,0.8,0.8h15.6c0.5,0,0.8-0.4,0.8-0.8v-18.5C257.4-39.4,257.1-39.8,256.6-39.8z M242.6-32.7
		c1.4,0,2.5,1.1,2.5,2.5v9h-3.3v-11.5H242.6z"/>
	<path class="st6" d="M229.5-22.8h3.3c0.5,0,0.8-0.4,0.8-0.8s-0.4-0.8-0.8-0.8h-3.3c-0.5,0-0.8,0.4-0.8,0.8S229-22.8,229.5-22.8z"/>
	<path class="st6" d="M241.5-54.7c-0.3-0.2-0.7-0.2-1,0l-22.2,15.6c-0.4,0.3-0.5,0.8-0.2,1.2c0.3,0.4,0.8,0.5,1.2,0.2L241-53
		l21.7,15.3c0.1,0.1,0.3,0.1,0.5,0.1c0.3,0,0.5-0.1,0.7-0.3c0.1-0.2,0.2-0.4,0.1-0.6c0-0.2-0.2-0.4-0.3-0.5L241.5-54.7z"/>
	<path class="st6" d="M219.3-41.9L241-57.1l21.7,15.3c0.1,0.1,0.3,0.1,0.5,0.1c0.3,0,0.5-0.1,0.7-0.3c0.1-0.2,0.2-0.4,0.1-0.6
		c0-0.2-0.2-0.4-0.3-0.5l-21.9-15.5v-2.8h1.6c0.5,0,0.8-0.4,0.8-0.8c0-0.4-0.4-0.8-0.8-0.8h-1.6v-1.7c0-0.5-0.4-0.8-0.8-0.8
		c-0.4,0-0.8,0.4-0.8,0.8v1.6h-1.6c-0.5,0-0.8,0.4-0.8,0.8c0,0.4,0.4,0.8,0.8,0.8h1.6v2.9l-21.8,15.4c-0.4,0.3-0.5,0.8-0.2,1.2
		C218.4-41.7,218.9-41.6,219.3-41.9z"/>
	<path class="st6" d="M240.8-38.4c0.1,0,0.3,0,0.4,0c0.2-0.1,5.6-1.4,5.6-5.8c0-1.4-0.8-2.6-2.1-3.1s-2.7-0.1-3.6,0.9
		c-0.9-1-2.3-1.4-3.6-0.9c-1.3,0.5-2.1,1.7-2.1,3.1C235.2-39.9,240.6-38.5,240.8-38.4z M238.5-45.8c0.9,0,1.6,0.7,1.6,1.6
		c0,0.5,0.4,0.8,0.8,0.8c0.4,0,0.8-0.4,0.8-0.8c0-0.9,0.7-1.6,1.6-1.6s1.6,0.7,1.6,1.6c0,2.6-3.3,3.8-4.1,4.1
		c-0.8-0.3-4.1-1.4-4.1-4.1C236.9-45.1,237.6-45.8,238.5-45.8z"/>
	<path class="st6" d="M252.5-26.1c0.5,0,0.8-0.4,0.8-0.8v-3.3c0-1.4-1.1-2.5-2.5-2.5s-2.5,1.1-2.5,2.5v3.3c0,0.5,0.4,0.8,0.8,0.8
		c0.5,0,0.8-0.4,0.8-0.8v-3.3c0-0.5,0.4-0.8,0.8-0.8c0.5,0,0.8,0.4,0.8,0.8v3.3C251.7-26.5,252-26.1,252.5-26.1z"/>
	<path class="st6" d="M229.5-26.1h3.3c0.5,0,0.8-0.4,0.8-0.8v-3.3c0-1.4-1.1-2.5-2.5-2.5s-2.5,1.1-2.5,2.5v3.3
		C228.7-26.5,229-26.1,229.5-26.1z M230.3-30.2c0-0.5,0.4-0.8,0.8-0.8c0.5,0,0.8,0.4,0.8,0.8v2.5h-1.6
		C230.3-27.7,230.3-30.2,230.3-30.2z"/>
	<path class="st6" d="M249.2-17.9h-16.4c-0.5,0-0.8,0.4-0.8,0.8s0.4,0.8,0.8,0.8h16.4c0.5,0,0.8-0.4,0.8-0.8S249.7-17.9,249.2-17.9z
		"/>
	<path class="st6" d="M249.2-22.8h3.3c0.5,0,0.8-0.4,0.8-0.8s-0.4-0.8-0.8-0.8h-3.3c-0.5,0-0.8,0.4-0.8,0.8S248.8-22.8,249.2-22.8z"
		/>
</g>
<g id="_x32_">
	<path class="st6" d="M189.8-52.4c1.6,0,2.9-1.3,2.9-2.9v-1.4h4.3c0.4,0,0.7-0.3,0.7-0.7c0-0.4-0.3-0.7-0.7-0.7h-4.3v-1.4
		c0-0.4-0.3-0.7-0.7-0.7s-0.7,0.3-0.7,0.7v4.3c0,0.8-0.6,1.4-1.4,1.4s-1.4-0.6-1.4-1.4v-4.3c-0.1-0.8,0.5-1.5,1.3-1.5
		c0.4,0,0.7-0.3,0.7-0.7c0-0.4-0.3-0.7-0.7-0.7c-1.6,0-2.9,1.3-2.9,2.9v4.3C186.9-53.7,188.2-52.4,189.8-52.4z"/>
	<path class="st6" d="M177.7-52.4c1.6,0,2.9-1.3,2.9-2.9v-1.4h4.3c0.4,0,0.7-0.3,0.7-0.7c0-0.4-0.3-0.7-0.7-0.7h-4.3v-1.4
		c0-0.4-0.3-0.7-0.7-0.7s-0.7,0.3-0.7,0.7v4.3c0,0.8-0.6,1.4-1.4,1.4c-0.8,0-1.4-0.6-1.4-1.4v-4.3c0-0.8,0.6-1.4,1.4-1.4
		c0.4,0,0.7-0.3,0.7-0.7c0-0.4-0.3-0.7-0.7-0.7c-1.6,0-2.9,1.3-2.9,2.9v4.3C174.8-53.7,176.1-52.4,177.7-52.4z"/>
	<path class="st6" d="M192.6-22.5H184v-11.4h3c0.4,0,0.7-0.3,0.7-0.7s-0.3-0.7-0.7-0.7h-2.9v-11.4h4.3c0.4,0,0.7-0.3,0.7-0.7
		s-0.3-0.7-0.7-0.7h-17.2v-8.6h1.4c0.4,0,0.7-0.3,0.7-0.7c0-0.4-0.3-0.7-0.7-0.7h-2.1c-0.4,0-0.7,0.3-0.7,0.7v35.6
		c0,0.4,0.3,0.7,0.7,0.7h22.1c0.4,0,0.7-0.3,0.7-0.7S193-22.5,192.6-22.5z M182.7-46.7v11.4h-11.5v-11.4H182.7z M171.2-33.9h11.4
		v11.4h-11.4V-33.9z"/>
	<path class="st6" d="M204.7-49.6c0.4,0,0.7-0.3,0.7-0.7c0-0.4-0.3-0.7-0.7-0.7h-2.9c-0.4,0-0.7,0.3-0.7,0.7c0,0.4,0.3,0.7,0.7,0.7
		H204.7z"/>
	<path class="st6" d="M194.8-51c-0.4,0-0.7,0.3-0.7,0.7c0,0.4,0.3,0.7,0.7,0.7h2.9c0.4,0,0.7-0.3,0.7-0.7c0-0.4-0.3-0.7-0.7-0.7
		H194.8z"/>
	<path class="st6" d="M191.9-50.3c0-0.4-0.3-0.7-0.7-0.7h-2.9c-0.4,0-0.7,0.3-0.7,0.7c0,0.4,0.3,0.7,0.7,0.7h2.9
		C191.6-49.6,191.9-49.9,191.9-50.3z"/>
	<path class="st6" d="M181.2-51c-0.4,0-0.7,0.3-0.7,0.7c0,0.4,0.3,0.7,0.7,0.7h2.9c0.4,0,0.7-0.3,0.7-0.7c0-0.4-0.3-0.7-0.7-0.7
		H181.2z"/>
	<path class="st6" d="M174.8-49.6h2.9c0.4,0,0.7-0.3,0.7-0.7c0-0.4-0.3-0.7-0.7-0.7h-2.9c-0.4,0-0.7,0.3-0.7,0.7
		C174.1-49.9,174.4-49.6,174.8-49.6z"/>
	<path class="st6" d="M209-23.7c-0.4,0-0.7,0.3-0.7,0.7v0.5h-0.6c-0.4,0-0.7,0.3-0.7,0.7s0.3,0.7,0.7,0.7h1.3c0.4,0,0.7-0.3,0.7-0.7
		V-23C209.7-23.4,209.4-23.7,209-23.7z"/>
	<path class="st6" d="M176.9-38.1c1.6,0,2.9-1.3,2.9-2.9c0-0.4-0.3-0.7-0.7-0.7c-0.4,0-0.7,0.3-0.7,0.7c0,0.8-0.6,1.4-1.4,1.4
		s-1.4-0.6-1.4-1.4s0.6-1.4,1.4-1.4c0.4,0,0.7-0.3,0.7-0.7s-0.3-0.7-0.7-0.7c-1.6,0-2.9,1.3-2.9,2.9
		C174.1-39.4,175.4-38.1,176.9-38.1z"/>
	<path class="st6" d="M199.8-41c0,1.6,1.3,2.9,2.9,2.9c1.6,0,2.9-1.3,2.9-2.9s-1.3-2.9-2.9-2.9C201.1-43.9,199.8-42.6,199.8-41z
		 M204-41c0,0.8-0.6,1.4-1.4,1.4c-0.8,0-1.4-0.6-1.4-1.4s0.6-1.4,1.4-1.4C203.4-42.4,204-41.8,204-41z"/>
	<path class="st6" d="M212.6-31.7c0-3-2-5.5-4.9-6.2s-5.9,0.7-7.2,3.3c-1.4-2.6-4.3-4-7.2-3.3c-2.9,0.7-4.9,3.3-4.9,6.2
		c0,7.2,11.4,11.9,11.9,12.1c0.2,0.1,0.4,0.1,0.5,0C201.2-19.9,212.6-24.5,212.6-31.7z M200.5-21.1c-1.7-0.7-10.7-4.9-10.7-10.6
		c0-2.8,2.2-5,5-5s5,2.2,5,5c0,0.4,0.3,0.7,0.7,0.7s0.7-0.3,0.7-0.7c0-2.8,2.2-5,5-5s5,2.2,5,5C211.2-26,202.1-21.8,200.5-21.1z"/>
	<path class="st6" d="M201.9-52.4c1.6,0,2.9-1.3,2.9-2.9v-1.4h3.6v8.6h-16.5c-0.4,0-0.7,0.3-0.7,0.7s0.3,0.7,0.7,0.7h3.6v6.6
		c0,0.4,0.3,0.7,0.7,0.7c0.4,0,0.7-0.3,0.7-0.7v-6.6h11.4v7.2c0,0.4,0.3,0.7,0.7,0.7s0.7-0.3,0.7-0.7v-17.9c0-0.4-0.3-0.7-0.7-0.7
		h-4.3v-1.4c0-0.4-0.3-0.7-0.7-0.7c-0.4,0-0.7,0.3-0.7,0.7v4.3c0,0.8-0.6,1.4-1.4,1.4s-1.4-0.6-1.4-1.4v-4.3c0-0.8,0.6-1.4,1.4-1.4
		c0.4,0,0.7-0.3,0.7-0.7c0-0.4-0.3-0.7-0.7-0.7c-1.6,0-2.9,1.3-2.9,2.9v4.3C199-53.7,200.3-52.4,201.9-52.4z"/>
</g>
<g id="_x31_">
	<path class="st5" d="M132.3-36.6c0,0.4-0.4,0.8-0.8,0.8s-0.8-0.4-0.8-0.8c0-0.4,0.4-0.8,0.8-0.8S132.3-37,132.3-36.6z"/>
	<path class="st5" d="M127.5-36.6c0,0.4-0.4,0.8-0.8,0.8c-0.4,0-0.7-0.4-0.7-0.8c0-0.4,0.4-0.8,0.8-0.8
		C127.2-37.4,127.5-37,127.5-36.6z"/>
	<path class="st5" d="M156-35.8c0,0.4-0.4,0.8-0.8,0.8c-0.4,0-0.8-0.4-0.8-0.8s0.4-0.8,0.8-0.8C155.7-36.6,156-36.2,156-35.8z"/>
	<path class="st5" d="M151.3-35.8c0,0.4-0.4,0.8-0.8,0.8s-0.8-0.4-0.8-0.8s0.4-0.8,0.8-0.8S151.3-36.2,151.3-35.8z"/>
	<path class="st5" d="M142.6-38.2v6.3c0,0.4,0.4,0.8,0.8,0.8c0.4,0,0.8-0.4,0.8-0.8v-6.3c0-4.8,3.9-8.7,8.7-8.7
		c4.8,0,8.7,3.9,8.7,8.7v6.3c0,0.4,0.4,0.8,0.8,0.8s0.8-0.4,0.8-0.8v-6.3c0-5.7-4.6-10.3-10.3-10.3
		C147.2-48.5,142.6-43.9,142.6-38.2z"/>
	<path class="st5" d="M159.2-27.9h-2.4v-2.2c1.5-1.2,2.4-3,2.4-4.9v-4c0-0.4-0.3-0.8-0.7-0.8c-1.5-0.1-2.7-1.2-3.1-2.6
		c-0.1-0.4-0.4-0.6-0.8-0.6h-0.2c-0.3,0-0.5,0.2-0.7,0.4c-1,1.7-2.8,2.7-4.8,2.8c-0.5,0-0.9-0.1-1.4-0.2c-0.2-0.1-0.5,0-0.7,0.1
		c-0.2,0.2-0.3,0.4-0.3,0.6v4.3c0,1.9,0.9,3.7,2.4,4.9v2.2h-2.4c-3.1,0-5.5,2.5-5.5,5.5c0-3.1-2.5-5.5-5.5-5.5h-2.4v-2.2
		c1.5-1.2,2.4-3,2.4-4.9v-0.1c1.8-0.4,3.2-2,3.2-3.9v-5.5c0-0.9-0.7-1.6-1.6-1.6h-13.5c-2.2,0-4,1.8-4,4v3.1c0,0.4,0.4,0.8,0.8,0.8
		s0.8-0.4,0.8-0.8v-3.2c0-1.3,1.1-2.4,2.4-2.4H137v5.6c0,1-0.6,1.9-1.6,2.2v-3.8c0-0.2-0.1-0.4-0.3-0.6c-0.2-0.2-0.4-0.2-0.6-0.2
		l-3.2,0.2c-0.4,0-0.8,0.4-0.7,0.8c0,0.4,0.4,0.8,0.8,0.7l2.3-0.2v4.9c0,2.6-2.1,4.8-4.8,4.8c-2.7,0-4.5-2.2-4.5-4.8v-4l3.2-0.2
		c0.2,0,0.4-0.1,0.5-0.3c0.1-0.2,0.2-0.4,0.2-0.6c0-0.4-0.4-0.8-0.8-0.7l-4,0.3c-0.4,0-0.7,0.4-0.7,0.8v4.7c0,1.9,0.9,3.7,2.4,4.9
		v2.2h-2.4c-3.1,0-5.5,2.5-5.5,5.5v3.2c0,0.4,0.4,0.8,0.8,0.8s0.8-0.4,0.8-0.8v-3.2c0-2,1.5-3.6,3.4-3.9l2.8,7.4
		c0.1,0.3,0.4,0.5,0.7,0.5c0.1,0,0.2,0,0.3-0.1c0.4-0.2,0.6-0.6,0.5-1l-0.8-2.1c0.1,0,0.1,0,0.2,0s0.2,0,0.4-0.1l2.8-1.4l2.8,1.4
		c0.1,0.1,0.2,0.1,0.4,0.1c0.1,0,0.1,0,0.2,0l-0.8,2.1c-0.2,0.4,0,0.9,0.5,1c0.1,0,0.2,0.1,0.3,0.1c0.3,0,0.6-0.2,0.7-0.5l2.8-7.4
		c1.9,0.3,3.4,1.9,3.4,3.9v3.2c0,0.4,0.4,0.8,0.8,0.8c0.4,0,0.8-0.4,0.8-0.8c0,0.4,0.4,0.8,0.8,0.8s0.8-0.4,0.8-0.8v-3.2
		c0-2.2,1.8-4,4-4h3.2c0.4,0,0.8-0.4,0.8-0.8v-2.1c1.5,0.6,3.2,0.6,4.8,0v2.1c0,0.4,0.4,0.8,0.8,0.8h3.2c2.2,0,4,1.8,4,4v3.2
		c0,0.4,0.4,0.8,0.8,0.8s0.8-0.4,0.8-0.8v-3.2C164.8-25.4,162.3-27.9,159.2-27.9z M126.7-23.6v-0.6l0.6,0.3L126.7-23.6z M131.5-23.6
		l-0.6-0.3l0.6-0.3V-23.6z M133.1-23.1v-2.4c0-0.3-0.1-0.5-0.4-0.7c-0.2-0.1-0.5-0.2-0.8,0l-2.8,1.4l-2.8-1.4
		c-0.2-0.1-0.5-0.1-0.8,0c-0.2,0.1-0.4,0.4-0.4,0.7v2.4l-1.2-3.2h2c0.4,0,0.8-0.4,0.8-0.8v-2.1c1.5,0.6,3.2,0.6,4.8,0v1.3h-0.8
		c-0.4,0-0.8,0.4-0.8,0.8s0.4,0.8,0.8,0.8h3.6L133.1-23.1z M148.1-35v-3.2c2.4,0.3,4.7-0.7,6.2-2.5c0.7,1.2,1.9,2.1,3.3,2.4v3.3
		c0,2.6-2.1,4.8-4.8,4.8C150.3-30.3,148.1-32.4,148.1-35z"/>
	<path class="st5" d="M156-23.1c-1.2,0-2.3,0.4-3.2,1.2c-0.9-0.8-2-1.2-3.2-1.2c-2.3,0-4.2,1.6-4.7,3.8c-0.1,0.4,0.2,0.9,0.6,1
		s0.9-0.2,1-0.6c0.3-1.5,1.6-2.5,3.1-2.5c1,0,1.9,0.5,2.5,1.3c0.1,0.2,0.4,0.3,0.6,0.3s0.5-0.1,0.6-0.3c0.6-0.8,1.5-1.3,2.5-1.3
		c1.5,0,2.8,1.1,3.1,2.5c0.1,0.4,0.4,0.6,0.8,0.6h0.2c0.4-0.1,0.7-0.5,0.6-0.9C160.3-21.5,158.3-23.1,156-23.1z"/>
	<path class="st5" d="M140.8-49.3c0.1,0,0.3,0,0.4,0c0.4-0.1,10.1-2.6,10.1-10.3c0-2.5-1.7-4.7-4.1-5.3c-2.4-0.6-4.9,0.4-6.2,2.5
		c-1.3-2.1-3.8-3.2-6.2-2.5c-2.4,0.7-4.1,2.9-4.1,5.3C130.7-51.9,140.4-49.4,140.8-49.3z M136.2-63.5c2.2,0,4,1.8,4,4
		c0,0.4,0.4,0.8,0.8,0.8s0.8-0.4,0.8-0.8c0-2.2,1.8-4,4-4s4,1.8,4,4c0,5.9-7.4,8.3-8.7,8.7c-1.3-0.4-8.7-2.8-8.7-8.7
		C132.3-61.7,134.1-63.5,136.2-63.5z"/>
</g>
</svg>
