<?xml version="1.0" encoding="utf-8"?>
<!-- Generator: Adobe Illustrator 19.1.0, SVG Export Plug-In . SVG Version: 6.00 Build 0)  -->
<svg version="1.1" id="Layer_1" xmlns="http://www.w3.org/2000/svg" xmlns:xlink="http://www.w3.org/1999/xlink" x="0px" y="0px"
	 width="250px" height="150px" viewBox="0 0 250 150" style="enable-background:new 0 0 250 150;" xml:space="preserve">
<style type="text/css">
	.st0{fill:#DEE2E6;}
	.st1{fill:#EF4481;}
	.st2{fill:#EF4681;}
</style>
<g id="arrow">
	<path class="st0" d="M12.9,101.9l9.7,9.7c0.6,0.6,0.6,1.6,0,2.2c-0.6,0.6-1.6,0.6-2.2,0l-8.6-8.6l-8.6,8.6c-0.6,0.6-1.6,0.6-2.2,0
		c-0.6-0.6-0.6-1.6,0-2.2l9.7-9.7c0.3-0.3,0.7-0.5,1.1-0.5C12.2,101.5,12.6,101.6,12.9,101.9z"/>
</g>
<g id="twitter">
	<g>
		<path class="st0" d="M144.6,62.9c-1.4,0.6-3,1.1-4.6,1.3c1.7-1,2.9-2.6,3.5-4.4c-1.6,0.9-3.3,1.6-5.1,2c-1.5-1.6-3.6-2.5-5.9-2.5
			c-4.4,0-8,3.6-8,8c0,0.6,0.1,1.2,0.2,1.8c-6.7-0.3-12.6-3.5-16.6-8.4c-0.7,1.2-1.1,2.6-1.1,4c0,2.8,1.4,5.2,3.6,6.7
			c-1.3,0-2.6-0.4-3.6-1v0.1c0,3.9,2.8,7.1,6.4,7.9c-0.7,0.2-1.4,0.3-2.1,0.3c-0.5,0-1-0.1-1.5-0.1c1,3.2,4,5.5,7.5,5.6
			c-2.7,2.2-6.2,3.4-10,3.4c-0.6,0-1.3,0-1.9-0.1c3.6,2.3,7.8,3.6,12.3,3.6c14.8,0,22.9-12.2,22.9-22.9l0-1
			C142.1,65.9,143.5,64.5,144.6,62.9z"/>
	</g>
</g>
<g id="facebook">
	<path id="Facebook__x28_alt_x29_" class="st0" d="M92.9,62.1c0-3.4-3.1-6.4-6.4-6.4H60.7c-3.4,0-6.4,3.1-6.4,6.4v25.7
		c0,3.4,3.1,6.4,6.4,6.4h12.9V79.7h-4.7v-6.4h4.7v-2.5c0-4.3,3.2-8.2,7.2-8.2H86V69h-5.2c-0.6,0-1.2,0.7-1.2,1.7v2.6H86v6.4h-6.4
		v14.6h6.9c3.4,0,6.4-3.1,6.4-6.4V62.1z"/>
</g>
<g id="instagram">
	<path class="st0" d="M234,56.8H216c-5.9,0-10.7,4.8-10.7,10.7v18.1c0,5.9,4.8,10.7,10.7,10.7H234c5.9,0,10.7-4.8,10.7-10.7V67.4
		C244.7,61.6,239.9,56.8,234,56.8z M242.4,85.5c0,4.6-3.7,8.4-8.4,8.4H216c-4.6,0-8.4-3.7-8.4-8.4V67.4c0-4.6,3.7-8.4,8.4-8.4H234
		c4.6,0,8.4,3.7,8.4,8.4V85.5z"/>
	<path class="st0" d="M225,65.7c-5.9,0-10.8,4.8-10.8,10.8s4.8,10.8,10.8,10.8s10.8-4.8,10.8-10.8S230.9,65.7,225,65.7z M225,84.9
		c-4.7,0-8.5-3.8-8.5-8.5c0-4.7,3.8-8.5,8.5-8.5c4.7,0,8.5,3.8,8.5,8.5C233.5,81.1,229.7,84.9,225,84.9z"/>
	<path class="st0" d="M236,61.9c-1.8,0-3.2,1.4-3.2,3.2c0,1.8,1.4,3.2,3.2,3.2s3.2-1.4,3.2-3.2C239.2,63.3,237.8,61.9,236,61.9z
		 M236,65.9c-0.5,0-0.9-0.4-0.9-0.9c0-0.5,0.4-0.9,0.9-0.9c0.5,0,0.9,0.4,0.9,0.9C236.9,65.5,236.5,65.9,236,65.9z"/>
</g>
<g id="_x36_">
	<g>
		<g>
			<path class="st1" d="M18.2,66.4h-2.9c-0.4,0-0.7,0.3-0.7,0.7c0,0.4,0.3,0.7,0.7,0.7h2.9c0.4,0,0.7-0.3,0.7-0.7
				C18.9,66.7,18.6,66.4,18.2,66.4z"/>
		</g>
	</g>
	<g>
		<g>
			<path class="st1" d="M42.3,74.9c-1.4-5.5-6.3-9.5-12.2-9.5c-6.9,0-12.6,5.6-12.6,12.6s5.6,12.6,12.6,12.6
				c5.9,0,10.8-4.1,12.2-9.5c1.5-0.2,2.8-1.5,2.8-3.1C45,76.4,43.8,75.1,42.3,74.9z M30.1,89.2c-6.2,0-11.2-5-11.2-11.2
				s5-11.2,11.2-11.2c5.4,0,9.9,3.8,10.9,8.9c0,0,0,0,0,0c0,0.1,0,0.1,0,0.2c0.1,0.7,0.2,1.4,0.2,2.1C41.2,84.2,36.2,89.2,30.1,89.2
				z M42.6,79.6c0.1-0.5,0.1-1,0.1-1.5c0-0.5,0-1-0.1-1.5c0.6,0.2,1,0.8,1,1.5C43.6,78.7,43.2,79.3,42.6,79.6z"/>
		</g>
	</g>
	<g>
		<g>
			<path class="st1" d="M43.4,64.5c-1.2,0-2.1,1-2.1,2.1c0,1.2,1,2.1,2.1,2.1c1.2,0,2.1-1,2.1-2.1C45.5,65.4,44.5,64.5,43.4,64.5z
				 M43.4,67.3c-0.4,0-0.7-0.3-0.7-0.7c0-0.4,0.3-0.7,0.7-0.7c0.4,0,0.7,0.3,0.7,0.7C44.1,67,43.8,67.3,43.4,67.3z"/>
		</g>
	</g>
	<g>
		<g>
			<path class="st1" d="M36.9,62.1l-0.8-1.9c0,0,0,0,0,0c0,0,0,0,0,0c0,0,0,0,0,0c0,0,0,0,0,0c0,0,0,0,0,0c0,0,0,0,0,0c0,0,0,0,0,0
				c0,0,0,0,0,0c0,0-0.1-0.1-0.1-0.1c0,0,0,0,0,0c0,0,0,0,0,0c0,0,0,0-0.1,0c0,0,0,0,0,0c0,0-0.1,0-0.1-0.1c0,0,0,0,0,0c0,0,0,0,0,0
				c0,0,0,0,0,0c0,0,0,0,0,0c0,0,0,0,0,0c0,0,0,0,0,0c0,0,0,0,0,0c0,0,0,0,0,0H24.6c0,0,0,0,0,0c0,0,0,0-0.1,0c0,0,0,0,0,0
				c0,0,0,0,0,0c0,0,0,0,0,0c0,0,0,0,0,0c0,0,0,0,0,0c0,0,0,0,0,0c0,0,0,0-0.1,0c0,0,0,0,0,0c0,0,0,0-0.1,0c0,0,0,0,0,0c0,0,0,0,0,0
				c0,0,0,0,0,0c0,0,0,0,0,0c0,0-0.1,0.1-0.1,0.1c0,0,0,0,0,0c0,0,0,0,0,0c0,0,0,0,0,0c0,0,0,0,0,0c0,0,0,0,0,0c0,0,0,0,0,0
				c0,0,0,0,0,0c0,0,0,0,0,0l-0.8,1.9c-0.1,0.4,0,0.8,0.4,0.9c0.1,0,0.2,0.1,0.3,0.1c0.3,0,0.6-0.2,0.7-0.4l0.6-1.5H35l0.6,1.5
				c0.1,0.3,0.4,0.4,0.7,0.4c0.1,0,0.2,0,0.3-0.1C36.9,62.9,37,62.4,36.9,62.1z"/>
		</g>
	</g>
	<g>
		<g>
			<path class="st1" d="M34.1,74.7c-0.6-0.6-1.4-0.9-2.3-0.9c-0.6,0-1.3,0.2-1.8,0.5c-0.5-0.3-1.1-0.5-1.8-0.5
				c-0.9,0-1.7,0.3-2.3,0.9c-1.3,1.3-1.3,3.3,0,4.5l3.5,3.5c0.1,0.1,0.3,0.2,0.5,0.2c0.2,0,0.4-0.1,0.5-0.2l3.5-3.5
				c0.6-0.6,0.9-1.4,0.9-2.3C35,76.1,34.7,75.3,34.1,74.7z M33.1,78.2l-3,3l-3-3c-0.7-0.7-0.7-1.8,0-2.5c0.3-0.3,0.8-0.5,1.3-0.5
				c0.5,0,0.9,0.2,1.3,0.5c0.3,0.3,0.7,0.3,1,0c0.3-0.3,0.8-0.5,1.3-0.5s0.9,0.2,1.3,0.5c0.3,0.3,0.5,0.8,0.5,1.3
				C33.6,77.5,33.4,77.9,33.1,78.2z"/>
		</g>
	</g>
	<g>
		<g>
			<path class="st1" d="M30.1,68.3c-5.4,0-9.7,4.4-9.7,9.7s4.4,9.7,9.7,9.7s9.7-4.4,9.7-9.7C39.8,72.6,35.4,68.3,30.1,68.3z
				 M30.1,86.3c-4.6,0-8.3-3.7-8.3-8.3s3.7-8.3,8.3-8.3c4.6,0,8.3,3.7,8.3,8.3S34.6,86.3,30.1,86.3z"/>
		</g>
	</g>
	<g>
		<g>
			<path class="st1" d="M44.8,61.6h-4.3l-2.6-4.4c0,0,0,0,0,0c0,0,0,0,0,0c0,0,0,0,0,0c0,0,0,0,0,0c0,0,0,0,0,0c0,0,0,0,0,0
				c0,0,0,0,0,0c0,0,0,0,0,0c0,0,0,0,0,0c0,0,0,0,0,0s0,0,0,0c0,0,0,0,0,0c0,0,0,0,0,0c0,0,0,0,0,0c0,0,0,0,0,0c0,0,0,0,0,0
				c0,0,0,0,0,0c0,0,0,0,0,0c0,0,0,0,0,0c0,0,0,0,0,0c0,0,0,0,0,0c0,0,0,0,0,0H22.9c0,0,0,0,0,0c0,0,0,0,0,0c0,0,0,0,0,0
				c0,0,0,0,0,0c0,0,0,0,0,0c0,0,0,0,0,0c0,0,0,0,0,0c0,0,0,0,0,0c0,0,0,0,0,0c0,0,0,0,0,0c0,0,0,0,0,0c0,0,0,0,0,0c0,0,0,0,0,0
				c0,0,0,0,0,0c0,0,0,0,0,0c0,0,0,0,0,0c0,0,0,0,0,0c0,0,0,0,0,0c0,0,0,0,0,0c0,0,0,0,0,0c0,0,0,0,0,0c0,0,0,0,0,0l-2.6,4.4h-6.5
				v-2.1c0-0.4-0.3-0.7-0.7-0.7H6.8c-0.4,0-0.7,0.3-0.7,0.7v2.1H5.8c-2,0-3.6,1.6-3.6,3.6v24.7c0,2,1.6,3.6,3.6,3.6h39
				c2,0,3.6-1.6,3.6-3.6V65.2C48.4,63.2,46.8,61.6,44.8,61.6z M7.5,60.2h4.3v1.4H7.5V60.2z M44.8,92H13.2V65.2
				c0-0.4-0.3-0.7-0.7-0.7s-0.7,0.3-0.7,0.7V92H5.8c-1.2,0-2.1-1-2.1-2.1v-5h2.1c0.4,0,0.7-0.3,0.7-0.7c0-0.4-0.3-0.7-0.7-0.7H3.7
				v-2.4h2.1c0.4,0,0.7-0.3,0.7-0.7c0-0.4-0.3-0.7-0.7-0.7H3.7v-2.4h2.1c0.4,0,0.7-0.3,0.7-0.7c0-0.4-0.3-0.7-0.7-0.7H3.7v-2.4h2.1
				c0.4,0,0.7-0.3,0.7-0.7c0-0.4-0.3-0.7-0.7-0.7H3.7v-6.9c0-1.2,1-2.1,2.1-2.1h14.2c0,0,0,0,0,0c0,0,0,0,0,0c0,0,0.1,0,0.1,0
				c0,0,0,0,0,0c0,0,0,0,0.1,0c0,0,0,0,0,0c0,0,0,0,0.1,0c0,0,0,0,0,0c0,0,0.1,0,0.1,0c0,0,0,0,0,0c0,0,0,0,0.1,0c0,0,0,0,0,0
				c0,0,0,0,0,0c0,0,0,0,0,0c0,0,0,0,0.1-0.1c0,0,0,0,0,0c0,0,0,0,0-0.1c0,0,0,0,0,0l2.6-4.4h13.4l2.6,4.4c0,0,0,0,0,0
				c0,0,0,0,0,0.1c0,0,0,0,0,0c0,0,0,0,0.1,0.1c0,0,0,0,0,0c0,0,0,0,0,0c0,0,0,0,0,0c0,0,0,0,0.1,0c0,0,0,0,0,0c0,0,0,0,0.1,0
				c0,0,0,0,0,0c0,0,0,0,0.1,0c0,0,0,0,0,0c0,0,0,0,0.1,0c0,0,0,0,0,0c0,0,0.1,0,0.1,0c0,0,0,0,0,0c0,0,0,0,0,0h4.7
				c1.2,0,2.1,1,2.1,2.1v24.7h0C46.9,91.1,46,92,44.8,92z"/>
		</g>
	</g>
</g>
<g id="_x35_">
	<path class="st1" d="M241.9,29.8c-2.8,0-5.1,2.3-5.1,5.1c0,0.4,0.4,0.8,0.8,0.8c0.4,0,0.8-0.4,0.8-0.8c0.1-1.8,1.6-3.3,3.5-3.3
		s3.4,1.5,3.5,3.3c0,4-6.3,7-7.7,7.7c-2.2-1-4.3-2.3-6-4c-0.3-0.3-0.8-0.3-1.1-0.1c-0.3,0.3-0.3,0.8-0.1,1.1c2,1.9,4.3,3.5,6.9,4.5
		c0.2,0.1,0.4,0.1,0.6,0c0.4-0.2,9-3.7,9-9.3C247,32.1,244.7,29.8,241.9,29.8z"/>
	<path class="st1" d="M210.1,38.6l-2.8,2.8c-0.1-0.5-0.4-1-0.8-1.4c-0.6-0.6-1.4-0.9-2.3-0.9s-1.7,0.3-2.3,0.9
		c-2.4,2.4-0.4,7.1-0.2,7.7c0.1,0.2,0.2,0.3,0.4,0.4c1.4,0.6,2.9,0.9,4.4,1c1.2,0.1,2.4-0.3,3.2-1.1c0.6-0.6,0.9-1.4,0.9-2.3
		s-0.3-1.7-0.9-2.3c-0.4-0.4-0.9-0.7-1.4-0.8l2.8-2.8c0.3-0.3,0.3-0.8,0-1.2C211,38.3,210.4,38.3,210.1,38.6z M208.8,44.4
		c0.3,0.3,0.5,0.7,0.5,1.1c0,0.4-0.2,0.8-0.5,1.1c-1.2,1.2-4.2,0.5-5.6,0c-0.5-1.4-1.3-4.4,0-5.6c0.6-0.6,1.6-0.6,2.3,0
		c0.6,0.6,0.6,1.6,0,2.3c-0.2,0.2-0.3,0.5-0.3,0.8s0.3,0.5,0.6,0.6c0.3,0.1,0.6,0,0.8-0.3C207.2,43.8,208.2,43.8,208.8,44.4
		L208.8,44.4z"/>
	<path class="st1" d="M248.9,6.1c-0.1-0.3-0.3-0.5-0.5-0.6l-3-1l-1-3c-0.1-0.3-0.3-0.5-0.6-0.5c-0.3-0.1-0.6,0-0.7,0.2l-4.5,4.6
		c-0.2,0.2-0.3,0.5-0.2,0.8l1,2.9l-11,10.9c-0.2,0.1-0.2,0.4-0.2,0.6c0,0.2,0.1,0.4,0.2,0.6c0.1,0.2,0.4,0.2,0.6,0.2
		c0.2,0,0.4-0.1,0.6-0.2l10.9-11l2.9,1c0.1,0,0.2,0,0.2,0c0.2,0,0.4-0.1,0.6-0.2l4.5-4.5C248.8,6.7,248.9,6.4,248.9,6.1z M245.6,7.7
		l-1.7-0.6l1-1l1.7,0.6L245.6,7.7z M243.2,3.3l0.6,1.7l-1,1l-0.6-1.7L243.2,3.3z M240.9,5.5l0.6,1.7l-1,1l-0.6-1.7L240.9,5.5z
		 M243.3,9.9l-1.7-0.6l1-1l1.7,0.6L243.3,9.9z"/>
	<path class="st1" d="M240.9,21.8c0-2.2-0.7-4.3-2-6.1c-0.3-0.3-0.7-0.4-1.1-0.2c-0.3,0.3-0.4,0.7-0.2,1.1c1.1,1.5,1.7,3.3,1.7,5.2
		c0,10.1-16,17.3-18.4,18.3c-2.4-1-18.4-8.2-18.4-18.3c0-4.9,3.9-8.8,8.8-8.8s8.8,3.9,8.8,8.8c0,0.4,0.4,0.8,0.8,0.8
		c0.4,0,0.8-0.4,0.8-0.8c0-4.9,3.9-8.8,8.8-8.8c0.7,0,1.5,0.1,2.2,0.3c0.4,0.1,0.9-0.1,1-0.6c0.1-0.4-0.1-0.9-0.6-1
		c-5-1.3-10.2,1.3-12.2,6.1c-1.9-4.6-6.8-7.2-11.6-6.2c-4.9,1-8.4,5.2-8.4,10.2c0,11.9,18.9,19.6,19.7,19.9c0.2,0.1,0.4,0.1,0.6,0
		C222,41.4,240.9,33.7,240.9,21.8z"/>
</g>
<g id="_x34_">
	<path class="st1" d="M178.2,35.4c0,1.8-1.4,3.2-3.2,3.2s-3.2-1.4-3.2-3.2c0-0.4-0.4-0.8-0.8-0.8s-0.8,0.4-0.8,0.8
		c0,2.7,2.1,4.8,4.8,4.8s4.8-2.1,4.8-4.8c0-0.4-0.4-0.8-0.8-0.8S178.2,35,178.2,35.4z"/>
	<path class="st1" d="M198.2,18.6H188c-0.4,0-0.8,0.4-0.8,0.8c0,0.4,0.4,0.8,0.8,0.8h9.4v6.4h-12c-0.4,0-0.8,0.4-0.8,0.8
		c0,0.4,0.4,0.8,0.8,0.8h12v3.2h-15.2c-0.4,0-0.8,0.4-0.8,0.8v15.2h-28.8V33h15.5c0.4,0,0.8-0.4,0.8-0.8c0-0.4-0.4-0.8-0.8-0.8
		h-15.5v-3.2h12c0.4,0,0.8-0.4,0.8-0.8c0-0.4-0.4-0.8-0.8-0.8h-4v-6.4h1.4c0.4,0,0.8-0.4,0.8-0.8c0-0.4-0.4-0.8-0.8-0.8h-10.2
		c-0.4,0-0.8,0.4-0.8,0.8v28.8c0,0.4,0.4,0.8,0.8,0.8h46.4c0.4,0,0.8-0.4,0.8-0.8V19.4C199,19,198.6,18.6,198.2,18.6z M159,20.2v6.4
		h-6.4v-6.4H159z M183,47.4V33h14.4v14.4H183z"/>
	<path class="st1" d="M162.2,45c0.4,0,0.8-0.4,0.8-0.8v-4h1.6c0.3,0,0.6-0.2,0.7-0.5c0.1-0.3,0.1-0.6-0.2-0.9l-4.8-4.8
		c-0.1-0.2-0.4-0.2-0.6-0.2c-0.2,0-0.4,0.1-0.6,0.2l-4.8,4.8c-0.2,0.2-0.3,0.6-0.2,0.9c0.1,0.3,0.4,0.5,0.7,0.5h1.6v4
		c0,0.4,0.4,0.8,0.8,0.8c0.4,0,0.8-0.4,0.8-0.8v-4h3.2v4C161.4,44.7,161.8,45,162.2,45z M156.9,38.6l2.9-2.9l2.9,2.9H156.9z"/>
	<path class="st1" d="M191.6,34.9c-0.1-0.2-0.4-0.2-0.6-0.2s-0.4,0.1-0.6,0.2l-3.2,3.2c-0.1,0.2-0.2,0.4-0.2,0.6v4.8
		c0,0.4,0.4,0.8,0.8,0.8c0.4,0,0.8-0.4,0.8-0.8V39l2.4-2.4l2.4,2.4v4.5c0,0.4,0.4,0.8,0.8,0.8c0.4,0,0.8-0.4,0.8-0.8v-4.8
		c0-0.2-0.1-0.4-0.2-0.6L191.6,34.9z"/>
	<path class="st1" d="M178.2,9.8c-1.3,0-2.4,0.6-3.2,1.6c-1-1.4-2.8-1.9-4.5-1.4c-1.6,0.5-2.7,2.1-2.7,3.8c0,4.3,6.6,7,6.9,7.1
		c0.2,0.1,0.4,0.1,0.6,0c0.3-0.1,6.9-2.8,6.9-7.1C182.2,11.6,180.4,9.8,178.2,9.8z M175,19.4c-1.8-0.8-5.6-3-5.6-5.5
		c0-1.3,1.1-2.4,2.4-2.4s2.4,1.1,2.4,2.4c0,0.4,0.4,0.8,0.8,0.8s0.8-0.4,0.8-0.8c0-1.3,1.1-2.4,2.4-2.4s2.4,1.1,2.4,2.4
		C180.6,16.4,176.8,18.6,175,19.4z"/>
	<path class="st1" d="M174.5,36c0.3,0.3,0.8,0.3,1.1,0c3.3-3.2,6.1-7,8.1-11.2c0.2-0.4,0-0.9-0.4-1.1c-0.4-0.2-0.9,0-1.1,0.4
		c-1.9,3.7-4.3,7.2-7.2,10.2c-2.1-2.1-9.6-10.4-9.6-19.7c0-5.3,4.3-9.6,9.6-9.6s9.6,4.3,9.6,9.6c0,2.3-0.4,4.5-1.2,6.7
		c-0.1,0.4,0.1,0.9,0.5,1c0.4,0.2,0.9-0.1,1-0.5c0.8-2.3,1.3-4.7,1.3-7.2c0-6.2-5-11.2-11.2-11.2s-11.2,5-11.2,11.2
		C163.8,26.1,174,35.6,174.5,36z"/>
</g>
<g id="_x33_">
	<path class="st2" d="M140.8,26.2c-0.5,0-0.8,0.4-0.8,0.8V45h-9.1v-9.1c0-2.3-1.9-4.1-4.1-4.1h-3.3c-2.3,0-4.1,1.9-4.1,4.1V45h-9.1
		V27.1c0-0.5-0.4-0.8-0.8-0.8c-0.5,0-0.8,0.4-0.8,0.8v18.8c0,0.5,0.4,0.8,0.8,0.8H120c0.5,0,0.8-0.4,0.8-0.8v-10
		c0-1.4,1.1-2.5,2.5-2.5h0.8v12.4c0,0.5,0.4,0.8,0.8,0.8h15.8c0.5,0,0.8-0.4,0.8-0.8V27.1C141.6,26.6,141.2,26.2,140.8,26.2z
		 M126.7,33.4c1.4,0,2.5,1.1,2.5,2.5V45h-3.3V33.4H126.7z"/>
	<path class="st2" d="M113.4,43.4h3.3c0.5,0,0.8-0.4,0.8-0.8c0-0.5-0.4-0.8-0.8-0.8h-3.3c-0.5,0-0.8,0.4-0.8,0.8
		C112.6,43,112.9,43.4,113.4,43.4z"/>
	<path class="st2" d="M125.5,11.1c-0.3-0.2-0.7-0.2-1,0l-22.4,15.8c-0.4,0.3-0.5,0.8-0.2,1.2c0.3,0.4,0.8,0.5,1.2,0.2L125,12.8
		l21.9,15.4c0.1,0.1,0.3,0.2,0.5,0.1c0.3,0,0.5-0.1,0.7-0.3c0.1-0.2,0.2-0.4,0.1-0.6c0-0.2-0.2-0.4-0.3-0.5L125.5,11.1z"/>
	<path class="st2" d="M103.1,24.1L125,8.7l21.9,15.4c0.1,0.1,0.3,0.2,0.5,0.1c0.3,0,0.5-0.1,0.7-0.3c0.1-0.2,0.2-0.4,0.1-0.6
		c0-0.2-0.2-0.4-0.3-0.5L125.8,7.2V4.4h1.7c0.5,0,0.8-0.4,0.8-0.8s-0.4-0.8-0.8-0.8h-1.7V1c0-0.5-0.4-0.8-0.8-0.8s-0.8,0.4-0.8,0.8
		v1.7h-1.7c-0.5,0-0.8,0.4-0.8,0.8s0.4,0.8,0.8,0.8h1.7v2.9l-22.1,15.5c-0.4,0.3-0.5,0.8-0.2,1.2C102.2,24.3,102.7,24.4,103.1,24.1z
		"/>
	<path class="st2" d="M124.8,27.6c0.1,0,0.3,0,0.4,0c0.2-0.1,5.6-1.5,5.6-5.8c0-1.4-0.9-2.6-2.1-3.1c-1.3-0.5-2.7-0.1-3.7,0.9
		c-0.9-1-2.4-1.4-3.7-0.9c-1.3,0.5-2.1,1.7-2.1,3.1C119.2,26.1,124.6,27.5,124.8,27.6z M122.5,20.1c0.9,0,1.7,0.7,1.7,1.7
		c0,0.5,0.4,0.8,0.8,0.8s0.8-0.4,0.8-0.8c0-0.9,0.7-1.7,1.7-1.7c0.9,0,1.7,0.7,1.7,1.7c0,2.7-3.3,3.9-4.1,4.1
		c-0.8-0.3-4.1-1.5-4.1-4.1C120.9,20.9,121.6,20.1,122.5,20.1z"/>
	<path class="st2" d="M136.6,40c0.5,0,0.8-0.4,0.8-0.8v-3.3c0-1.4-1.1-2.5-2.5-2.5s-2.5,1.1-2.5,2.5v3.3c0,0.5,0.4,0.8,0.8,0.8
		c0.5,0,0.8-0.4,0.8-0.8v-3.3c0-0.5,0.4-0.8,0.8-0.8s0.8,0.4,0.8,0.8v3.3C135.8,39.7,136.2,40,136.6,40z"/>
	<path class="st2" d="M113.4,40h3.3c0.5,0,0.8-0.4,0.8-0.8v-3.3c0-1.4-1.1-2.5-2.5-2.5c-1.4,0-2.5,1.1-2.5,2.5v3.3
		C112.6,39.7,112.9,40,113.4,40z M114.2,35.9c0-0.5,0.4-0.8,0.8-0.8s0.8,0.4,0.8,0.8v2.5h-1.7V35.9z"/>
	<path class="st2" d="M133.3,48.3h-16.6c-0.5,0-0.8,0.4-0.8,0.8c0,0.5,0.4,0.8,0.8,0.8h16.6c0.5,0,0.8-0.4,0.8-0.8
		C134.1,48.7,133.8,48.3,133.3,48.3z"/>
	<path class="st2" d="M133.3,43.4h3.3c0.5,0,0.8-0.4,0.8-0.8c0-0.5-0.4-0.8-0.8-0.8h-3.3c-0.5,0-0.8,0.4-0.8,0.8
		C132.5,43,132.8,43.4,133.3,43.4z"/>
</g>
<g id="_x32_">
	<path class="st2" d="M73.6,12.2c1.8,0,3.2-1.4,3.2-3.2V7.4h4.8c0.4,0,0.8-0.4,0.8-0.8c0-0.4-0.4-0.8-0.8-0.8h-4.8V4.2
		c0-0.4-0.4-0.8-0.8-0.8c-0.4,0-0.8,0.4-0.8,0.8V9c0,0.9-0.7,1.6-1.6,1.6C72.7,10.6,72,9.9,72,9V4.2c0-0.9,0.7-1.6,1.6-1.6
		c0.4,0,0.8-0.4,0.8-0.8S74,1,73.6,1c-1.8,0-3.2,1.4-3.2,3.2V9C70.4,10.8,71.8,12.2,73.6,12.2z"/>
	<path class="st2" d="M60,12.2c1.8,0,3.2-1.4,3.2-3.2V7.4H68c0.4,0,0.8-0.4,0.8-0.8c0-0.4-0.4-0.8-0.8-0.8h-4.8V4.2
		c0-0.4-0.4-0.8-0.8-0.8c-0.4,0-0.8,0.4-0.8,0.8V9c0,0.9-0.7,1.6-1.6,1.6c-0.9,0-1.6-0.7-1.6-1.6V4.2c0-0.9,0.7-1.6,1.6-1.6
		c0.4,0,0.8-0.4,0.8-0.8S60.4,1,60,1c-1.8,0-3.2,1.4-3.2,3.2V9C56.8,10.8,58.2,12.2,60,12.2z"/>
	<path class="st2" d="M76.8,45.8h-9.6V33h3.3c0.4,0,0.8-0.4,0.8-0.8c0-0.4-0.4-0.8-0.8-0.8h-3.3V18.6H72c0.4,0,0.8-0.4,0.8-0.8
		S72.4,17,72,17H52.8V7.4h1.6c0.4,0,0.8-0.4,0.8-0.8c0-0.4-0.4-0.8-0.8-0.8H52c-0.4,0-0.8,0.4-0.8,0.8v40c0,0.4,0.4,0.8,0.8,0.8
		h24.8c0.4,0,0.8-0.4,0.8-0.8C77.6,46.2,77.2,45.8,76.8,45.8z M65.6,18.6v12.8H52.8V18.6H65.6z M52.8,33h12.8v12.8H52.8V33z"/>
	<path class="st2" d="M90.4,15.4c0.4,0,0.8-0.4,0.8-0.8s-0.4-0.8-0.8-0.8h-3.2c-0.4,0-0.8,0.4-0.8,0.8s0.4,0.8,0.8,0.8H90.4z"/>
	<path class="st2" d="M79.2,13.8c-0.4,0-0.8,0.4-0.8,0.8s0.4,0.8,0.8,0.8h3.2c0.4,0,0.8-0.4,0.8-0.8s-0.4-0.8-0.8-0.8H79.2z"/>
	<path class="st2" d="M76,14.6c0-0.4-0.4-0.8-0.8-0.8H72c-0.4,0-0.8,0.4-0.8,0.8s0.4,0.8,0.8,0.8h3.2C75.6,15.4,76,15,76,14.6z"/>
	<path class="st2" d="M64,13.8c-0.4,0-0.8,0.4-0.8,0.8s0.4,0.8,0.8,0.8h3.2c0.4,0,0.8-0.4,0.8-0.8s-0.4-0.8-0.8-0.8H64z"/>
	<path class="st2" d="M56.8,15.4H60c0.4,0,0.8-0.4,0.8-0.8s-0.4-0.8-0.8-0.8h-3.2c-0.4,0-0.8,0.4-0.8,0.8S56.4,15.4,56.8,15.4z"/>
	<path class="st2" d="M95.2,44.4c-0.4,0-0.8,0.4-0.8,0.8v0.6h-0.7c-0.4,0-0.8,0.4-0.8,0.8c0,0.4,0.4,0.8,0.8,0.8h1.5
		c0.4,0,0.8-0.4,0.8-0.8v-1.4C96,44.8,95.6,44.4,95.2,44.4z"/>
	<path class="st2" d="M59.2,28.2c1.8,0,3.2-1.4,3.2-3.2c0-0.4-0.4-0.8-0.8-0.8c-0.4,0-0.8,0.4-0.8,0.8c0,0.9-0.7,1.6-1.6,1.6
		s-1.6-0.7-1.6-1.6s0.7-1.6,1.6-1.6c0.4,0,0.8-0.4,0.8-0.8s-0.4-0.8-0.8-0.8c-1.8,0-3.2,1.4-3.2,3.2S57.4,28.2,59.2,28.2z"/>
	<path class="st2" d="M84.8,25c0,1.8,1.4,3.2,3.2,3.2s3.2-1.4,3.2-3.2s-1.4-3.2-3.2-3.2S84.8,23.2,84.8,25z M89.6,25
		c0,0.9-0.7,1.6-1.6,1.6c-0.9,0-1.6-0.7-1.6-1.6s0.7-1.6,1.6-1.6C88.9,23.4,89.6,24.1,89.6,25z"/>
	<path class="st2" d="M99.2,35.4c0-3.3-2.3-6.2-5.5-7c-3.2-0.8-6.6,0.7-8.1,3.7c-1.5-3-4.9-4.5-8.1-3.7c-3.2,0.8-5.5,3.7-5.5,7
		c0,8.1,12.8,13.3,13.3,13.5c0.2,0.1,0.4,0.1,0.6,0C86.4,48.7,99.2,43.5,99.2,35.4z M85.6,47.3c-1.9-0.8-12-5.5-12-11.9
		c0-3.1,2.5-5.6,5.6-5.6s5.6,2.5,5.6,5.6c0,0.4,0.4,0.8,0.8,0.8s0.8-0.4,0.8-0.8c0-3.1,2.5-5.6,5.6-5.6c3.1,0,5.6,2.5,5.6,5.6
		C97.6,41.8,87.5,46.5,85.6,47.3z"/>
	<path class="st2" d="M87.2,12.2c1.8,0,3.2-1.4,3.2-3.2V7.4h4V17H76c-0.4,0-0.8,0.4-0.8,0.8s0.4,0.8,0.8,0.8h4V26
		c0,0.4,0.4,0.8,0.8,0.8s0.8-0.4,0.8-0.8v-7.4h12.8v8.1c0,0.4,0.4,0.8,0.8,0.8s0.8-0.4,0.8-0.8V6.6c0-0.4-0.4-0.8-0.8-0.8h-4.8V4.2
		c0-0.4-0.4-0.8-0.8-0.8c-0.4,0-0.8,0.4-0.8,0.8V9c0,0.9-0.7,1.6-1.6,1.6c-0.9,0-1.6-0.7-1.6-1.6V4.2c0-0.9,0.7-1.6,1.6-1.6
		c0.4,0,0.8-0.4,0.8-0.8S87.6,1,87.2,1C85.4,1,84,2.4,84,4.2V9C84,10.8,85.4,12.2,87.2,12.2z"/>
</g>
<g id="_x31_">
	<path class="st1" d="M16.2,29.5c0,0.4-0.4,0.8-0.8,0.8c-0.4,0-0.8-0.4-0.8-0.8s0.4-0.8,0.8-0.8C15.8,28.7,16.2,29,16.2,29.5z"/>
	<path class="st1" d="M11.4,29.5c0,0.4-0.4,0.8-0.8,0.8c-0.4,0-0.8-0.4-0.8-0.8s0.4-0.8,0.8-0.8C11,28.7,11.4,29,11.4,29.5z"/>
	<path class="st1" d="M40.2,30.3c0,0.4-0.4,0.8-0.8,0.8c-0.4,0-0.8-0.4-0.8-0.8c0-0.4,0.4-0.8,0.8-0.8
		C39.8,29.5,40.2,29.8,40.2,30.3z"/>
	<path class="st1" d="M35.4,30.3c0,0.4-0.4,0.8-0.8,0.8s-0.8-0.4-0.8-0.8c0-0.4,0.4-0.8,0.8-0.8S35.4,29.8,35.4,30.3z"/>
	<path class="st1" d="M26.6,27.9v6.4c0,0.4,0.4,0.8,0.8,0.8c0.4,0,0.8-0.4,0.8-0.8v-6.4c0-4.9,3.9-8.8,8.8-8.8s8.8,3.9,8.8,8.8v6.4
		c0,0.4,0.4,0.8,0.8,0.8s0.8-0.4,0.8-0.8v-6.4c0-5.7-4.7-10.4-10.4-10.4S26.6,22.1,26.6,27.9z"/>
	<path class="st1" d="M43.4,38.3H41v-2.2c1.5-1.2,2.4-3,2.4-5v-4c0-0.4-0.3-0.8-0.7-0.8c-1.5-0.1-2.7-1.2-3.1-2.6
		c-0.1-0.4-0.4-0.6-0.8-0.6h-0.2c-0.3,0-0.5,0.2-0.7,0.4c-1,1.7-2.8,2.8-4.8,2.8c-0.5,0-0.9-0.1-1.4-0.2c-0.2-0.1-0.5,0-0.7,0.1
		c-0.2,0.2-0.3,0.4-0.3,0.7v4.2c0,1.9,0.9,3.8,2.4,5v2.2h-2.4c-3.1,0-5.6,2.5-5.6,5.6c0-3.1-2.5-5.6-5.6-5.6H17v-2.2
		c1.5-1.2,2.4-3,2.4-5V31c1.9-0.4,3.2-2,3.2-3.9v-5.6c0-0.9-0.7-1.6-1.6-1.6H7.4c-2.2,0-4,1.8-4,4v3.2c0,0.4,0.4,0.8,0.8,0.8
		S5,27.5,5,27.1v-3.2c0-1.3,1.1-2.4,2.4-2.4H21v5.6c0,1-0.6,1.9-1.6,2.3v-3.9c0-0.2-0.1-0.4-0.3-0.6c-0.2-0.2-0.4-0.2-0.6-0.2
		l-3.2,0.2c-0.4,0-0.8,0.4-0.7,0.9c0,0.4,0.4,0.8,0.9,0.7l2.3-0.2v4.7c0,2.7-2.1,4.8-4.8,4.8s-4.8-2.1-4.8-4.8V27l3.3-0.2
		c0.2,0,0.4-0.1,0.6-0.3c0.1-0.2,0.2-0.4,0.2-0.6c0-0.4-0.4-0.8-0.9-0.7l-4,0.3c-0.4,0-0.7,0.4-0.7,0.8v4.8c0,1.9,0.9,3.8,2.4,5v2.2
		H6.6c-3.1,0-5.6,2.5-5.6,5.6v3.2c0,0.4,0.4,0.8,0.8,0.8s0.8-0.4,0.8-0.8v-3.2c0-2,1.5-3.7,3.5-3.9l2.8,7.4c0.1,0.3,0.4,0.5,0.7,0.5
		c0.1,0,0.2,0,0.3-0.1c0.4-0.2,0.6-0.6,0.5-1l-0.8-2.1c0.1,0,0.1,0,0.2,0c0.1,0,0.2,0,0.4-0.1l2.8-1.4l2.8,1.4
		c0.1,0.1,0.2,0.1,0.4,0.1c0.1,0,0.1,0,0.2,0l-0.8,2.1c-0.2,0.4,0,0.9,0.5,1c0.1,0,0.2,0.1,0.3,0.1c0.3,0,0.6-0.2,0.8-0.5l2.8-7.4
		c2,0.3,3.4,1.9,3.5,3.9v3.2c0,0.4,0.4,0.8,0.8,0.8s0.8-0.4,0.8-0.8c0,0.4,0.4,0.8,0.8,0.8s0.8-0.4,0.8-0.8v-3.2c0-2.2,1.8-4,4-4
		h3.2c0.4,0,0.8-0.4,0.8-0.8V37c1.5,0.6,3.3,0.6,4.8,0v2.1c0,0.4,0.4,0.8,0.8,0.8h3.2c2.2,0,4,1.8,4,4v3.2c0,0.4,0.4,0.8,0.8,0.8
		c0.4,0,0.8-0.4,0.8-0.8v-3.2C49,40.8,46.5,38.3,43.4,38.3z M10.6,42.6V42l0.6,0.3L10.6,42.6z M15.4,42.6l-0.6-0.3l0.6-0.3V42.6z
		 M17,43.1v-2.5c0-0.3-0.1-0.5-0.4-0.7c-0.2-0.1-0.5-0.2-0.8,0L13,41.4L10.2,40c-0.2-0.1-0.5-0.1-0.8,0C9.1,40.1,9,40.4,9,40.7v2.5
		l-1.2-3.3h2c0.4,0,0.8-0.4,0.8-0.8V37c1.5,0.6,3.3,0.6,4.8,0v1.3h-0.8c-0.4,0-0.8,0.4-0.8,0.8c0,0.4,0.4,0.8,0.8,0.8h3.6L17,43.1z
		 M32.2,31.1v-3.2c2.4,0.3,4.8-0.7,6.3-2.5c0.7,1.2,1.9,2.1,3.3,2.4v3.4c0,2.7-2.1,4.8-4.8,4.8C34.3,35.9,32.2,33.7,32.2,31.1z"/>
	<path class="st1" d="M40.2,43.1c-1.2,0-2.3,0.4-3.2,1.2c-0.9-0.8-2-1.2-3.2-1.2c-2.3,0-4.2,1.6-4.7,3.8c-0.1,0.4,0.2,0.9,0.6,1
		c0.4,0.1,0.9-0.2,1-0.6c0.3-1.5,1.6-2.5,3.1-2.6c1,0,2,0.5,2.6,1.3c0.2,0.2,0.4,0.3,0.6,0.3s0.5-0.1,0.6-0.3
		c0.6-0.8,1.5-1.3,2.6-1.3c1.5,0,2.8,1.1,3.1,2.6c0.1,0.4,0.4,0.6,0.8,0.6h0.2c0.4-0.1,0.7-0.5,0.6-0.9
		C44.5,44.7,42.5,43.1,40.2,43.1z"/>
	<path class="st1" d="M24.8,16.7c0.1,0,0.3,0,0.4,0c0.4-0.1,10.2-2.7,10.2-10.4c0-2.5-1.7-4.7-4.1-5.4s-5,0.4-6.3,2.5
		c-1.3-2.2-3.9-3.2-6.3-2.5s-4.1,2.9-4.1,5.4C14.6,14,24.4,16.5,24.8,16.7z M20.2,2.3c2.2,0,4,1.8,4,4c0,0.4,0.4,0.8,0.8,0.8
		c0.4,0,0.8-0.4,0.8-0.8c0-2.2,1.8-4,4-4s4,1.8,4,4c0,5.9-7.5,8.4-8.8,8.8c-1.3-0.4-8.8-2.8-8.8-8.8C16.2,4.1,18,2.3,20.2,2.3z"/>
	<g>
		<path class="st0" d="M192.6,64.7c-1.9-3.2-4.4-5.7-7.6-7.6c-3.2-1.9-6.7-2.8-10.5-2.8c-3.8,0-7.3,0.9-10.5,2.8
			c-3.2,1.9-5.7,4.4-7.6,7.6c-1.9,3.2-2.8,6.7-2.8,10.5c0,4.2,1.1,8,3.4,11.5c2.3,3.4,5.3,6,9,7.6c-0.1-1.9,0-3.5,0.4-4.8l2.7-11.3
			c-0.5-0.9-0.7-2-0.7-3.3c0-1.5,0.4-2.8,1.2-3.9c0.8-1,1.7-1.5,2.8-1.5c0.9,0,1.6,0.3,2.1,0.9c0.5,0.6,0.7,1.3,0.7,2.3
			c0,0.6-0.1,1.2-0.3,2c-0.2,0.8-0.5,1.7-0.8,2.8c-0.3,1.1-0.6,1.9-0.7,2.5c-0.3,1.1,0,2,0.6,2.8c0.7,0.8,1.6,1.2,2.7,1.2
			c1.9,0,3.5-1.1,4.8-3.2c1.2-2.2,1.9-4.8,1.9-7.8c0-2.4-0.8-4.3-2.3-5.8c-1.5-1.5-3.7-2.2-6.4-2.2c-3.1,0-5.5,1-7.4,2.9
			c-1.9,2-2.8,4.3-2.8,7c0,1.6,0.5,3,1.4,4.1c0.3,0.4,0.4,0.8,0.3,1.2c0,0.1-0.1,0.4-0.2,0.8c-0.1,0.4-0.2,0.7-0.2,0.8
			c-0.1,0.6-0.5,0.8-1,0.5c-1.4-0.6-2.5-1.6-3.2-3c-0.7-1.4-1.1-3.1-1.1-5c0-1.2,0.2-2.4,0.6-3.6c0.4-1.2,1-2.4,1.8-3.5
			c0.8-1.1,1.8-2.1,3-3c1.1-0.9,2.5-1.6,4.2-2.1c1.6-0.5,3.4-0.8,5.3-0.8c2.6,0,4.9,0.6,6.9,1.7c2,1.1,3.6,2.6,4.7,4.4
			c1.1,1.8,1.6,3.7,1.6,5.8c0,2.7-0.5,5.2-1.4,7.3c-0.9,2.2-2.3,3.9-4,5.1c-1.7,1.2-3.7,1.9-5.9,1.9c-1.1,0-2.1-0.3-3.1-0.8
			c-1-0.5-1.6-1.1-2-1.8c-0.8,3.2-1.3,5.1-1.5,5.7c-0.3,1.3-1,2.8-2.1,4.4c1.9,0.6,3.9,0.9,5.9,0.9c3.8,0,7.3-0.9,10.5-2.8
			c3.2-1.9,5.7-4.4,7.6-7.6c1.9-3.2,2.8-6.7,2.8-10.5C195.4,71.4,194.5,67.9,192.6,64.7z"/>
	</g>
</g>
</svg>
