<?xml version="1.0" encoding="utf-8"?>
<!-- Generator: Adobe Illustrator 19.1.0, SVG Export Plug-In . SVG Version: 6.00 Build 0)  -->
<svg version="1.1" xmlns="http://www.w3.org/2000/svg" xmlns:xlink="http://www.w3.org/1999/xlink" x="0px" y="0px" width="200px"
	 height="400px" viewBox="0 0 200 400" style="enable-background:new 0 0 200 400;" xml:space="preserve">
<style type="text/css">
	.st0{fill:#252525;}
	.st1{fill:#FFFFFF;}
	.st2{fill:#8CC640;}
	.st3{fill:#8CC63F;}
	.st4{display:none;}
	.st5{display:inline;}
</style>
<g id="Layer_1">
</g>
<g id="close">
	<path class="st0" d="M141.9,70.2c-0.1-0.1-0.1-0.3,0-0.4l4.5-4.5c0.1-0.1,0.2-0.3,0.2-0.4c0-0.1-0.1-0.3-0.2-0.4l-0.8-0.8
		c-0.1-0.1-0.3-0.2-0.4-0.2c-0.2,0-0.3,0.1-0.4,0.2l-4.5,4.5c-0.1,0.1-0.3,0.1-0.4,0l-4.5-4.5c-0.1-0.1-0.3-0.2-0.4-0.2
		c-0.1,0-0.3,0.1-0.4,0.2l-0.8,0.8c-0.1,0.1-0.2,0.3-0.2,0.4c0,0.1,0.1,0.3,0.2,0.4l4.5,4.5c0.1,0.1,0.1,0.3,0,0.4l-4.5,4.5
		c-0.1,0.1-0.2,0.3-0.2,0.4c0,0.1,0.1,0.3,0.2,0.4l0.8,0.8c0.1,0.1,0.3,0.2,0.4,0.2c0.1,0,0.3-0.1,0.4-0.2l4.5-4.5
		c0.1-0.1,0.3-0.1,0.4,0l4.5,4.5c0.1,0.1,0.3,0.2,0.4,0.2c0.1,0,0.3-0.1,0.4-0.2l0.8-0.8c0.1-0.1,0.2-0.3,0.2-0.4
		c0-0.1-0.1-0.3-0.2-0.4L141.9,70.2z"/>
</g>
<g id="arrow_1_">
	<g id="arrow">
		<path class="st1" d="M135.8,29.5l-10.3-11.2c-0.1-0.2-0.3-0.2-0.5-0.2c-0.2,0-0.4,0.1-0.5,0.2l-10.3,11.2
			c-0.1,0.2-0.2,0.3-0.2,0.6c0,0.2,0.1,0.4,0.2,0.6l1.1,1.2c0.1,0.2,0.3,0.2,0.5,0.2s0.4-0.1,0.5-0.2l8.7-9.5l8.7,9.5
			c0.1,0.2,0.3,0.2,0.5,0.2c0.2,0,0.4-0.1,0.5-0.2l1.1-1.2c0.1-0.2,0.2-0.3,0.2-0.6C136,29.8,135.9,29.6,135.8,29.5z"/>
	</g>
	<g id="arrow_2_">
		<path class="st2" d="M151.8,15.8l8-7.5c0.1-0.1,0.2-0.2,0.2-0.4c0-0.1-0.1-0.3-0.2-0.4l-8-7.5c-0.1-0.1-0.2-0.2-0.4-0.2
			c-0.1,0-0.3,0.1-0.4,0.2L150.2,1c-0.1,0.1-0.2,0.2-0.2,0.4s0.1,0.3,0.2,0.4l6.8,6.3l-6.8,6.3c-0.1,0.1-0.2,0.2-0.2,0.4
			c0,0.1,0.1,0.3,0.2,0.4l0.9,0.8c0.1,0.1,0.2,0.2,0.4,0.2C151.6,16,151.7,15.9,151.8,15.8z"/>
	</g>
</g>
<g id="socials">
	<g>
		<g>
			<path class="st1" d="M67,65c-0.6,0.3-1.2,0.4-1.9,0.5c0.7-0.4,1.2-1.1,1.5-1.8c-0.6,0.4-1.4,0.7-2.1,0.8c-0.6-0.6-1.5-1-2.4-1
				c-1.8,0-3.3,1.5-3.3,3.3c0,0.3,0,0.5,0.1,0.8C56.1,67.4,53.6,66,52,64c-0.3,0.5-0.4,1.1-0.4,1.7c0,1.1,0.6,2.2,1.5,2.8
				c-0.5,0-1.1-0.2-1.5-0.4v0c0,1.6,1.1,2.9,2.7,3.2c-0.3,0.1-0.6,0.1-0.9,0.1c-0.2,0-0.4,0-0.6-0.1c0.4,1.3,1.6,2.3,3.1,2.3
				c-1.1,0.9-2.6,1.4-4.1,1.4c-0.3,0-0.5,0-0.8,0c1.5,0.9,3.2,1.5,5.1,1.5c6.1,0,9.4-5.1,9.4-9.4l0-0.4C66,66.2,66.6,65.7,67,65z"/>
		</g>
	</g>
	<g>
		<path id="LinkedIn_1_" class="st1" d="M108.2,71.5v5.2h-3v-4.9c0-1.2-0.4-2.1-1.5-2.1c-0.8,0-1.3,0.6-1.6,1.1
			c-0.1,0.2-0.1,0.5-0.1,0.7v5.1h-3c0,0,0-8.3,0-9.2h3v1.3c0,0,0,0,0,0h0v0c0.4-0.6,1.1-1.5,2.7-1.5
			C106.7,67.4,108.2,68.7,108.2,71.5z M95.7,63.2c-1,0-1.7,0.7-1.7,1.6c0,0.9,0.7,1.6,1.7,1.6h0c1.1,0,1.7-0.7,1.7-1.6
			C97.4,63.9,96.7,63.2,95.7,63.2z M94.1,76.8h3v-9.2h-3V76.8z"/>
	</g>
	<g>
		<path class="st1" d="M24.9,60.4l-2.5,0c-2.8,0-4.6,1.9-4.6,4.7v2.2h-2.5c-0.2,0-0.4,0.2-0.4,0.4v3.2c0,0.2,0.2,0.4,0.4,0.4h2.5v8
			c0,0.2,0.2,0.4,0.4,0.4h3.3c0.2,0,0.4-0.2,0.4-0.4v-8h2.9c0.2,0,0.4-0.2,0.4-0.4l0-3.2c0-0.1,0-0.2-0.1-0.3s-0.2-0.1-0.3-0.1h-2.9
			v-1.8c0-0.9,0.2-1.3,1.4-1.3l1.7,0c0.2,0,0.4-0.2,0.4-0.4v-2.9C25.3,60.6,25.1,60.4,24.9,60.4z"/>
	</g>
</g>
<g id="meals">
	<g>
		<g>
			<path class="st3" d="M74.6,10.4c-8.1,0-14.7,6.5-14.7,14.6s6.6,14.6,14.7,14.6S89.3,33.1,89.3,25C89.3,16.9,82.7,10.4,74.6,10.4z
				 M74.6,38.1c-7.3,0-13.2-5.9-13.2-13.1s5.9-13.1,13.2-13.1c7.3,0,13.2,5.9,13.2,13.1C87.8,32.2,81.9,38.1,74.6,38.1z"/>
		</g>
	</g>
	<g>
		<g>
			<path class="st3" d="M95.5,7.6c-0.7-0.3-1.4-0.1-2,0.4c-1.8,1.8-2.8,4.2-2.8,6.7v9.5c0,0.9,0.6,1.7,1.5,2.1v14
				c0,1.2,1,2.2,2.2,2.2s2.2-1,2.2-2.2v-31C96.6,8.6,96.2,7.9,95.5,7.6z M95.1,40.3c0,0.4-0.3,0.7-0.7,0.7s-0.7-0.3-0.7-0.7V26.5
				h1.5V40.3z M95.1,25h-2.2c-0.4,0-0.7-0.3-0.7-0.7v-9.5c0-2.1,0.8-4.2,2.4-5.7C94.6,9,94.7,9,94.8,9c0,0,0.1,0,0.1,0
				c0.1,0,0.2,0.2,0.2,0.3V25z"/>
		</g>
	</g>
	<g>
		<g>
			<path class="st3" d="M68.7,19.9c-1.6,0-2.9,1.3-2.9,2.9s1.3,2.9,2.9,2.9s2.9-1.3,2.9-2.9S70.4,19.9,68.7,19.9z M68.7,24.3
				c-0.8,0-1.5-0.7-1.5-1.5s0.7-1.5,1.5-1.5s1.5,0.7,1.5,1.5S69.5,24.3,68.7,24.3z"/>
		</g>
	</g>
	<g>
		<g>
			<path class="st3" d="M74.7,20.4l-1.3-1.3c-0.2-0.2-0.2-0.4-0.2-0.6c0-1.3-1-2.3-2.3-2.3h-2.9c-0.6,0-1.2,0.2-1.6,0.7l-2.8,2.7
				c-0.4,0.4-0.7,1-0.7,1.6v3.1c0,0.6,0.2,1.2,0.7,1.6l1.3,1.3c0.2,0.2,0.2,0.4,0.2,0.6c0,1.3,1,2.3,2.3,2.3h1.5
				c0.6,0,1.2-0.2,1.6-0.7l2-2c0.2-0.2,0.4-0.2,0.6-0.2c1.3,0,2.3-1,2.3-2.3V22C75.3,21.4,75.1,20.8,74.7,20.4z M73.9,24.9
				c0,0.5-0.4,0.8-0.8,0.8c-0.6,0-1.2,0.2-1.6,0.7l-2,2c-0.2,0.2-0.4,0.2-0.6,0.2h-1.5c-0.5,0-0.8-0.4-0.8-0.8
				c0-0.6-0.2-1.2-0.7-1.6l-1.3-1.3c-0.2-0.2-0.2-0.4-0.2-0.6v-3.1c0-0.2,0.1-0.4,0.2-0.6l2.8-2.7c0.2-0.2,0.4-0.2,0.6-0.2h2.9
				c0.5,0,0.8,0.4,0.8,0.8c0,0.6,0.2,1.2,0.7,1.6l1.3,1.3c0.2,0.2,0.2,0.4,0.2,0.6L73.9,24.9L73.9,24.9z"/>
		</g>
	</g>
	<g>
		<g>
			<path class="st3" d="M81.7,26.7l-2.9-2.9c-0.3-0.3-0.8-0.3-1,0c-0.1,0.1-0.2,0.3-0.2,0.5v1.5c0,0.4-0.3,0.7-0.7,0.7
				c-1.2,0-2.2,1-2.2,2.2c0,0.4-0.3,0.7-0.7,0.7c-1.2,0-2.2,1-2.2,2.2c0,0.4-0.3,0.7-0.7,0.7h-1.5c-0.4,0-0.7,0.3-0.7,0.7
				c0,0.2,0.1,0.4,0.2,0.5l2.9,2.9c0.1,0.1,0.3,0.2,0.5,0.2h1.5c1.2,0,2.2-1,2.2-2.2c0-0.4,0.3-0.7,0.7-0.7c1.2,0,2.2-1,2.2-2.2
				c0-0.4,0.3-0.7,0.7-0.7c1.2,0,2.2-1,2.2-2.2v-1.5C81.9,27,81.9,26.8,81.7,26.7z M80.5,28.6c0,0.4-0.3,0.7-0.7,0.7
				c-1.2,0-2.2,1-2.2,2.2c0,0.4-0.3,0.7-0.7,0.7c-1.2,0-2.2,1-2.2,2.2c0,0.4-0.3,0.7-0.7,0.7h-1.2l-1.5-1.5c1.1-0.1,1.9-1.1,1.9-2.2
				c0-0.4,0.3-0.7,0.7-0.7c1.2,0,2.2-1,2.2-2.2c0-0.4,0.3-0.7,0.7-0.7c1.1,0,2-0.8,2.2-1.9l1.5,1.5V28.6z"/>
		</g>
	</g>
	<g>
		<g>
			<path class="st3" d="M85.5,21l-0.1-0.1l-3.7-3.6l-3.1-3c-1.1-1.1-2.9-1.1-4,0c-1.1,1.1-1.1,2.9,0,3.9l0.1,0.1l3.7,3.6l3.1,3
				c1.1,1.1,2.9,1.1,4,0C86.6,23.8,86.6,22.1,85.5,21z M75.8,15.1c0.2-0.2,0.5-0.3,0.9-0.3h0c0.4,0,0.7,0.1,0.9,0.4l1.8,1.8h-3.8
				C75.2,16.4,75.2,15.6,75.8,15.1z M77.1,18.4h3.8l2.2,2.2h-3.8L77.1,18.4z M84.4,24c-0.2,0.2-0.5,0.3-0.9,0.3h0
				c-0.4,0-0.7-0.1-0.9-0.4l-1.8-1.8h3.8C85,22.6,85,23.5,84.4,24z"/>
		</g>
	</g>
	<g>
		<g>
			<path class="st3" d="M58.5,7.5v5.8H57V7.5h-1.5v5.8h-1.5V7.5h-1.5V17c0,1.1,0.5,2.2,1.5,2.9v20.4c0,1.2,1,2.2,2.2,2.2
				s2.2-1,2.2-2.2V19.9c0.9-0.7,1.5-1.8,1.5-2.9V7.5H58.5z M57,40.3c0,0.4-0.3,0.7-0.7,0.7s-0.7-0.3-0.7-0.7V20.6H57V40.3z M58.5,17
				c0,1.2-1,2.2-2.2,2.2s-2.2-1-2.2-2.2v-2.2h4.4V17z"/>
		</g>
	</g>
</g>
<g id="accommodation" class="st4">
	<g class="st5">
		<g>
			<g>
				<path class="st3" d="M44.9,31.8v7.5h3.8V28H5.1V12.7c0-0.5-0.2-0.9-0.6-1.3c-0.4-0.4-0.8-0.6-1.3-0.6s-1,0.2-1.3,0.6
					s-0.6,0.8-0.6,1.3v26.6h3.8v-7.5H44.9z"/>
				<path class="st3" d="M11,20.3c1,0,1.8-0.3,2.5-1c0.7-0.7,1.1-1.5,1.1-2.4c0-0.9-0.4-1.8-1.1-2.4c-0.7-0.7-1.5-1-2.5-1
					s-1.8,0.3-2.5,1s-1,1.5-1,2.4s0.3,1.8,1,2.4C9.3,20,10.1,20.3,11,20.3z"/>
				<path class="st3" d="M48.8,25.2v-4.6c0-0.7-0.3-1.3-0.8-1.8c-0.5-0.5-1.2-0.7-2-0.9l-27.6-2.6h-0.2c-0.5,0-0.9,0.2-1.3,0.5
					c-0.3,0.3-0.5,0.7-0.5,1.2v5.3H9.4c-1.2,0-1.8,0.5-1.8,1.4s0.6,1.4,1.8,1.4H48.8z"/>
			</g>
		</g>
	</g>
</g>
<g id="bed">
	<g>
		<g>
			<ellipse class="st2" cx="9.3" cy="20.4" rx="4.4" ry="4.3"/>
		</g>
	</g>
	<g>
		<g>
			<path class="st2" d="M43.7,16.2H18.8c-1.2,0-3.2,0.5-3.2,3.5v4.7h31.3v-4.7C46.9,16.7,44.9,16.2,43.7,16.2z"/>
		</g>
	</g>
	<g>
		<g>
			<polygon class="st2" points="8.9,25.5 4.1,25.5 4.1,9 1,9 1,41 4.1,41 4.1,32.7 45.9,32.7 45.9,41 49,41 49,25.5 			"/>
		</g>
	</g>
</g>
</svg>
