<?xml version="1.0" standalone="no"?>
<!DOCTYPE svg PUBLIC "-//W3C//DTD SVG 20010904//EN"
 "http://www.w3.org/TR/2001/REC-SVG-20010904/DTD/svg10.dtd">
<svg version="1.0" xmlns="http://www.w3.org/2000/svg"
 width="700.000000pt" height="700.000000pt" viewBox="0 0 700.000000 700.000000"
 preserveAspectRatio="xMidYMid meet">
<metadata>
Created by potrace 1.11, written by Peter Selinger 2001-2013
</metadata>
<g transform="translate(0.000000,700.000000) scale(0.100000,-0.100000)"
fill="#000000" stroke="none">
<path d="M1762 3500 l3 -2215 265 -1 c146 0 270 1 275 3 7 2 10 586 9 1736 0
952 2 1736 4 1740 2 5 201 -287 441 -650 815 -1227 1194 -1797 1513 -2276 175
-262 318 -481 318 -486 0 -5 3 -11 8 -13 4 -2 14 -14 23 -28 l16 -25 297 0
c164 0 300 3 303 8 7 11 7 4402 0 4413 -3 5 -128 9 -279 9 l-273 0 -2 -1738
c-1 -956 -3 -1740 -5 -1743 -2 -2 -87 121 -188 274 -101 152 -501 754 -889
1337 -387 583 -823 1240 -969 1460 -146 220 -267 402 -269 405 -3 3 -139 5
-304 5 l-299 0 2 -2215z"/>
</g>
</svg>
