<?xml version="1.0" standalone="no"?>
<!DOCTYPE svg PUBLIC "-//W3C//DTD SVG 20010904//EN"
 "http://www.w3.org/TR/2001/REC-SVG-20010904/DTD/svg10.dtd">
<svg version="1.0" xmlns="http://www.w3.org/2000/svg"
 width="700.000000pt" height="700.000000pt" viewBox="0 0 700.000000 700.000000"
 preserveAspectRatio="xMidYMid meet">
<metadata>
Created by potrace 1.11, written by Peter Selinger 2001-2013
</metadata>
<g transform="translate(0.000000,700.000000) scale(0.100000,-0.100000)"
fill="#000000" stroke="none">
<path d="M5470 6994 c-58 -22 -100 -47 -130 -77 -47 -47 -48 -49 -101 -152
-26 -50 -76 -146 -112 -215 -35 -69 -95 -183 -132 -255 -217 -418 -320 -616
-395 -760 -129 -246 -181 -347 -260 -500 -111 -215 -203 -393 -255 -490 -23
-44 -77 -147 -120 -230 -43 -82 -101 -195 -130 -250 -92 -175 -218 -419 -240
-463 l-21 -44 -71 134 c-39 73 -97 183 -128 243 -31 61 -89 171 -127 245 -39
74 -90 171 -113 215 -23 44 -77 148 -120 230 -142 274 -140 271 -215 308 -117
58 -255 20 -346 -95 -14 -18 -102 -184 -341 -648 -47 -91 -93 -178 -103 -195
-10 -16 -70 -133 -135 -260 -65 -126 -121 -234 -125 -240 -4 -5 -51 -95 -105
-200 -54 -104 -121 -235 -150 -290 -29 -55 -83 -158 -120 -230 -100 -191 -181
-347 -240 -460 -29 -55 -83 -158 -120 -230 -37 -71 -93 -179 -125 -240 -92
-176 -192 -369 -270 -520 -40 -77 -94 -180 -120 -230 -26 -49 -78 -148 -115
-220 -282 -542 -266 -508 -272 -575 -11 -113 49 -215 155 -267 47 -23 70 -28
127 -27 136 1 201 58 312 274 41 80 131 255 200 390 69 135 158 308 198 385
40 77 114 221 165 320 51 99 123 239 160 310 37 72 95 185 130 252 l63 123 74
-78 c41 -42 107 -112 148 -154 81 -85 111 -103 172 -107 46 -3 118 25 144 55
9 10 115 174 234 364 120 190 230 358 244 374 53 58 141 72 218 35 49 -23 63
-41 123 -154 24 -44 58 -109 78 -145 40 -74 91 -170 152 -285 24 -44 55 -102
70 -130 15 -27 51 -95 80 -150 29 -55 61 -113 70 -130 10 -16 41 -75 70 -130
68 -129 132 -249 189 -355 26 -47 52 -96 59 -110 24 -47 79 -75 146 -75 61 0
62 1 166 79 58 44 122 93 143 110 22 17 41 26 46 20 4 -5 49 -88 98 -184 50
-96 109 -209 130 -250 22 -41 75 -142 118 -225 43 -82 95 -181 115 -219 69
-129 152 -188 266 -188 82 0 154 34 204 97 44 57 61 106 62 177 0 52 -7 72
-77 210 -43 84 -90 176 -105 203 -15 28 -58 109 -95 180 -37 72 -91 175 -120
230 -29 55 -81 154 -115 220 -34 66 -84 161 -110 210 -26 50 -76 144 -110 210
-69 132 -144 276 -225 430 -29 55 -88 168 -131 250 -43 83 -109 209 -146 280
-38 72 -80 153 -94 182 l-26 52 107 208 c59 114 136 262 170 328 35 66 103
199 153 295 49 96 129 252 177 345 49 94 107 207 130 251 l42 81 101 -71 c294
-206 316 -220 346 -221 38 -2 71 9 95 32 17 17 73 110 144 243 16 30 35 64 42
75 6 11 26 45 43 75 182 327 245 438 260 453 32 31 76 37 119 16 33 -16 45
-32 80 -106 23 -49 76 -159 117 -245 43 -90 84 -161 95 -167 11 -6 39 -11 64
-11 35 0 55 8 101 40 31 22 58 40 60 40 1 0 20 -34 41 -75 63 -122 104 -153
216 -159 68 -4 124 10 180 47 81 52 123 139 122 251 -1 64 -17 100 -229 506
-42 80 -121 233 -176 340 -55 107 -120 231 -143 275 -23 44 -81 154 -127 245
-112 216 -217 419 -288 555 -31 61 -79 152 -105 203 -73 144 -124 181 -259
188 -44 2 -88 1 -96 -2z"/>
</g>
</svg>
