<?xml version="1.0" encoding="utf-8"?>
<!-- Generator: Adobe Illustrator 19.1.0, SVG Export Plug-In . SVG Version: 6.00 Build 0)  -->
<svg version="1.1" id="Layer_1" xmlns="http://www.w3.org/2000/svg" xmlns:xlink="http://www.w3.org/1999/xlink" x="0px" y="0px"
	 viewBox="0 0 1920 1080" style="enable-background:new 0 0 1920 1080;" xml:space="preserve">
<style type="text/css">
	.st0{clip-path:url(#SVGID_2_);fill:#5FB0E5;}
	.st1{clip-path:url(#SVGID_4_);fill:#E1EEF9;}
	.st2{clip-path:url(#SVGID_6_);fill:#E1EEF9;}
	.st3{clip-path:url(#SVGID_8_);fill:#E1EEF9;}
	.st4{clip-path:url(#SVGID_10_);}
	.st5{fill:#A2CBEB;}
	.st6{fill:#FFFFFF;}
	.st7{fill:#0081FF;}
	.st8{display:none;clip-path:url(#SVGID_12_);}
	.st9{display:inline;fill:#A2CBEB;}
	.st10{display:inline;fill:#FFFFFF;}
	.st11{display:none;clip-path:url(#SVGID_14_);}
	.st12{display:none;clip-path:url(#SVGID_16_);}
	.st13{display:inline;fill:#E5E5E5;}
	.st14{display:inline;}
	.st15{fill:#0081FF;stroke:#0081FF;stroke-linecap:round;stroke-linejoin:round;stroke-miterlimit:10;}
	.st16{clip-path:url(#SVGID_20_);fill:#FFFFFF;}
	.st17{display:none;clip-path:url(#SVGID_22_);fill:#9BC82D;}
	.st18{clip-path:url(#SVGID_24_);fill:#FFFFFF;}
	.st19{display:none;clip-path:url(#SVGID_26_);fill:#9BC82D;}
	.st20{clip-path:url(#SVGID_28_);fill:#FFFFFF;}
	.st21{clip-path:url(#SVGID_30_);fill:#FFFFFF;}
	.st22{clip-path:url(#SVGID_32_);fill:#FFFFFF;}
	.st23{clip-path:url(#SVGID_34_);fill:#FFFFFF;}
	.st24{clip-path:url(#SVGID_36_);}
	.st25{display:none;}
	.st26{fill:#306C9E;}
	.st27{fill:#E5E5EA;}
	.st28{fill:#9AD2FC;}
	.st29{clip-path:url(#SVGID_38_);fill:#FFFFFF;}
	.st30{clip-path:url(#SVGID_40_);fill:#FFFFFF;}
	.st31{fill:none;}
	.st32{enable-background:new    ;}
</style>
<g>
	<g>
		<defs>
			<rect id="SVGID_1_" width="1922" height="1086"/>
		</defs>
		<clipPath id="SVGID_2_">
			<use xlink:href="#SVGID_1_"  style="overflow:visible;"/>
		</clipPath>
		<rect class="st0" width="1923" height="1081"/>
	</g>
	<g>
		<defs>
			<rect id="SVGID_3_" width="1922" height="1086"/>
		</defs>
		<clipPath id="SVGID_4_">
			<use xlink:href="#SVGID_3_"  style="overflow:visible;"/>
		</clipPath>
		<polygon id="mountain_color_2_" class="st1" points="66.6,916.7 145,751.6 275.7,791.1 392.3,1007.6 		"/>
	</g>
	<g>
		<defs>
			<rect id="SVGID_5_" width="1922" height="1086"/>
		</defs>
		<clipPath id="SVGID_6_">
			<use xlink:href="#SVGID_5_"  style="overflow:visible;"/>
		</clipPath>
		<polygon id="mountain_color_1_" class="st2" points="335.6,822.2 362.7,1004.2 576.8,1060.4 412.9,715.1 		"/>
	</g>
	<g>
		<defs>
			<rect id="SVGID_7_" width="1922" height="1086"/>
		</defs>
		<clipPath id="SVGID_8_">
			<use xlink:href="#SVGID_7_"  style="overflow:visible;"/>
		</clipPath>
		<polygon id="mountain_color" class="st3" points="1453.7,996 1523.7,852.6 1640.1,886.8 1743.8,1075 		"/>
	</g>
	<g>
		<defs>
			<rect id="SVGID_9_" width="1922" height="1086"/>
		</defs>
		<clipPath id="SVGID_10_">
			<use xlink:href="#SVGID_9_"  style="overflow:visible;"/>
		</clipPath>
		<g id="Logo_2" class="st4">
			<path class="st5" d="M408.6,707.7l80.4,146.6c1.4,4.2,1.4,8.4-2.9,11.3L439.6,898c-4.2,2.9-9.8,1.4-12.7-2.9l-33.8-60.6
				c-2.9-7.1-12.7-7.1-15.5,0L362,866.9c-1.4,4.2-8.4,5.6-12.7,2.9l-22.6-15.5c-4.2-2.9-4.2-7.1-2.9-11.3l70.4-136.8
				C397.3,699.3,407.1,699.3,408.6,707.7z"/>
			<path class="st5" d="M214.7,660.5l111.3,215.6c2.9,5.6,1.4,12.7-4.2,16.9l-24,18.2c-7.1,5.6-16.9,2.9-19.8-4.2l-62-115.5
				c-4.2-8.4-18.2-9.8-24-1.4l-33.8,53.5c-4.2,7.1-15.5,8.4-21.1,2.9l-26.8-28.2c-2.9-4.2-4.2-9.8-1.4-15.5l81.7-143.7
				C194.9,650.7,208.9,650.7,214.7,660.5z"/>
			<path class="st6" d="M397.3,737.3l-28.2,52.2c0,1.4,0,2.9,1.4,4.2l16.9,11.3c1.4,1.4,2.9,0,4.2-1.4l12.7-22.6
				c1.4-1.4,2.9-1.4,4.2-1.4l12.7,5.6c2.9,1.4,5.6-1.4,4.2-4.2l-22.6-42.2C401.5,735.9,398.6,735.9,397.3,737.3z"/>
			<path class="st6" d="M192.1,667.6l-24,46.4c-5.6,12.7,5.6,25.3,18.2,19.8l0,0c2.9-1.4,5.6-1.4,8.4,1.4l11.3,8.4
				c4.2,2.9,8.4,1.4,11.3-1.4l14-15.5c2.9-2.9,2.9-7.1,1.4-9.8L207.4,669C204.7,661.9,194.9,661.9,192.1,667.6z"/>
			<path class="st7" d="M531.1,995.1l-115.5-224c-7.1-12.7-18.2-12.7-25.3,0l-53.5,104.3c-1.4,2.9-5.6,7.1-9.8,7.1
				c-21.1,4.2-32.4-15.5-25.3-31.1l81.6-158c2.9-7.1,9.8-11.4,18.2-11.4h2.9c7.1,0,14,4.3,18.2,11.4l146.6,282
				c5.6,9.8,21.7,42.4,11.9,48c-2.9,1.4-14.9,9.2-17.8,9.2C555,1032.5,535.4,1002.2,531.1,995.1z"/>
			<path class="st7" d="M20.2,981.8c-2.9,0-7.1-1.4-9.8-2.9c-9.8-5.6-14-18.2-8.4-28.2L178,612.6c4.2-7.1,11.3-11.3,18.2-11.3l0,0
				c8.4,0,15.5,4.2,18.2,11.3l176.1,336.8c5.6,9.8,17.8,47.6,8,53.2S359.7,979,354,969.2L208.8,691.6c-5.6-9.8-19.8-9.8-25.3,0
				L39.8,970.5C35.7,977.6,28.6,981.8,20.2,981.8z"/>
			<path class="st5" d="M1599.5,791.6l91.5,177.3c2.3,4.7,1.2,10.4-3.5,13.9l-19.8,15.1c-5.7,4.7-13.9,2.3-16.3-3.5l-51-95
				c-3.5-6.9-15.1-8.1-19.8-1.2l-27.9,44c-3.5,5.7-12.8,6.9-17.3,2.3l-22-23.2c-2.3-3.5-3.5-8.1-1.2-12.8l67.2-118.2
				C1583.2,783.4,1594.8,783.4,1599.5,791.6z"/>
			<path class="st6" d="M1581,797.4l-19.8,38.3c-4.7,10.4,4.7,20.8,15.1,16.3l0,0c2.3-1.2,4.7-1.2,6.9,1.2l9.3,6.9
				c3.5,2.3,6.9,1.2,9.3-1.2l11.6-12.8c2.3-2.3,2.3-5.7,1.2-8.1l-20.8-39.4C1591.4,792.8,1583.2,792.8,1581,797.4z"/>
			<path class="st7" d="M1442.7,1055.9c-2.3,0-5.7-1.2-8.1-2.3c-8.1-4.7-11.6-15.1-6.9-23.2l144.9-278.2c3.5-5.7,9.3-9.3,15.1-9.3
				l0,0c6.9,0,12.8,3.5,15.1,9.3l144.9,277.1c4.7,8.1,1.2,18.5-6.9,23.2c-8.1,4.7-18.5,1.2-23.2-6.9L1598.2,817
				c-4.7-8.1-16.3-8.1-20.8,0l-118.2,229.5C1455.5,1052.4,1449.6,1055.9,1442.7,1055.9z"/>
		</g>
	</g>
	<g>
		<defs>
			<rect id="SVGID_11_" width="1922" height="1086"/>
		</defs>
		<clipPath id="SVGID_12_">
			<use xlink:href="#SVGID_11_"  style="overflow:visible;"/>
		</clipPath>
		<g class="st8">
			<path class="st9" d="M212.7,759.9L52.4,965.8c-6.9,8.9-0.6,22.2,10.7,22.2h320.4c11.3,0,17.6-13.1,10.7-22.2L234.3,760
				C228.7,752.9,218.1,752.8,212.7,759.9z"/>
			<path class="st10" d="M226.3,750.7c-1.7-2.1-4.8-2.1-6.5,0c-2.6,3.3-5.3,6.8-7.8,10.1c-10.4,13.3-20.7,26.7-31.1,40
				c-4.8,6.2-9.6,12.4-14.3,18.5c-1.7,2.3-3.9,4.4-5.3,6.9c-1.5,2.7-2.3,3.3,1.1,4.7c2.3,0.9,5.3,0.2,7.1-1.1
				c0.3-0.2,0.6-0.5,0.9-0.6c3.6-3.2,9.5-2.3,11.3,2.1c0.3,0.6,0.8,1.4,1.7,2c3.2,2.1,8.3,2.3,11.8,2c5.1-0.3,10.1-1.8,14.6-4.1
				c4.1-2.1,8.3-5,12.8-4.2c2.9,0.5,5.3,2.3,7.7,3.8c4.5,2.7,10.6,5,15.4,6.9c2.6,0.9,5.4,1.2,7.8,0.2c4.8-2.1,6.5-8.4,11.3-10.6
				c4.5-2.1,9.5,0.6,14,1.4c3.6,0.6,8.6,0.9,5.6-4.2c-2.6-4.4-6.5-8.3-9.5-12.2c-9.6-12.5-19.4-25-29.1-37.5
				C244.5,773.2,232.2,758.4,226.3,750.7z"/>
		</g>
	</g>
	<g>
		<defs>
			<rect id="SVGID_13_" width="1922" height="1086"/>
		</defs>
		<clipPath id="SVGID_14_">
			<use xlink:href="#SVGID_13_"  style="overflow:visible;"/>
		</clipPath>
		<g class="st11">
			<polygon class="st9" points="473.5,791.3 261.3,1064 685.7,1064 			"/>
			<path class="st10" d="M473.5,790.8c-4.4,5.6-8.6,11-13,16.6c-11.8,15.1-23.4,30-35.1,45.1c-5.4,6.9-10.9,13.9-16.3,20.8
				c-2,2.6-4.5,5-6,7.7c-1.7,3-2.6,3.8,1.2,5.3c2.4,1.1,5.9,0.3,8-1.2c2-1.4,3.3-3.5,5.3-4.8c2-1.4,5-1.8,6.5,0
				c2.6,3.2,0,6.2,3.8,8.6c3.5,2.4,9.3,2.4,13.4,2.3c5.7-0.5,11.3-2,16.4-4.5c4.7-2.3,9.3-5.6,14.3-4.7c3.2,0.5,5.9,2.6,8.7,4.2
				c5.1,3.2,11.9,5.7,17.3,7.7c2.9,1.1,6.2,1.4,8.9,0.2c5.4-2.4,7.4-9.5,12.8-11.9c5.1-2.3,10.7,0.6,15.8,1.7
				c4.1,0.8,9.6,1.1,6.3-4.7c-2.9-4.8-7.2-9.3-10.7-13.7c-11-14-22-28.2-32.9-42.2C496.9,820.8,472.5,792.2,473.5,790.8z"/>
		</g>
	</g>
	<g>
		<defs>
			<rect id="SVGID_15_" width="1922" height="1086"/>
		</defs>
		<clipPath id="SVGID_16_">
			<use xlink:href="#SVGID_15_"  style="overflow:visible;"/>
		</clipPath>
		<g class="st12">
			<polygon class="st13" points="1581.6,737.1 1301,1084 1841.1,1084 			"/>
			<g class="st14">
				<path class="st15" d="M35.7,981.7c27.6-33.5,55.2-66.8,82.8-100.3c23.8-28.9,47.6-57.7,71.5-86.7c7.8-9.5,15.5-18.8,23.4-28.3
					c2.4-3,5-6,7.4-9c1.1-1.4,3.2-3,3.8-4.7c0.2-0.2,0.3-0.5,0.5-0.6c-1.7,0.2-3.3,0.3-5,0.5c9.5,11.5,19,23.1,28.5,34.5
					c22.8,27.6,45.5,55.3,68.5,82.9c27.6,33.5,55.2,66.8,82.8,100.3c23.8,28.9,47.6,57.7,71.5,86.7c7.8,9.5,2.9,3.6,10.7,13
					c3.6,4.4,1.7,2.3,6,6.2c0.2,0.2,1.8-0.8,2-0.6c3.6,4.5-22.9-23.8-3.9-0.8l6.8-0.5c-9.5-11.5,0,0-9.5-11.5
					c-22.8-27.6-45.5-55.2-68.5-82.9c-27.6-33.5-55.2-66.8-82.8-100.3c-23.8-28.9-47.6-57.7-71.5-86.7c-7.8-9.5-15.5-18.8-23.4-28.3
					c-3.6-4.4-6.9-9.8-11.3-13.7c-0.2-0.2-0.3-0.5-0.5-0.6c-1.1-1.4-4.1-0.8-5,0.5c-9.5,11.5-19,23.1-28.5,34.5
					c-22.8,27.6-45.5,55.2-68.5,82.9c-27.6,33.5-55.2,66.9-82.8,100.3"/>
			</g>
			<polygon class="st13" points="1590.9,737.1 1320.9,1084 1861,1084 			"/>
			<path class="st10" d="M1590.9,736.8c-5.4,7.1-11,14-16.4,21.1c-14.9,19.1-29.7,38.3-44.6,57.3c-6.9,8.9-13.7,17.6-20.7,26.5
				c-2.4,3.2-5.7,6.3-7.7,9.8c-2.1,3.8-3.3,4.8,1.5,6.6c3.2,1.2,7.5,0.3,10.1-1.5c2.6-1.8,4.2-4.4,6.8-6.2c2.6-1.8,6.3-2.3,8.3,0
				c3.3,4.1,0,7.8,4.8,11c4.5,3,11.9,3.2,17,2.9c7.2-0.5,14.5-2.6,21-5.7c5.9-2.9,11.9-7.1,18.4-6c4.1,0.6,7.5,3.3,11,5.4
				c6.5,3.9,15.1,7.2,22.2,9.8c3.6,1.4,7.8,1.7,11.3,0.2c6.8-3,9.3-12.1,16.3-15.2c6.6-3,13.6,0.8,20.1,2c5.1,0.9,12.4,1.4,8-6
				c-3.6-6.2-9.2-11.8-13.6-17.5c-14-17.9-27.9-35.9-41.9-53.8C1620.6,775,1589.7,738.3,1590.9,736.8z"/>
			<g class="st14">
				<path class="st7" d="M367.3,930.4c16.9-22,26.1-33.8,43-55.8c14.6-19,29.1-38,43.7-57.1c4.8-6.2,9.5-12.5,14.3-18.7
					c1.5-2,3-3.9,4.5-5.9c0.8-0.9,2-2,2.4-3c0-0.2,0.2-0.3,0.3-0.5c-1.1,0.2-2.1,0.2-3,0.3c5.9,7.5,11.6,15.2,17.5,22.8
					c13.9,18.2,27.9,36.5,41.8,54.6c16.9,22,33.8,44,50.7,66c14.6,19,29.1,38,43.7,57.1c4.8,6.2,9.5,12.5,14.3,18.7
					c2.3,2.9,4.2,6.5,6.9,9c0.2,0.2,0.2,0.3,0.3,0.5c0.9,1.2,4.2-0.2,3.2-1.5l0,0c-5.9-7.5-11.6-15.2-17.5-22.8
					c-13.9-18.2-27.9-36.5-41.8-54.6c-16.9-22-33.8-44-50.7-66c-14.6-19-29.1-38-43.7-57.1c-4.8-6.2-9.5-12.5-14.3-18.7
					c-2.3-2.9-4.2-6.5-6.9-9c-0.2-0.2-0.2-0.3-0.3-0.5c-0.6-0.9-2.4-0.5-3,0.3c-5.9,7.5-11.6,15.2-17.5,22.8
					c-13.9,18.2-27.9,36.5-41.8,54.6c-16.9,22-31.1,40.6-47.9,62.6"/>
			</g>
			<g class="st14">
				<path class="st7" d="M1499,851.3c-2.9,4.8-2,7.8,4.1,9.3c6.5,1.5,11.5-2,16-6c2.7-2.6,2.6-3.5,5.7-1.7c3.2,1.7,1.8,0.6,2.6,2.6
					c0.6,1.7,0.2,3.2,0.9,4.8c1.4,2.6,4.1,4.1,6.8,5c6.8,2.3,14.6,1.8,21.6,0.5c4.5-0.9,8.9-2.3,13.1-4.1c4.5-2,8.7-5,13.4-6.3
					c6-1.8,10.4,1.5,15.4,4.5c3.9,2.4,8,4.4,12.2,6c7.1,3,15.1,7.1,22.9,4.5c6.6-2.1,9.5-8.1,14-12.8c7.8-8.1,18.7,0.8,28.2,0
					c6-0.5,7.7-4.5,5.1-9.6c-1.1-2.3-6.3-0.2-5,2.4c3,5.9-6.9,2.3-9.5,1.5c-4.1-1.1-8.1-2.3-12.4-1.8c-7.1,0.8-11,5.7-15.1,10.9
					c-1.4,1.7-2.6,3.5-4.4,4.7c-3.9,2.7-8,1.5-12.1,0c-4.8-1.7-9.5-3.6-14-5.7c-7.2-3.5-13.7-10-22.3-9.2c-8.9,0.8-16.4,7.4-24.9,10
					c-7.4,2.3-26.8,5.9-28.5-5.3c-0.9-5.9-4.7-9.5-10.9-7.7c-3.5,1.1-5.6,3.6-8.1,6c-1.4,1.7-3,2.7-5.1,3.2c-2.1,0.5-4.1,0-5.9-1.1
					c-0.3-1.2,0.8-2.4,1.4-3.6C1505.7,849.3,1500.2,849.2,1499,851.3L1499,851.3z"/>
			</g>
			<g class="st14">
				<path class="st7" d="M1863.5,1082.6c-8.9-11.5-17.9-23.1-26.8-34.5c-21.6-27.6-43-55.2-64.5-82.9c-26.1-33.5-52-66.8-78.1-100.3
					c-22.5-28.9-44.9-57.7-67.4-86.7c-7.4-9.5-14.8-18.8-22-28.3c-3.5-4.4-6.6-9.8-10.7-13.7c-0.2-0.2-0.3-0.5-0.5-0.6
					c-1.1-1.4-3.8-0.8-4.7,0.5c-8.9,11.5-17.9,23.1-26.8,34.5c-21.6,27.6-43,55.2-64.5,82.9c-26.1,33.5-52,66.8-78.1,100.3
					c-22.5,28.9-44.9,57.7-67.4,86.7c-7.4,9.5-14.8,18.8-22,28.3c-3.5,4.5-7.7,8.9-10.7,13.7c-0.2,0.2-0.3,0.5-0.5,0.6
					c-2.1,2.7,3,3.2,4.5,1.4c8.9-11.5,17.9-23.1,26.8-34.5c21.6-27.6,43-55.3,64.5-82.9c26.1-33.5,52-66.8,78.1-100.3
					c22.5-28.9,44.9-57.7,67.4-86.7c7.4-9.5,14.8-18.8,22-28.3c2.4-3,4.7-6,7.1-9c1.1-1.4,3-3,3.6-4.7c0.2-0.2,0.3-0.5,0.5-0.6
					c-1.5,0.2-3.2,0.3-4.7,0.5c8.9,11.5,17.9,23.1,26.8,34.5c21.6,27.6,43,55.2,64.5,82.9c26.1,33.5,52,66.8,78.1,100.3
					c22.5,28.9,44.9,57.7,67.4,86.7c7.4,9.5,14.8,18.8,22,28.3c3.5,4.4,6.6,9.8,10.7,13.7c0.2,0.2,0.3,0.5,0.5,0.6
					C1859.9,1086.6,1865,1084.7,1863.5,1082.6L1863.5,1082.6z"/>
			</g>
			<g class="st14">
				<path class="st7" d="M415,874c-1.8,3.2-1.4,5.3,2.6,6.2c4.2,1.1,7.5-1.2,10.6-4.1c1.8-1.7,1.7-2.3,3.8-1.1
					c2.1,1.1,1.2,0.3,1.7,1.7c0.3,1.1,0.2,2.1,0.6,3.2c0.9,1.7,2.7,2.7,4.5,3.3c4.5,1.5,9.6,1.2,14.2,0.3c3-0.6,5.9-1.5,8.6-2.7
					c3-1.4,5.7-3.3,8.9-4.2c3.9-1.2,6.9,1.1,10.1,3c2.6,1.5,5.3,2.9,8.1,4.1c4.7,2,10,4.7,15.1,3c4.4-1.4,6.2-5.4,9.2-8.4
					c5.1-5.4,12.4,0.5,18.5,0c4.1-0.3,5.1-3,3.3-6.3c-0.8-1.5-4.1-0.2-3.3,1.7c2,3.9-4.5,1.5-6.2,1.1c-2.7-0.8-5.3-1.5-8.1-1.2
					c-4.7,0.5-7.2,3.8-10,7.2c-0.9,1.1-1.8,2.3-2.9,3c-2.6,1.8-5.3,0.9-7.8,0c-3.2-1.1-6.2-2.4-9.2-3.8c-4.8-2.3-9-6.5-14.8-6
					c-5.9,0.5-10.9,4.8-16.4,6.5c-4.8,1.5-17.6,3.9-18.8-3.5c-0.6-3.9-3-6.2-7.2-5c-2.3,0.8-3.6,2.4-5.4,3.9c-0.9,1.1-2,1.8-3.3,2.1
					c-1.4,0.3-2.7,0-3.9-0.8c-0.3-0.8,0.5-1.7,0.9-2.4C419.4,872.7,415.8,872.5,415,874L415,874z"/>
			</g>
		</g>
	</g>
	<g>
		<defs>
			<rect id="SVGID_17_" width="1922" height="1086"/>
		</defs>
		<clipPath id="SVGID_18_">
			<use xlink:href="#SVGID_17_"  style="overflow:visible;"/>
		</clipPath>
	</g>
	<g>
		<defs>
			<rect id="SVGID_19_" width="1922" height="1086"/>
		</defs>
		<clipPath id="SVGID_20_">
			<use xlink:href="#SVGID_19_"  style="overflow:visible;"/>
		</clipPath>
		<path id="XMLID_2350_" class="st16" d="M52.6,667h197.5c-10.3,0-16.9-9-25.6-14.4c-8.6-5.6-17.8-10.6-28-11.8
			c-10.1-1.2-21.4,2.3-27,10.9c0.9-5,2-10.8-0.3-15.3c-2.4-4.4-6.8-7.8-11.8-8.4s-10.4,2-12.5,6.6c4.5-5.7,6-14.5,3.6-21.4
			c-2.4-6.9-7.8-12.5-14-16.3c-6.5-3.9-14.3-6.2-21.9-4.7c-7.5,1.4-14.5,6.9-16.4,14.2c-0.8-2.6-3.3-3.6-5.9-2.9s-4.4,3-5.1,5.6
			c-0.9,2.4-0.9,5.1-1.1,7.8c-3.5-6.6-11.9-9.8-19-7.2c-7.1,2.6-12.1,9.6-12.8,17.2c-0.9,7.5,2,15.1,6.8,21c-3.6-2-6.8-5.3-10.9-5.9
			s-8.6,0.3-11.2,3.5c-3.8,4.4-2.4,11.2,1.5,15.6C42.5,664.8,46.9,667,52.6,667z"/>
	</g>
	<g>
		<defs>
			<rect id="SVGID_21_" width="1922" height="1086"/>
		</defs>
		<clipPath id="SVGID_22_">
			<use xlink:href="#SVGID_21_"  style="overflow:visible;"/>
		</clipPath>
		<path class="st17" d="M323.7,906.1c-65.6,0-90.3-215.5-164.2-215.5C98.3,690.6,30.7,985,9.5,1085h577
			c-27.4-93-94.4-304.7-137.1-304.7C394.8,780.5,389.3,906.1,323.7,906.1z"/>
	</g>
	<g>
		<defs>
			<rect id="SVGID_23_" width="1922" height="1086"/>
		</defs>
		<clipPath id="SVGID_24_">
			<use xlink:href="#SVGID_23_"  style="overflow:visible;"/>
		</clipPath>
		<path class="st18" d="M702.5,1061.6c-2.7-17.3-29.4-24.1-41.5-11.1c-2.4-18.8-15.2-36.2-32.6-44.2c-17.3-8-38.6-6.9-54.6,3.5
			c-4.7-21.9-28.2-37.7-50.2-33.9c-22,3.8-38.9,26.5-36,48.7c-3.8-5.9-11.2-9-17.9-8c-6.9,1.1-12.8,1.5-14.8,8.3
			c-7.7-31.2-31.7-57.9-61.8-69.1c-30.2-11-66.8-7.8-92.9,11.2c-4.5-16.7-16.9-31.2-32.7-38.1c-15.8-6.9-35-6.3-50.4,1.7
			c-6.3-17.8-34.1-22-51.6-14.6c2.9-25.5-8-52.2-27.9-68.3s-46.9-19.8-71.2-11.8C54.7,804.9,30,779.7,0,766v315h759.3
			C747.2,1063,722.5,1051.8,702.5,1061.6z"/>
	</g>
	<g>
		<defs>
			<rect id="SVGID_25_" width="1922" height="1086"/>
		</defs>
		<clipPath id="SVGID_26_">
			<use xlink:href="#SVGID_25_"  style="overflow:visible;"/>
		</clipPath>
		<path class="st19" d="M1377.9,1047c0,0,128.2-279.4,210.2-276.8s197.4,276.8,197.4,276.8H1377.9z"/>
	</g>
	<g>
		<defs>
			<rect id="SVGID_27_" x="-1" y="-4" width="1922" height="1085"/>
		</defs>
		<clipPath id="SVGID_28_">
			<use xlink:href="#SVGID_27_"  style="overflow:visible;"/>
		</clipPath>
		<path class="st20" d="M1219.4,1061.6c2.7-17.3,29.4-24.1,41.5-11.1c2.4-18.8,15.2-36.2,32.6-44.2c17.3-8,38.6-6.9,54.6,3.5
			c4.7-21.9,28.2-37.7,50.2-33.9c22,3.8,38.9,26.5,36,48.7c3.8-5.9,11.2-9,17.9-8c6.9,1.1,12.8,1.5,14.8,8.3
			c7.7-31.2,31.7-57.9,61.8-69.1c30.2-11,66.8-7.8,92.9,11.2c4.5-16.7,16.9-31.2,32.7-38.1c15.8-6.9,35-6.3,50.4,1.7
			c6.3-17.8,34.1-22,51.6-14.6c-2.9-25.5,8-52.2,27.9-68.3s47-19.8,71.2-11.8c11.8-30.9,36.6-56.1,66.6-69.8V1081h-759.6
			C1174.6,1063,1199.5,1051.8,1219.4,1061.6z"/>
	</g>
	<g>
		<defs>
			<rect id="SVGID_29_" width="1922" height="1086"/>
		</defs>
		<clipPath id="SVGID_30_">
			<use xlink:href="#SVGID_29_"  style="overflow:visible;"/>
		</clipPath>
		<path id="XMLID_28_" class="st21" d="M1506.2,912h-237.8c30,0,59.7-8.2,87.1-20.3c10.9-4.7,21.6-10.4,33.3-11.8
			c11.8-1.5,25.2,2.4,30.9,12.6c5.3-5,12.7-6.5,19.8-5.1c7.1,1.5,13.3,6.5,16.1,13.1c6.3-6.3,13.4-13.7,21.9-16.7
			c8.4-2.9,18.5-2.5,25.8,2.9C1510.6,892.2,1511,904,1506.2,912z"/>
	</g>
	<g>
		<defs>
			<rect id="SVGID_31_" width="1922" height="1086"/>
		</defs>
		<clipPath id="SVGID_32_">
			<use xlink:href="#SVGID_31_"  style="overflow:visible;"/>
		</clipPath>
		<path id="XMLID_2356_" class="st22" d="M2022.7,727H1567c31.5,0,62.3-8.8,90.5-23.1c13.1-6.6,25.6-14.8,40-18.1
			c14.3-3.3,31.2-0.6,40.1,11c1.2-3.3,3.9-5.9,7.2-6.5c3.5-0.6,7.1,0.6,9.3,3.3c-1.1-7.1,2.1-14.8,8.6-17.9
			c6.5-3.2,14.8-1.7,19.8,3.5c5.3-5.7,16.1-5.3,20.5,1.2c-2.3-13.3,5.9-28.2,18.8-32.1c12.8-3.9,28,3,33.6,15.2
			c3.2-4.5,7.4-6.2,12.7-4.8c5.4,1.4,9.6,6.3,10.1,11.9c-4.5-10.9-5.6-23.8-0.6-34.5c5-10.7,14.9-19,26.4-21.3s24.1,1.8,31.8,10.7
			c10.6,12.2,10.1,30.2,9,46.3c3.8-3.3,10.1-3.8,13.7-0.3c3.6,3.5,5,8.7,4.5,13.7c-0.3,5-2.1,9.6-3.9,14.3c5.9-7.8,17-11.2,26.1-7.5
			c9,3.6,15.1,13.9,13.7,23.5c3-3.9,8.3-8.1,13.1-8.9c4.8-0.8,10.3,1.3,12.8,5.5C2027.6,716.4,2027,724,2022.7,727z"/>
	</g>
	<g>
		<defs>
			<rect id="SVGID_33_" width="1922" height="1086"/>
		</defs>
		<clipPath id="SVGID_34_">
			<use xlink:href="#SVGID_33_"  style="overflow:visible;"/>
		</clipPath>
		<path id="XMLID_2373_" class="st23" d="M510.2,909h174.6c-9.5,0-17.8-4.7-26.1-9.2c-8.3-4.5-16.6-9.7-25.9-11.2
			c-9.3-1.5-20.4,2.3-24,11c-4.5-7.8-9-15.1-15.7-21.2c-6.6-6-15.7-10.1-24.6-8.7c-6.2,1.1-11.8,4.7-15.2,9.8
			c-3.5,5.1-4.5,11.8-3.2,17.9c-5.9-2.9-10.3-6.3-16.7-7.7c-6.5-1.2-13.4-0.8-18.7,3C509.4,896.8,507.6,903,510.2,909z"/>
	</g>
	<g>
		<defs>
			<rect id="SVGID_35_" width="1922" height="1086"/>
		</defs>
		<clipPath id="SVGID_36_">
			<use xlink:href="#SVGID_35_"  style="overflow:visible;"/>
		</clipPath>
		<g class="st24">
			<g class="st25">
				<path class="st10" d="M762.9,568.9c3.6,15.5,5.4,30.2,5.4,44.1c0,13.9-1.7,29.1-5.3,44.1h-31.5l0.2,70.2
					c-8.3,2-16.6,3.3-24.7,3.9s-16,0.9-23.5,0.9c-8,0-16-0.3-24.1-0.9s-16.6-1.8-25.3-3.8l-0.2-70.3l-189.4,0.5l-10.1-17.8
					l159.5-343.5c15.5,2,30.8,5.4,45.5,10.3c14.9,5,29.2,12.8,43.3,23.4L574.7,569l59-0.2l-0.2-66.8c8.7-2,17.2-3.3,25.3-3.9
					c8.1-0.6,16.1-0.9,24.1-0.9c7.5,0,15.4,0.3,23.5,0.9s16.4,1.8,24.7,3.8l0.2,66.8L762.9,568.9z"/>
				<path class="st10" d="M1480.9,567.4c3.6,15.5,5.4,29.9,5.4,43.8c0,13.9-1.7,28.8-5.3,43.8h-31.5l0.2,70.5
					c-8.3,2-16.6,3.4-24.7,4c-8.1,0.6-16,1-23.5,1c-8,0-16-0.3-24.1-0.9c-8.1-0.6-16.6-1.8-25.3-3.8l-0.2-70.3l-189.4,0.5
					l-10.1-17.8l159.4-343.5c15.5,2,30.8,5.4,45.5,10.3c14.9,5,29.2,12.8,43.3,23.4l-108,239.1l59-0.2l-0.2-66.8
					c8.7-2,17.2-3.3,25.3-3.9c8.1-0.6,16.1-0.9,24.1-0.9c7.5,0,15.4,0.3,23.5,0.9s16.4,1.8,24.7,3.8l0.2,66.8L1480.9,567.4z"/>
			</g>
			<g id="XMLID_53_">
				<g id="XMLID_9558_">
					<path id="XMLID_8923_" class="st26" d="M784.4,237c0,0-18.2-31.8-11.5-32.9s25.9,37.1,25.9,37.1L784.4,237z"/>
					<path id="XMLID_885_" class="st7" d="M773,209.7c1.1,0.9,2,2,2.9,2.9c5,3.8,9.3,8.1,13.4,13c-4.5-7.7-9.8-16-13.7-19.1
						c-1.4-1.2-2.1-1.2-2.4-1.2c-0.3,0-0.3,0.2-0.5,0.3C772.4,206.3,772.4,207.8,773,209.7z"/>
					<path id="XMLID_4109_" class="st26" d="M817.3,248.9c0,0-4.5-9-2.4-10.4c2.1-1.4,7.7,9.3,7.7,9.3L817.3,248.9z"/>
					<path id="XMLID_4108_" class="st26" d="M774.3,245.8c-0.3,2.3-0.8,4.4-1.1,6.6c-1.1-0.5-2.7,0.5-2.9,1.7
						c-0.2,1.1,0.6,2.1,1.7,2.6c1.2,0.5,2.7,0.2,3.5-0.9c0.8-1.1,0.5-2.7-0.6-3.3c0.9-2,1.5-3.6,2.3-5.6
						C776.3,246.5,775.4,245.9,774.3,245.8z"/>
					<path id="XMLID_4112_" class="st7" d="M831.9,239c-2-0.8-10.1,4.2-14.2,6.9c-6.9-4.7-18.4-9.8-30.3-14.5
						c-21.1-8.1-23.5,2.3-21,10.3c4.1,12.4,54.4,18.4,57.4,14C823.8,255.6,834.6,239.9,831.9,239z"/>
					<path id="XMLID_160_" class="st26" d="M771.3,242.1l-3.8,1.5c7.1,8.9,38.7,14,51.3,13.3c0.3-0.3,0.8-0.6,1.1-0.9
						c-8.6-0.6-17-1.2-25.3-3.3C786.2,250.7,778.1,247.4,771.3,242.1z"/>
					<path id="XMLID_246_" class="st26" d="M775.4,241.2c1.7-2.4,2.7-5.3,2.3-8.1c-0.2-1.8-1.1-3.5-2.3-4.7
						c-10.1-0.5-11.2,7.1-9,13.3c0.5,1.5,1.7,3,3.5,4.2c0.2,0,0.3-0.2,0.5-0.2C772.4,244.9,774.2,243.2,775.4,241.2z"/>
					<path id="XMLID_15_" class="st26" d="M788.1,234c1.4,3.2,3.9,7.7,8.1,8.9c4.2,1.2,5.6-3,5.6-3L788.1,234z"/>
					<path id="XMLID_14_" class="st26" d="M816.8,257.1c3.8,0,6.2-0.5,7.2-1.4c0,0,0,0,0-0.2l-5.2-4.2
						C819.3,254.1,816.8,257.1,816.8,257.1z"/>
					<path id="XMLID_13_" class="st26" d="M809.8,256.8c-2.3-2.9-7.1-8.9-7.1-8.9l-6.2-0.2l-10.1-3.9c0,0-0.2,6-5.3,7.4
						C789.9,254.2,801,256.2,809.8,256.8z"/>
					<path id="XMLID_9290_" class="st7" d="M786.2,243.8l16.3,4.1c0,0,20.7,35.6,11.3,36.9C804.9,286,786.2,243.8,786.2,243.8z"/>
					<path id="XMLID_911_" class="st26" d="M804.8,272.8c-4.4-5.6-7.8-11.9-11.9-17.6c0-0.2-0.2-0.2-0.2-0.3
						c4.8,9.6,12.1,22.8,17.6,27.4c1.4,1.2,2.6,1.7,3.5,1.5c0.5,0,0.9-0.3,1.1-0.6C811,280.3,807.8,276.7,804.8,272.8z"/>
					<path id="XMLID_4111_" class="st7" d="M818.8,251.3l7.2,1.2C825.9,252.4,837.4,274.1,818.8,251.3z"/>
					<path id="XMLID_8922_" class="st6" d="M769.1,224.5c8.3,3.5-1.2,24.7-7.5,21.6C753.2,241.8,762.4,221.8,769.1,224.5z"/>
					<path id="XMLID_9557_" class="st6" d="M788.1,234c1.7-1.2,3.8-2.1,5.9-2.1s4.4,0.8,5.9,2.1c1.5,1.5,2.3,3.8,2,5.9
						C796.4,240.3,791.2,238.4,788.1,234z"/>
				</g>
				<path id="XMLID_9563_" class="st27" d="M789.9,234c1.5-0.8,3-1.1,4.7-1.1c-0.5,0.2-0.6,0.8-0.5,1.4c0.2,0.5,0.6,0.9,1.1,1.2
					c0.9,0.6,1.8,1.1,2.9,1.5c0.9,0.5,2,1.1,2.6,2c-3.3,0.2-6.8-0.9-9.3-3.2C790.5,235.2,789.7,234.8,789.9,234z"/>
				<path id="XMLID_9564_" class="st27" d="M766.6,242.1c2.6-3.6,3.8-6.6,4.1-11c-2.4,0.6-4.7,1.8-6.6,3.6
					C764.4,237.6,765,240,766.6,242.1z"/>
				<path id="XMLID_12_" class="st28" d="M818.2,246.1c0,0,12.7-7.1,13.6-6.5C831.8,239.4,829.4,242.6,818.2,246.1z"/>
			</g>
			<path class="st6" d="M872.5,321.9c-11.3-26.5,26.4-17.9,27-19.8c2.3-6.2,8.7-10.6,15.2-10.4c6.6,0.3,12.7,5.1,14.3,11.6
				c2.4-1.8,4.8-3.6,7.1-5.4c2.7,7.5,0.6,16.6-5.1,22.2c-5.7,5.6-13.7,6.3-21.3,5.3c-1.7,13.1-2.4,27.3-17.5,33
				c-12.2,4.7-27.6-1.7-33-13.6c-2.3-5.1-3-11.2-0.5-16.1C861.2,323.7,867.2,320.4,872.5,321.9z"/>
			<path class="st6" d="M782.6,425.9c3-5.9,9-10.4,15.5-10.6c-6.3-8.7-5.3-24.6,4.2-30.6c4.7-3,11-3.5,16.1-1.1
				c-5-7.5-5.1-18.1-0.2-25.8c7.2-11.2,28.6-18.7,39.1-8.6c0.6-8.6,6.5-16.9,15.4-18.2c8.7-1.4,17.9,5,19.9,13.6
				c2,8.6-3.6,18.2-12.1,21c10.9,9.6,0.5,15.4-2.7,23.5c-3,7.7-0.9,16.4-4.5,24.3c-3.8,8.4-12.4,14.8-21.6,15.8
				c2.3,8.6-6.6,20.7-15.4,19.1c6.9,3.6,12.2,10.4,13.7,18.1c1.5,7.7-0.8,16-5.9,22c7.4,11.6,2.1,29.2-10.4,34.7
				c-14.3,6.3-32.9-5.4-36.5-19.9c-2-7.8,0.2-16.6,5.4-22.8C786.7,471.2,773.1,444,782.6,425.9z"/>
			<path class="st6" d="M1022.1,302.3c1.8-6.8,8.6-11.9,15.7-11.8c7.1,0.2,13.6,5.4,15.2,12.2c3.3-5.4,10.3-8.4,16.4-7.2
				c6.2,1.2,11.5,6.6,12.5,13c3.2,1.8,1.8,7.2-1.7,8.6c-3.3,1.4-7.2-0.2-10.4-2c-3.2-1.8-6.2-4.1-9.8-4.5c0.8,2.7-1.5,5.4-4.1,6.5
				c-2.6,1.1-5.6,0.9-8.3,1.2c-11,1.5-19.4,11.3-30.3,13.4c-8.9,1.8-18.7-2.3-23.7-9.8C976.5,296.6,1016.3,280.3,1022.1,302.3z"/>
			<path class="st6" d="M1113.4,506.4c6.9-2.6,12.2-9.2,13-16.4c0.9-7.2-2.6-14.9-8.7-19.1c4.8-5.6-1.7-17.5-8.7-19.3
				c12.8-7.2,20.5-22.9,18.4-37.5c-2.1-14.6-13.9-27.4-28.3-30.8c3.6-17.2-9.6-36.2-27-38.7c2.4-4.5,1.1-10.6-3-13.7
				c-3.9-3.2-11.9-4.8-15.8-1.5c0.2-5.3-3-10.4-7.7-12.8c-4.7-2.4-10.7-1.8-14.9,1.4c-0.8-8.1-12.2-13.7-20.2-11.9
				c-1.4-9.5-4.4-19-10.1-26.7c-5.7-7.7-14.5-13.6-24.1-14.2c-9.6-0.6-19.8,4.7-23.2,13.7c0.9-3.6-1.2-7.7-4.7-9
				c-3.5-1.2-7.8,0.6-9.3,3.9c0.5-5.4-6.5-8.9-11.9-8.3c0.2-7.8-5.7-15.5-13.3-17.5c-7.7-2-16.4,1.8-20.2,8.6
				c-0.9-6-10-8.3-14.2-3.9c-1.4-4.2-4.7-8.1-9-9.2c-4.4-1.1-9.5,1.8-10.3,6.2c-0.6,4.4,5,8.7,8.7,6.2c1.2,7.1,14,13.6,20.4,10.1
				c-0.5,6.3,3.9,12.5,10,14.5c6,1.8,13.1-0.9,16.4-6.3c-5.6,10.6-2.6,25,6.8,32.6c9.3,7.5,24.1,7.2,33.2-0.6
				c0.9,5.6,7.8,14.5,13.4,15.8c5.4,1.4,11.6-0.9,15.1-5.4c-2.4,9.8,3,21,12.1,25.3c4.1,2,8.9,2.4,13.3,1.5c0.3,2.1,0.9,4.1,2.1,5.7
				c3.8,5.7,12.2,7.7,18.2,4.4c-0.9,6,1.2,12.4,5.6,16.6c4.4,4.2,11,5.9,16.9,4.5c-6.5,6.3-7.1,17.6-1.4,24.6
				c3.2,3.8,7.8,5.9,12.8,6.3c-0.5,3.2-0.5,6.3,0,9.3c0.9,5.3,3.3,10.1,6.8,14.2c1.4,5.3,3.9,10,7.7,13.3
				c-12.1,2.6-22.5,11.8-26.7,23.4c-4.1,11.6-1.8,25.3,5.9,35c-8.4,3.8-14.2,13-14,22.2c0.2,9.3,6.2,18.2,14.8,21.7
				c-8.6-1.7-16.7,3.2-21.1,10.7c-4.5,7.4-3.6,17.6,1.8,24.4c-9,1.2-17,8.1-19.4,17c-2.4,8.7,0.8,18.8,8,24.6
				c-8.7-0.9-17.6-1.4-26.1,1.1c-8.4,2.4-16.3,7.8-19.9,15.8c-3.6,8-1.7,18.5,5.4,23.5c-13-8.6-31.8-6.8-43.1,4.1
				c2.4-4.8-0.3-9.8-4.2-13.6c-3.9-3.6-10.4-4.4-14.9-1.5c3.6-9.5,1.2-21-5.9-28.3c-7.1-7.4-18.4-10.3-28-7.1
				c4.7-8.9,2.4-20.8-5.1-27.4c-3.9-3.5-9.2-5.1-14.3-5.3c-1.4-1.7-3-3-4.7-4.1c2.7-4.1,4.4-8.9,4.4-13.7c0-8.9-5-17.8-12.8-22.2
				c11.8-6,17.3-21.7,12.1-33.8c-5.3-12.1-20.5-18.7-33-14.3c-0.5-11.9-14.6-21.1-25.8-16.6c-11.2,4.4-15.1,20.8-7.2,29.9
				c-11.2,2-17.9,16.6-12.2,26.4c2.3,3.8,6,6.3,10.3,7.4c-1.1,2.4-1.5,5.1-1.1,7.7c1.1,5.6,6,10.1,11.6,10.6
				c-2.9,3.8-4.4,8.6-4.4,13.4c0.2,6.6,3.2,12.7,6.2,18.5c4.8,9.3,10.4,14.9,15.1,24.1c-3.2,11.6-0.9,24.7,6.3,34.5
				c7.1,9.8,18.8,16,30.9,16.6c0,10.3,10.9,19,21,17c-2.3,8.1,7.7,16.1,16,14.8c3,7.2,10.3,12.5,18.1,13.3c7.8,0.8,16-2.9,20.4-9.3
				c6.2,6,15.5,8.6,23.8,6.3c8.3-2.1,16.6-8.3,19-16.4c5.6,18.1,26.4,29.9,44.8,25.3c18.4-4.4,33-25.8,29.7-44.3
				c13.1-4.2,19.8-21.9,12.7-33.8c14.3-0.6,26.4-11.9,32.6-24.9c2.3-4.7,3.9-9.5,5-14.6c1.5-7.1,2.1-14.9-2.9-20.2
				c14.5-5.1,25.3-19,26.7-34.2C1135,530.9,1126.7,514.1,1113.4,506.4z"/>
		</g>
	</g>
	<g>
		<defs>
			<rect id="SVGID_37_" width="1922" height="1086"/>
		</defs>
		<clipPath id="SVGID_38_">
			<use xlink:href="#SVGID_37_"  style="overflow:visible;"/>
		</clipPath>
		<path id="XMLID_1_" class="st29" d="M1886.4,331h-391.1c20.2,0,33.6-18.1,50.7-28.9c17-10.9,35.3-21.1,55.5-23.5
			c20.1-2.4,42.5,4.5,53.4,21.6c-1.8-9.8-4.1-21.6,0.6-30.3c4.7-8.7,13.4-15.7,23.4-16.9c10-1.2,20.7,3.9,24.7,13
			c-8.9-11.5-11.9-28.8-7.1-42.4c5-13.7,15.5-24.7,27.9-32.3c13-7.8,28.5-12.2,43.3-9.3c14.8,2.9,28.5,13.6,32.4,28.2
			c1.5-5,6.5-7.2,11.5-5.7c5,1.5,8.6,6,10.3,11c1.7,4.8,1.8,10.3,2,15.4c6.8-13.3,23.5-19.3,37.5-14.3c14,5,23.8,19.1,25.5,33.9
			c1.7,14.8-3.9,29.9-13.3,41.5c7.1-3.8,13.6-10.6,21.4-11.8c8-1.2,16.9,0.6,22.2,6.8c7.4,8.7,4.7,22.7-3,31.2
			C1906.5,326.2,1897.9,331,1886.4,331z"/>
	</g>
	<g>
		<defs>
			<rect id="SVGID_39_" width="1922" height="1086"/>
		</defs>
		<clipPath id="SVGID_40_">
			<use xlink:href="#SVGID_39_"  style="overflow:visible;"/>
		</clipPath>
		<path id="XMLID_2_" class="st30" d="M16.7,326h409.6c-28.3,0-55.9-7.9-81.3-20.7c-11.8-5.9-23.1-13.3-35.9-16.2
			c-12.8-3-28-0.6-36,9.9c-1.1-2.9-3.5-5.3-6.5-5.9c-3-0.6-6.3,0.6-8.4,2.9c1.1-6.3-2-13.3-7.7-16.1c-5.7-2.9-13.4-1.5-17.8,3.2
			c-4.7-5.1-14.5-4.8-18.4,1.1c2-11.9-5.3-25.3-16.9-28.8c-11.6-3.5-25.3,2.7-30.3,13.7c-2.9-4.1-6.6-5.6-11.5-4.4
			c-4.8,1.4-8.6,5.7-9.2,10.7c4.1-9.8,5-21.4,0.6-30.9c-4.4-9.5-13.4-17-23.7-19.1c-10.4-2.1-21.7,1.5-28.6,9.6
			c-9.5,11-9,27.1-8.1,41.6c-3.3-3-9-3.5-12.4-0.3c-3.3,3-4.5,7.8-4.1,12.4c0.3,4.5,2,8.7,3.6,13c-5.3-7.1-15.2-10.1-23.4-6.8
			c-8.1,3.3-13.4,12.5-12.4,21.1c-2.7-3.5-7.4-7.2-11.8-8c-4.4-0.8-9.2,1.1-11.6,4.9C12.3,316.5,12.9,324,16.7,326z"/>
	</g>
</g>
<rect x="393" y="181" class="st31" width="614" height="698"/>
<g class="st32">
	<path class="st6" d="M592,593H420.4c-7.4,0-13.6-2.4-18.5-7.3c-4.9-4.9-7.3-11.5-7.3-19.8c0-5.1,1.4-10.2,4.2-15.3l168.5-332.1
		c3.7-7.4,8.5-12.6,14.3-15.7c5.8-3,11.7-4.5,17.8-4.5c3.2,0,7.1,0.7,11.5,2.1c4.4,1.4,8.5,3.3,12.2,5.6c3.7,2.3,6.8,5.3,9.4,9.1
		c2.5,3.7,3.8,7.7,3.8,11.8c0,2.8-1.2,6.4-3.5,11.1L489.3,524H592v-96c0-8.8,3.7-15.1,11.3-18.8c7.7-3.7,16-5.6,25.3-5.6
		c9.3,0,17.5,1.9,25.1,5.6c7.7,3.7,11.2,10,11.2,18.8v96h34.6c8.4,0,14.6,3.7,18.8,10.9c4.2,7.2,6.3,15.2,6.3,24.1
		c0,8.4-2.6,16.1-7.7,23.3c-5.1,7.2-10.9,10.8-17.4,10.8H665v89.9c0,7.9-3.6,13.9-11.3,18.1c-7.7,4.2-16,6.3-25.3,6.3
		c-9.3,0-17.5-2.1-25.2-6.3c-7.7-4.2-11.3-10.2-11.3-18.1V593z"/>
</g>
<rect x="1221" y="181" class="st31" width="615" height="698"/>
<g class="st32">
	<path class="st6" d="M1420,593h-171c-7.4,0-13.6-2.4-18.5-7.3c-4.9-4.9-7.3-11.5-7.3-19.8c0-5.1,1.4-10.2,4.2-15.3l168.5-332.1
		c3.7-7.4,8.5-12.6,14.3-15.7c5.8-3,11.7-4.5,17.8-4.5c3.2,0,7.1,0.7,11.5,2.1c4.4,1.4,8.5,3.3,12.2,5.6c3.7,2.3,6.8,5.3,9.4,9.1
		c2.5,3.7,3.8,7.7,3.8,11.8c0,2.8-1.2,6.4-3.5,11.1L1317.9,524H1420v-96c0-8.8,4-15.1,11.6-18.8c7.7-3.7,16.2-5.6,25.5-5.6
		c9.3,0,17.8,1.9,25.4,5.6c7.7,3.7,11.5,10,11.5,18.8v96h34.2c8.4,0,14.6,3.7,18.8,10.9c4.2,7.2,6.3,15.2,6.3,24.1
		c0,8.4-2.6,16.1-7.7,23.3c-5.1,7.2-10.9,10.8-17.4,10.8H1494v89.9c0,7.9-3.8,13.9-11.5,18.1c-7.7,4.2-16.1,6.3-25.4,6.3
		c-9.3,0-17.9-2.1-25.5-6.3c-7.7-4.2-11.6-10.2-11.6-18.1V593z"/>
</g>
<rect x="498" y="751" class="st31" width="923" height="118"/>
</svg>
