<?xml version="1.0" encoding="utf-8"?>
<!-- Generator: Adobe Illustrator 19.1.0, SVG Export Plug-In . SVG Version: 6.00 Build 0)  -->
<svg version="1.1" id="Layer_1" xmlns="http://www.w3.org/2000/svg" xmlns:xlink="http://www.w3.org/1999/xlink" x="0px" y="0px"
	 viewBox="-544 187.1 164.8 39.9" style="enable-background:new -544 187.1 164.8 39.9;" xml:space="preserve">
<style type="text/css">
	.st0{fill:#0070FF;}
	.st1{fill:#A2CBEB;}
	.st2{fill:#FFFFFF;}
</style>
<g id="Logo_2">
	<g>
		<path class="st0" d="M-499.8,226.1c-0.4,0-0.8-0.1-1.1-0.3c-0.3-0.2-0.6-0.5-0.8-0.9l-7.2-13.6v13.8c0,0.3-0.2,0.6-0.5,0.8
			c-0.3,0.1-0.6,0.2-1,0.2s-0.8-0.1-1.1-0.3s-0.5-0.4-0.5-0.8v-19.8c0-0.4,0.2-0.6,0.5-0.8s0.7-0.2,1.1-0.2c0.6,0,1,0.1,1.4,0.4
			c0.3,0.3,0.7,0.7,1,1.4l6.7,13v-13.9c0-0.4,0.2-0.6,0.5-0.8c0.3-0.2,0.7-0.2,1.1-0.2c0.4,0,0.8,0.1,1.1,0.2
			c0.3,0.2,0.5,0.4,0.5,0.8V225c0,0.3-0.2,0.6-0.5,0.8C-499,226-499.4,226.1-499.8,226.1z"/>
		<path class="st0" d="M-488.2,211.7c0.8,0,1.6,0.2,2.4,0.5c0.8,0.3,1.4,0.7,2,1.3c0.6,0.6,1,1.2,1.4,1.9c0.3,0.7,0.5,1.5,0.5,2.3
			v2.8c0,0.8-0.2,1.5-0.5,2.3c-0.3,0.7-0.8,1.4-1.4,1.9c-0.6,0.6-1.2,1-2,1.3c-0.8,0.3-1.5,0.5-2.4,0.5c-0.8,0-1.6-0.2-2.4-0.5
			c-0.8-0.3-1.4-0.8-2-1.3s-1-1.2-1.3-1.9c-0.3-0.7-0.5-1.5-0.5-2.3v-2.8c0-0.8,0.2-1.5,0.5-2.3c0.3-0.7,0.8-1.3,1.3-1.9
			c0.6-0.5,1.2-1,2-1.3C-489.8,211.8-489,211.7-488.2,211.7z M-485.1,217.6c0-0.4-0.1-0.8-0.2-1.1c-0.1-0.3-0.4-0.7-0.7-1
			c-0.3-0.3-0.6-0.5-1-0.7s-0.8-0.3-1.2-0.3c-0.4,0-0.8,0.1-1.2,0.3s-0.7,0.4-1,0.7c-0.3,0.3-0.5,0.6-0.6,1
			c-0.2,0.4-0.2,0.8-0.2,1.1v2.8c0,0.4,0.1,0.8,0.2,1.2c0.2,0.4,0.4,0.7,0.6,1c0.3,0.3,0.6,0.5,1,0.7s0.8,0.3,1.2,0.3
			c0.4,0,0.8-0.1,1.2-0.3s0.7-0.4,1-0.7s0.5-0.6,0.7-1c0.2-0.4,0.2-0.8,0.2-1.2V217.6z"/>
		<path class="st0" d="M-471.5,214.4c-0.5,0-0.9,0.1-1.3,0.3c-0.4,0.2-0.8,0.5-1.2,0.9c-0.3,0.4-0.6,0.8-0.8,1.4
			c-0.2,0.6-0.3,1.2-0.3,1.8v6.2c0,0.3-0.2,0.5-0.5,0.7c-0.3,0.2-0.7,0.3-1.2,0.3s-0.8-0.1-1.1-0.3c-0.3-0.2-0.4-0.5-0.4-0.7v-12.1
			c0-0.3,0.1-0.5,0.4-0.7c0.3-0.2,0.6-0.3,1.1-0.3c0.4,0,0.7,0.1,1,0.3c0.3,0.2,0.4,0.4,0.4,0.7v1.3c0.2-0.3,0.4-0.6,0.6-0.9
			c0.3-0.3,0.5-0.6,0.9-0.8c0.3-0.2,0.7-0.4,1.1-0.6c0.4-0.1,0.8-0.2,1.2-0.2h1c0.3,0,0.6,0.1,0.8,0.4c0.2,0.3,0.4,0.6,0.4,1
			s-0.1,0.7-0.4,1c-0.2,0.3-0.5,0.4-0.8,0.4L-471.5,214.4L-471.5,214.4z"/>
		<path class="st0" d="M-456.6,203.4c0.5,0,0.8,0.1,1.1,0.3c0.3,0.2,0.4,0.4,0.4,0.7V225c0,0.3-0.1,0.5-0.4,0.7
			c-0.3,0.2-0.7,0.3-1.1,0.3s-0.7-0.1-1-0.3c-0.3-0.2-0.4-0.5-0.4-0.7v-1c-0.3,0.6-0.8,1.2-1.6,1.6c-0.8,0.4-1.6,0.7-2.6,0.7
			c-0.7,0-1.4-0.2-2-0.5c-0.6-0.3-1.2-0.8-1.7-1.3s-0.9-1.2-1.2-1.9c-0.3-0.7-0.4-1.5-0.4-2.3v-2.8c0-0.8,0.1-1.6,0.4-2.3
			c0.3-0.7,0.7-1.4,1.2-1.9s1.1-1,1.7-1.3c0.6-0.3,1.3-0.5,2.1-0.5c1,0,1.8,0.2,2.4,0.7c0.6,0.5,1.1,1,1.5,1.6v-9.5
			c0-0.3,0.1-0.5,0.5-0.7C-457.5,203.5-457.1,203.4-456.6,203.4z M-464.4,220.3c0,0.4,0.1,0.8,0.2,1.2c0.2,0.4,0.4,0.7,0.7,1
			c0.3,0.3,0.6,0.5,1,0.7c0.4,0.2,0.8,0.3,1.2,0.3s0.8-0.1,1.2-0.3c0.4-0.2,0.7-0.4,1-0.7c0.3-0.3,0.5-0.5,0.7-0.8
			c0.2-0.3,0.2-0.5,0.2-0.7v-3.5c0-0.5-0.1-0.9-0.3-1.3c-0.2-0.4-0.4-0.7-0.7-1c-0.3-0.3-0.6-0.5-1-0.6c-0.4-0.1-0.7-0.2-1.1-0.2
			s-0.8,0.1-1.2,0.3c-0.4,0.2-0.7,0.4-1,0.7c-0.3,0.3-0.5,0.6-0.7,1c-0.2,0.4-0.2,0.8-0.2,1.1C-464.4,217.5-464.4,220.3-464.4,220.3
			z"/>
		<path class="st0" d="M-449.3,205c0.5,0,1,0.2,1.3,0.5c0.3,0.3,0.5,0.7,0.5,1.2c0,0.4-0.2,0.8-0.5,1.2c-0.3,0.4-0.8,0.5-1.3,0.5
			s-1-0.2-1.3-0.5s-0.5-0.7-0.5-1.2s0.2-0.9,0.5-1.2C-450.3,205.2-449.8,205-449.3,205z M-449.3,211.8c0.5,0,0.8,0.1,1.1,0.3
			c0.3,0.2,0.4,0.4,0.4,0.7v12.1c0,0.3-0.1,0.5-0.4,0.7c-0.3,0.2-0.7,0.3-1.1,0.3c-0.5,0-0.8-0.1-1.1-0.3c-0.3-0.2-0.4-0.5-0.4-0.7
			v-12c0-0.3,0.1-0.5,0.4-0.7C-450.1,211.9-449.8,211.8-449.3,211.8z"/>
		<path class="st0" d="M-437.7,226.3c-1.1,0-2-0.2-2.8-0.5s-1.4-0.7-2-1.2c-0.5-0.5-0.9-1.2-1.1-1.9c-0.2-0.7-0.4-1.5-0.4-2.4v-2.7
			c0-0.8,0.1-1.6,0.4-2.4c0.2-0.7,0.6-1.4,1.1-1.9s1.2-0.9,1.9-1.3c0.8-0.3,1.7-0.5,2.8-0.5c0.7,0,1.3,0.1,1.9,0.2
			c0.6,0.1,1,0.3,1.5,0.5c0.4,0.2,0.7,0.4,0.9,0.7s0.3,0.5,0.3,0.8c0,0.3-0.1,0.6-0.3,1c-0.2,0.4-0.5,0.5-0.9,0.5
			c-0.2,0-0.3,0-0.5-0.2c-0.2-0.1-0.4-0.2-0.6-0.3c-0.2-0.1-0.5-0.2-0.8-0.3c-0.3-0.1-0.7-0.1-1.2-0.1c-1.1,0-2,0.3-2.5,0.8
			c-0.5,0.6-0.8,1.3-0.8,2.3v2.7c0,1,0.3,1.8,0.8,2.3c0.5,0.6,1.4,0.8,2.5,0.8c0.5,0,0.9,0,1.2-0.2c0.3-0.1,0.6-0.2,0.8-0.3
			c0.2-0.1,0.4-0.2,0.6-0.3c0.2-0.1,0.3-0.2,0.5-0.2c0.4,0,0.8,0.2,1,0.5s0.4,0.7,0.4,1s-0.1,0.5-0.4,0.8c-0.2,0.3-0.6,0.5-1,0.7
			s-0.9,0.4-1.5,0.5C-436.5,225.8-437.1,226.3-437.7,226.3z"/>
		<path class="st0" d="M-424.3,223.4c1.1,0,2-0.3,2.7-0.8s1.1-1.3,1.1-2.4c0-0.9-0.2-1.6-0.7-2.1s-1.1-1-1.8-1.4
			c-0.7-0.4-1.5-0.7-2.4-1c-0.9-0.3-1.6-0.7-2.4-1.2c-0.7-0.5-1.3-1.1-1.8-1.8c-0.5-0.7-0.7-1.7-0.7-2.9c0-1.1,0.2-2,0.6-2.8
			c0.4-0.7,1-1.3,1.6-1.8c0.7-0.4,1.4-0.8,2.2-0.9c0.8-0.2,1.6-0.3,2.4-0.3c0.5,0,1,0,1.7,0.1c0.6,0.1,1.2,0.2,1.8,0.4
			c0.6,0.2,1,0.4,1.4,0.7c0.4,0.3,0.6,0.6,0.6,1c0,0.2,0,0.3-0.1,0.5c0,0.2-0.1,0.4-0.2,0.6c-0.1,0.2-0.3,0.3-0.4,0.4
			c-0.2,0.1-0.4,0.2-0.6,0.2c-0.2,0-0.4-0.1-0.6-0.2c-0.2-0.1-0.5-0.3-0.8-0.4c-0.3-0.1-0.7-0.3-1.1-0.4s-1-0.2-1.6-0.2
			c-1.1,0-2,0.2-2.7,0.6c-0.7,0.4-1,1.1-1,2.1c0,0.7,0.2,1.3,0.7,1.8c0.5,0.4,1.1,0.8,1.8,1.1c0.7,0.3,1.5,0.7,2.4,1
			c0.8,0.3,1.6,0.7,2.4,1.3c0.7,0.5,1.3,1.2,1.8,2s0.7,1.9,0.7,3.2c0,1.1-0.2,2-0.5,2.8c-0.3,0.8-0.8,1.5-1.4,2
			c-0.6,0.5-1.3,0.9-2.2,1.2c-0.8,0.3-1.8,0.4-2.7,0.4c-1,0-1.9-0.1-2.7-0.3c-0.8-0.2-1.5-0.5-2.1-0.9c-0.6-0.4-1-0.7-1.4-1.1
			c-0.3-0.4-0.5-0.8-0.5-1.2c0-0.2,0-0.4,0.1-0.6c0.1-0.2,0.2-0.4,0.3-0.6s0.3-0.3,0.4-0.4c0.2-0.1,0.3-0.2,0.5-0.2
			c0.3,0,0.5,0.1,0.8,0.4c0.3,0.3,0.6,0.5,0.9,0.8c0.4,0.3,0.8,0.6,1.4,0.8C-425.8,223.3-425.1,223.4-424.3,223.4z"/>
		<path class="st0" d="M-408.1,211.7c0.8,0,1.6,0.2,2.4,0.5c0.8,0.3,1.4,0.7,2,1.3c0.6,0.6,1,1.2,1.4,1.9c0.3,0.7,0.5,1.5,0.5,2.3
			v2.8c0,0.8-0.2,1.5-0.5,2.3c-0.3,0.7-0.8,1.4-1.4,1.9c-0.6,0.6-1.2,1-2,1.3c-0.8,0.3-1.5,0.5-2.4,0.5c-0.8,0-1.6-0.2-2.4-0.5
			c-0.8-0.3-1.4-0.8-2-1.3s-1-1.2-1.3-1.9c-0.3-0.7-0.5-1.5-0.5-2.3v-2.8c0-0.8,0.2-1.5,0.5-2.3c0.3-0.7,0.8-1.3,1.3-1.9
			c0.6-0.5,1.2-1,2-1.3C-409.8,211.8-409,211.7-408.1,211.7z M-405.1,217.6c0-0.4-0.1-0.8-0.2-1.1c-0.2-0.4-0.4-0.7-0.7-1
			c-0.3-0.3-0.6-0.5-1-0.7s-0.8-0.3-1.2-0.3c-0.4,0-0.8,0.1-1.2,0.3s-0.7,0.4-1,0.7c-0.3,0.3-0.5,0.6-0.6,1
			c-0.1,0.4-0.2,0.8-0.2,1.1v2.8c0,0.4,0.1,0.8,0.2,1.2s0.4,0.7,0.6,1c0.3,0.3,0.6,0.5,1,0.7s0.8,0.3,1.2,0.3c0.4,0,0.8-0.1,1.2-0.3
			s0.7-0.4,1-0.7s0.5-0.6,0.7-1c0.2-0.4,0.2-0.8,0.2-1.2V217.6z"/>
		<path class="st0" d="M-395.1,211.8h3.9c0.3,0,0.5,0.1,0.6,0.4c0.2,0.2,0.2,0.5,0.2,0.8c0,0.3-0.1,0.6-0.2,0.8
			c-0.2,0.2-0.4,0.4-0.6,0.4h-3.9v10.9c0,0.3-0.2,0.5-0.5,0.7s-0.7,0.3-1.1,0.3c-0.4,0-0.8-0.1-1.1-0.3s-0.4-0.4-0.4-0.7v-16
			c0-0.8,0.1-1.5,0.4-2.3c0.3-0.7,0.7-1.3,1.2-1.8s1.1-0.9,1.7-1.2c0.6-0.3,1.3-0.4,2-0.4h1.4c0.4,0,0.7,0.1,0.9,0.4
			s0.3,0.6,0.3,0.9c0,0.3-0.1,0.7-0.3,0.9c-0.2,0.3-0.5,0.4-0.9,0.4h-0.8c-0.8,0-1.5,0.3-2,0.8s-0.8,1.2-0.8,2L-395.1,211.8
			L-395.1,211.8z"/>
		<path class="st0" d="M-384.4,221.4c0,0.7,0.2,1.2,0.5,1.5s0.9,0.4,1.6,0.4h1c0.5,0,0.8,0.1,1,0.4c0.2,0.3,0.3,0.6,0.3,0.9
			s-0.1,0.7-0.3,0.9c-0.2,0.3-0.6,0.4-1,0.4h-1c-1.7,0-3-0.4-3.9-1.1c-0.9-0.7-1.3-1.9-1.3-3.6v-15c0-0.3,0.2-0.5,0.5-0.7
			c0.3-0.2,0.7-0.3,1.1-0.3c0.4,0,0.8,0.1,1.1,0.3c0.3,0.2,0.5,0.4,0.5,0.7v5.5h3.7c0.3,0,0.5,0.1,0.6,0.4c0.1,0.2,0.2,0.5,0.2,0.8
			c0,0.3-0.1,0.6-0.2,0.8c-0.2,0.2-0.4,0.4-0.6,0.4h-3.7v7.3H-384.4z"/>
	</g>
	<path class="st1" d="M-512.5,189.6l5,9.7c0.1,0.3,0.1,0.6-0.2,0.8l-1.6,1.1c-0.3,0.2-0.8,0.1-0.9-0.2l-1.1-2.3
		c-0.2-0.5-0.9-0.5-1.1,0l-2.4,4.3c-0.2,0.3-0.6,0.4-0.9,0.2l-3.3-2.3c-0.3-0.2-0.3-0.5-0.2-0.8l5.7-10.4
		C-513.4,189.1-512.7,189.1-512.5,189.6z"/>
	<path class="st1" d="M-527.4,203.2l7.9,15.3c0.2,0.4,0.1,0.9-0.3,1.2l-1.7,1.3c-0.5,0.4-1.2,0.2-1.4-0.3l-4.4-8.2
		c-0.3-0.6-1.3-0.7-1.7-0.1l-2.4,3.8c-0.3,0.5-1.1,0.6-1.5,0.2l-1.9-2c-0.2-0.3-0.3-0.7-0.1-1.1l5.8-10.2
		C-528.8,202.5-527.8,202.5-527.4,203.2z"/>
	<path class="st2" d="M-513.1,191.9l-1.6,3c-0.1,0.2,0.1,0.4,0.3,0.3l0.9-0.4c0.1,0,0.2,0,0.3,0.1l0.9,1.6c0.1,0.1,0.2,0.2,0.3,0.1
		l1.2-0.8c0.1-0.1,0.1-0.2,0.1-0.3l-2-3.7C-512.8,191.7-513,191.7-513.1,191.9z"/>
	<path class="st2" d="M-529,203.7l-1.7,3.3c-0.4,0.9,0.4,1.8,1.3,1.4l0,0c0.2-0.1,0.4-0.1,0.6,0.1l0.8,0.6c0.3,0.2,0.6,0.1,0.8-0.1
		l1-1.1c0.2-0.2,0.2-0.5,0.1-0.7l-1.8-3.4C-528.1,203.3-528.8,203.3-529,203.7z"/>
	<path class="st0" d="M-523.6,210.9c-0.2,0-0.5-0.1-0.7-0.2c-0.7-0.4-1-1.3-0.6-2l10.4-20c0.3-0.5,0.8-0.8,1.3-0.8h0.2
		c0.6,0,1.1,0.3,1.3,0.8l5.8,11.2c0.5,1.1-0.3,2.5-1.8,2.2c-0.3,0-0.6-0.3-0.7-0.5l-3.8-7.4c-0.5-0.9-1.3-0.9-1.8,0l-8.2,15.9
		C-522.5,210.6-523,210.9-523.6,210.9z"/>
	<path class="st0" d="M-541.2,226c-0.2,0-0.5-0.1-0.7-0.2c-0.7-0.4-1-1.3-0.6-2l12.5-24c0.3-0.5,0.8-0.8,1.3-0.8l0,0
		c0.6,0,1.1,0.3,1.3,0.8l12.5,23.9c0.4,0.7,0.1,1.6-0.6,2c-0.7,0.4-1.6,0.1-2-0.6l-10.3-19.7c-0.4-0.7-1.4-0.7-1.8,0l-10.2,19.8
		C-540.1,225.7-540.6,226-541.2,226z"/>
</g>
</svg>
